<?xml version="1.0" encoding="utf-8"?>
<!-- Generator: Adobe Illustrator 23.0.3, SVG Export Plug-In . SVG Version: 6.00 Build 0)  -->
<svg version="1.1" id="Layer_1" xmlns="http://www.w3.org/2000/svg" xmlns:xlink="http://www.w3.org/1999/xlink" x="0px" y="0px"
	 viewBox="0 0 103 68" style="enable-background:new 0 0 103 68;" xml:space="preserve">
<style type="text/css">
	.st0{fill:url(#SVGID_1_);}
</style>
<g>
	
		<linearGradient id="SVGID_1_" gradientUnits="userSpaceOnUse" x1="52.3835" y1="51.7451" x2="52.3835" y2="-8.505" gradientTransform="matrix(1 0 0 -1 0 70)">
		<stop  offset="0" style="stop-color:#FF68D5"/>
		<stop  offset="0.5099" style="stop-color:#F3A7FF"/>
		<stop  offset="1" style="stop-color:#FF33AD"/>
	</linearGradient>
	<path class="st0" d="M24.4,63.3c-3.1,0-6-0.8-8.5-2.4c-2.5-1.6-4.5-3.7-5.9-6.4C8.7,51.7,8,48.8,8,45.6c0-0.7,0-1.3,0.1-1.9
		c0.1-0.6,0.2-1.2,0.3-1.8C11.6,28,18.9,18.1,30.3,12.3c4.7-2.4,8.8-3.6,12.1-3.6c2.7,0,5.3,0.6,7.8,1.8c2.5,1.2,4.7,2.8,6.7,4.8
		c2,2,3.6,4.3,4.7,6.9c1.2,2.5,1.8,5.1,1.8,7.8c0,0.9-0.1,1.7-0.2,2.6c-0.1,0.9-0.3,1.7-0.5,2.6C62,38,60.4,41.1,58,44.5
		c-1.8,2.5-3.9,4.7-6.2,6.9c-2.3,2.1-4.9,4-7.8,5.7c-6,3.6-11.9,5.7-17.7,6.2v-0.1c-0.2,0.1-0.5,0.1-0.8,0.1
		C25.2,63.3,24.9,63.3,24.4,63.3z M24.4,60.7c3.1,0,6.5-0.7,10.2-2.2s7.1-3.4,10.6-5.8c3.5-2.5,6.4-5.2,8.9-8.3
		c4.1-5.1,6.2-10,6.2-14.8c0-2.3-0.5-4.6-1.4-6.8c-0.9-2.2-2.2-4.1-3.8-5.8c-1.6-1.7-3.4-3.1-5.5-4.1c-2.1-1-4.3-1.5-6.6-1.5
		c-3.1,0-6.9,1.1-11.1,3.3c-10.7,5.5-17.5,15-20.5,28.3c-0.1,0.6-0.2,1.2-0.3,1.8c-0.1,0.5-0.1,1.1-0.1,1.7c0,2.7,0.6,5.2,1.7,7.4
		c1.2,2.1,2.8,3.8,4.8,5.1C19.3,60.1,21.7,60.7,24.4,60.7z M66.2,63c-1.3,0-1.9-0.3-1.9-1l0.1-0.3c0.1-0.3,0.2-0.8,0.6-1.6
		c0.4-0.8,0.9-1.9,1.4-3.2c1.1-2.5,2.4-5.5,4.1-8.9c2.8-5.9,5.4-11.2,7.8-15.9c2.4-4.7,4.6-8.9,6.6-12.5c-0.7,0.5-1.5,1.3-2.5,2.2
		c-1,0.9-2.1,1.9-3.4,3c-0.1,0.1-0.3,0.2-0.5,0.2c-0.3,0-0.7-0.1-1.2-0.4c-0.5-0.3-0.7-0.5-0.7-0.8c0-0.5,1.6-2.2,4.8-4.9l5.8-4.7
		l2.2-2.4c1.1-1.1,2-2.2,2.9-3.2c0.9-1,1.6-1.9,2.2-2.8c0.3-0.1,0.5-0.2,0.5-0.2c0.4,0,0.8,0.2,1.3,0.6c0.5,0.4,0.7,0.8,0.7,1.2
		l-0.1,0.2c-0.4,0.7-0.9,1.4-1.4,2.2c-0.6,0.7-1.3,1.6-2.2,2.5c-0.3,0.3-0.8,0.7-1.4,1.4c-0.1,0.1-0.7,1-1.8,2.7c-1,1.7-2,3.3-3,5
		c-0.9,1.6-1.8,3.3-2.7,5c-2.9,5.3-5.4,10.3-7.7,15c-2.2,4.6-4.2,9-5.8,13c-0.5,1.1-1.1,2.8-1.9,5c-0.1,0.4-0.1,0.7-0.2,1
		c-0.1,0.3-0.2,0.6-0.3,1c-0.2,0.8-0.6,1.3-1.1,1.6C67,63,66.6,63,66.2,63z"/>
</g>
</svg>
