<?xml version="1.0" encoding="utf-8"?>
<!-- Generator: Adobe Illustrator 23.0.3, SVG Export Plug-In . SVG Version: 6.00 Build 0)  -->
<svg version="1.1" id="Layer_1" xmlns="http://www.w3.org/2000/svg" xmlns:xlink="http://www.w3.org/1999/xlink" x="0px" y="0px"
	 viewBox="0 0 103 84" style="enable-background:new 0 0 103 84;" xml:space="preserve">
<style type="text/css">
	.st0{fill:url(#SVGID_1_);}
</style>
<g>
	
		<linearGradient id="SVGID_1_" gradientUnits="userSpaceOnUse" x1="52.8156" y1="61.5527" x2="52.8156" y2="1.303" gradientTransform="matrix(1 0 0 -1 0 90)">
		<stop  offset="0" style="stop-color:#FF68D5"/>
		<stop  offset="0.5099" style="stop-color:#F3A7FF"/>
		<stop  offset="1" style="stop-color:#FF33AD"/>
	</linearGradient>
	<path class="st0" d="M15.2,73.2c-1.3,0-1.9-0.3-1.9-1l0.1-0.3c0.1-0.3,0.2-0.8,0.6-1.6c0.4-0.8,0.9-1.9,1.4-3.2
		c1.1-2.5,2.4-5.5,4.1-8.9c2.8-5.9,5.4-11.2,7.8-15.9c2.4-4.7,4.6-8.9,6.6-12.5c-0.7,0.5-1.5,1.3-2.5,2.2c-1,0.9-2.1,1.9-3.4,3
		c-0.1,0.1-0.3,0.2-0.5,0.2c-0.3,0-0.7-0.1-1.2-0.4c-0.5-0.3-0.7-0.5-0.7-0.8c0-0.5,1.6-2.2,4.8-4.9l5.8-4.7l2.2-2.4
		c1.1-1.1,2-2.2,2.9-3.2c0.9-1,1.6-1.9,2.2-2.8c0.3-0.1,0.5-0.2,0.5-0.2c0.4,0,0.8,0.2,1.3,0.6c0.5,0.4,0.7,0.8,0.7,1.2l-0.1,0.2
		c-0.4,0.7-0.9,1.4-1.4,2.2c-0.6,0.7-1.3,1.6-2.2,2.5c-0.3,0.3-0.8,0.7-1.4,1.4c-0.1,0.1-0.7,1-1.8,2.7c-1,1.7-2,3.3-3,5
		c-0.9,1.6-1.8,3.3-2.7,5c-2.9,5.3-5.4,10.3-7.7,15c-2.2,4.6-4.2,9-5.8,13c-0.5,1.1-1.1,2.8-1.9,5c-0.1,0.4-0.1,0.7-0.2,1
		c-0.1,0.3-0.2,0.6-0.3,1c-0.2,0.8-0.6,1.3-1.1,1.6C16,73.2,15.7,73.2,15.2,73.2z M53.4,73.5c-3.1,0-6-0.8-8.5-2.4
		c-2.5-1.6-4.5-3.7-5.9-6.4c-1.4-2.7-2.1-5.7-2.1-8.9c0-0.7,0-1.3,0.1-1.9c0.1-0.6,0.2-1.2,0.3-1.8c3.3-13.9,10.6-23.8,21.9-29.6
		c4.7-2.4,8.8-3.6,12.1-3.6c2.7,0,5.3,0.6,7.8,1.8c2.5,1.2,4.7,2.8,6.7,4.8c2,2,3.6,4.3,4.7,6.9c1.2,2.5,1.8,5.1,1.8,7.8
		c0,0.9-0.1,1.7-0.2,2.6c-0.1,0.9-0.3,1.7-0.5,2.6c-0.7,2.8-2.3,5.9-4.8,9.3c-1.8,2.5-3.9,4.7-6.2,6.9c-2.3,2.1-4.9,4-7.8,5.7
		c-6,3.6-11.9,5.7-17.7,6.2v-0.1c-0.2,0.1-0.5,0.1-0.8,0.1C54.2,73.5,53.8,73.5,53.4,73.5z M53.4,70.9c3.1,0,6.5-0.7,10.2-2.2
		c3.6-1.4,7.1-3.4,10.6-5.8c3.5-2.5,6.4-5.2,8.9-8.3c4.1-5.1,6.2-10,6.2-14.8c0-2.3-0.5-4.6-1.4-6.8c-0.9-2.2-2.2-4.1-3.8-5.8
		c-1.6-1.7-3.4-3.1-5.5-4.1c-2.1-1-4.3-1.5-6.6-1.5c-3.1,0-6.9,1.1-11.1,3.3c-10.7,5.5-17.5,15-20.5,28.3c-0.1,0.6-0.2,1.2-0.3,1.8
		c-0.1,0.5-0.1,1.1-0.1,1.7c0,2.7,0.6,5.2,1.7,7.4c1.2,2.1,2.8,3.8,4.8,5.1C48.3,70.3,50.7,70.9,53.4,70.9z"/>
</g>
</svg>
