<?xml version="1.0" encoding="utf-8"?>
<!-- Generator: Adobe Illustrator 23.0.3, SVG Export Plug-In . SVG Version: 6.00 Build 0)  -->
<svg version="1.1" id="Layer_1" xmlns="http://www.w3.org/2000/svg" xmlns:xlink="http://www.w3.org/1999/xlink" x="0px" y="0px"
	 viewBox="0 0 117 73" style="enable-background:new 0 0 117 73;" xml:space="preserve">
<style type="text/css">
	.st0{fill:url(#SVGID_1_);}
</style>
<g>
	
		<linearGradient id="SVGID_1_" gradientUnits="userSpaceOnUse" x1="57.8764" y1="52.7065" x2="57.8764" y2="-7.543" gradientTransform="matrix(1 0 0 -1 0 70)">
		<stop  offset="0" style="stop-color:#FF68D5"/>
		<stop  offset="0.5099" style="stop-color:#F3A7FF"/>
		<stop  offset="1" style="stop-color:#FF33AD"/>
	</linearGradient>
	<path class="st0" d="M20.6,62.3c-3.1,0-6-0.8-8.5-2.4c-2.5-1.6-4.5-3.7-5.9-6.4c-1.4-2.7-2.1-5.7-2.1-8.9c0-0.7,0-1.3,0.1-1.9
		c0.1-0.6,0.2-1.2,0.3-1.8C7.7,27,15.1,17.2,26.4,11.3c4.7-2.4,8.8-3.6,12.1-3.6c2.7,0,5.3,0.6,7.8,1.8c2.5,1.2,4.7,2.8,6.7,4.8
		c2,2,3.6,4.3,4.7,6.9c1.2,2.5,1.8,5.1,1.8,7.8c0,0.9-0.1,1.7-0.2,2.6c-0.1,0.9-0.3,1.7-0.5,2.6c-0.7,2.8-2.3,5.9-4.8,9.3
		c-1.8,2.5-3.9,4.7-6.2,6.9c-2.3,2.1-4.9,4-7.8,5.7c-6,3.6-11.9,5.7-17.7,6.2v-0.1c-0.2,0.1-0.5,0.1-0.8,0.1
		C21.3,62.3,21,62.3,20.6,62.3z M20.6,59.7c3.1,0,6.5-0.7,10.2-2.2c3.6-1.4,7.1-3.4,10.6-5.8c3.5-2.5,6.4-5.2,8.9-8.3
		c4.1-5.1,6.2-10,6.2-14.8c0-2.3-0.5-4.6-1.4-6.8c-0.9-2.2-2.2-4.1-3.8-5.8c-1.6-1.7-3.4-3.1-5.5-4.1c-2.1-1-4.3-1.5-6.6-1.5
		c-3.1,0-6.9,1.1-11.1,3.3C17.1,19.2,10.2,28.7,7.3,42c-0.1,0.6-0.2,1.2-0.3,1.8c-0.1,0.5-0.1,1.1-0.1,1.7c0,2.7,0.6,5.2,1.7,7.4
		c1.2,2.1,2.8,3.8,4.8,5.1C15.5,59.1,17.9,59.7,20.6,59.7z M91,62.2c-6.3,0-13.5-1.1-21.5-3.3V59c-3.3,1.7-6.1,2.6-8.6,2.6
		c-1.4,0-2.8-0.3-4-1c-1.5-0.8-2.3-1.8-2.3-3.1c0-1.1,0.6-2,1.7-2.7c0.9-0.5,1.9-0.8,3.2-0.8c1,0,4.2,0.8,9.5,2.4l0.5-0.2l0.4-0.2
		c18.3-11.3,30.2-21.5,35.7-30.7c2.5-4.1,3.7-7.5,3.7-10.1c0-3.9-2.6-5.8-7.8-5.8c-3.4,0-7,0.9-10.6,2.7c-3.4,1.7-6.4,3.8-9,6.4
		c-0.5,0.5-1.1,1.1-1.8,2c-0.7,0.8-1.5,1.8-2.4,3c-0.2,0.4-0.6,0.6-1,0.6c-0.9,0-1.4-0.5-1.4-1.4c0-0.3,0.1-0.5,0.3-0.7
		c2.9-4.2,6.7-7.7,11.4-10.6c5.1-3,10-4.6,14.7-4.6c2.9,0,5.2,0.6,7,1.9c2,1.4,3,3.5,3,6.3c0,3.4-1.3,7.3-3.9,11.7
		c-5.7,9.5-17.3,19.7-35,30.7c6.9,1.6,12.9,2.4,18,2.4c9.2,0,13.8-1.7,13.6-5.2l-0.1-0.5c0-1,0.5-1.5,1.4-1.5c0.8,0,1.2,0.6,1.2,1.8
		C106.8,59.6,101.5,62.2,91,62.2z M60.8,58.9c1.4,0,2.9-0.3,4.6-1c-2.7-1-4.5-1.4-5.3-1.4c-1.4,0-2.2,0.4-2.2,1.2
		C58,58.5,58.9,58.9,60.8,58.9z"/>
</g>
</svg>
