<?xml version="1.0" encoding="utf-8"?>
<!-- Generator: Adobe Illustrator 23.0.3, SVG Export Plug-In . SVG Version: 6.00 Build 0)  -->
<svg version="1.1" id="Layer_1" xmlns="http://www.w3.org/2000/svg" xmlns:xlink="http://www.w3.org/1999/xlink" x="0px" y="0px"
	 viewBox="0 0 118 70" style="enable-background:new 0 0 118 70;" xml:space="preserve">
<style type="text/css">
	.st0{fill:url(#SVGID_1_);}
</style>
<g>
	
		<linearGradient id="SVGID_1_" gradientUnits="userSpaceOnUse" x1="59.2074" y1="56.668" x2="59.2074" y2="-3.582" gradientTransform="matrix(1 0 0 -1 0 76)">
		<stop  offset="0" style="stop-color:#FF68D5"/>
		<stop  offset="0.5099" style="stop-color:#F3A7FF"/>
		<stop  offset="1" style="stop-color:#FF33AD"/>
	</linearGradient>
	<path class="st0" d="M21.8,64.3c-3.1,0-6-0.8-8.5-2.4c-2.5-1.6-4.5-3.7-5.9-6.4c-1.4-2.7-2.1-5.7-2.1-8.9c0-0.7,0-1.3,0.1-1.9
		c0.1-0.6,0.2-1.2,0.3-1.8C9,29.1,16.3,19.2,27.6,13.4c4.7-2.4,8.8-3.6,12.1-3.6c2.7,0,5.3,0.6,7.8,1.8c2.5,1.2,4.7,2.8,6.7,4.8
		c2,2,3.6,4.3,4.7,6.9c1.2,2.5,1.8,5.1,1.8,7.8c0,0.9-0.1,1.7-0.2,2.6c-0.1,0.9-0.3,1.7-0.5,2.6c-0.7,2.8-2.3,5.9-4.8,9.3
		c-1.8,2.5-3.9,4.7-6.2,6.9c-2.3,2.1-4.9,4-7.8,5.7c-6,3.6-11.9,5.7-17.7,6.2v-0.1c-0.2,0.1-0.5,0.1-0.8,0.1
		C22.6,64.3,22.2,64.3,21.8,64.3z M21.8,61.8c3.1,0,6.5-0.7,10.2-2.2c3.6-1.4,7.1-3.4,10.6-5.8c3.5-2.5,6.4-5.2,8.9-8.3
		c4.1-5.1,6.2-10,6.2-14.8c0-2.3-0.5-4.6-1.4-6.8c-0.9-2.2-2.2-4.1-3.8-5.8c-1.6-1.7-3.4-3.1-5.5-4.1c-2.1-1-4.3-1.5-6.6-1.5
		c-3.1,0-6.9,1.1-11.1,3.3C18.3,21.2,11.4,30.7,8.5,44c-0.1,0.6-0.2,1.2-0.3,1.8c-0.1,0.5-0.1,1.1-0.1,1.7c0,2.7,0.6,5.2,1.7,7.4
		c1.2,2.1,2.8,3.8,4.8,5.1C16.7,61.2,19.1,61.8,21.8,61.8z M71.3,65.1c-2.3,0-4.3-0.2-6-0.5c-2-0.4-3.6-1.2-5-2.5
		c-1.3-1.3-1.9-3-1.9-5c0-0.6,0.2-1.4,0.5-2.2c0.3-0.8,0.7-1.5,1.3-2c0.5-0.6,1.1-0.9,1.6-0.9c0.5,0,0.8,0.3,0.8,0.8
		c0,0.3-0.3,0.8-0.8,1.7c-0.5,0.9-0.8,1.7-0.8,2.6c0,3.6,3.3,5.4,9.9,5.4c1.9,0,3.7-0.1,5.6-0.4c1.9-0.3,3.7-0.7,5.5-1.2
		c4.7-1.4,8.9-3.4,12.4-6c4.4-3.4,6.8-7.1,7.2-11.2v-0.6c0-3.6-1.5-5.7-4.5-6.5c-4.4,2.4-7.9,3.6-10.5,3.6c-2.2,0-3.4-0.4-3.4-1.3
		c0-0.2,0-0.3,0.1-0.3c0.4-1.6,1.7-2.7,3.9-3.4c3.7-1.1,6.8-1.5,9.3-1.4c9-6,13.5-11.6,13.5-17c0-3.8-2.6-5.8-7.8-5.8
		c-5.7,0-10.9,2.3-15.4,6.9c-0.2,0.2-0.4,0.5-0.6,0.9c-0.2,0.4-0.5,1-0.9,1.7c-0.5,1-1.5,1.8-3,2.6c-0.2,0.2-0.5,0.2-1,0.2
		c-1.2,0-1.8-0.5-1.8-1.4c0-0.3,0.1-0.6,0.2-0.8c6-8.2,13.4-12.3,22.3-12.3c7.4,0,11,2.5,11,7.6c0,5.7-4.5,11.8-13.4,18.4
		c3.3,1.6,5,4.3,5,8.2V44c-0.5,6.5-4.7,11.7-12.6,15.8C85.4,63.3,78.5,65.1,71.3,65.1z"/>
</g>
</svg>
