<?xml version="1.0" encoding="utf-8"?>
<!-- Generator: Adobe Illustrator 23.0.3, SVG Export Plug-In . SVG Version: 6.00 Build 0)  -->
<svg version="1.1" id="Layer_1" xmlns="http://www.w3.org/2000/svg" xmlns:xlink="http://www.w3.org/1999/xlink" x="0px" y="0px"
	 viewBox="0 0 118 68" style="enable-background:new 0 0 118 68;" xml:space="preserve">
<style type="text/css">
	.st0{fill:url(#SVGID_1_);}
</style>
<g>
	
		<linearGradient id="SVGID_1_" gradientUnits="userSpaceOnUse" x1="58.7497" y1="52.6299" x2="58.7497" y2="-7.62" gradientTransform="matrix(1 0 0 -1 0 70)">
		<stop  offset="0" style="stop-color:#FF68D5"/>
		<stop  offset="0.5099" style="stop-color:#F3A7FF"/>
		<stop  offset="1" style="stop-color:#FF33AD"/>
	</linearGradient>
	<path class="st0" d="M22.8,62.4c-3.1,0-6-0.8-8.5-2.4c-2.5-1.6-4.5-3.7-5.9-6.4c-1.4-2.7-2.1-5.7-2.1-8.9c0-0.7,0-1.3,0.1-1.9
		c0.1-0.6,0.2-1.2,0.3-1.8C10,27.1,17.3,17.2,28.7,11.4c4.7-2.4,8.8-3.6,12.1-3.6c2.7,0,5.3,0.6,7.8,1.8c2.5,1.2,4.7,2.8,6.7,4.8
		c2,2,3.6,4.3,4.7,6.9c1.2,2.5,1.8,5.1,1.8,7.8c0,0.9-0.1,1.7-0.2,2.6c-0.1,0.9-0.3,1.7-0.5,2.6c-0.7,2.8-2.3,5.9-4.8,9.3
		c-1.8,2.5-3.9,4.7-6.2,6.9c-2.3,2.1-4.9,4-7.8,5.7c-6,3.6-11.9,5.7-17.7,6.2v-0.1c-0.2,0.1-0.5,0.1-0.8,0.1
		C23.6,62.4,23.3,62.4,22.8,62.4z M22.8,59.8c3.1,0,6.5-0.7,10.2-2.2c3.6-1.4,7.1-3.4,10.6-5.8c3.5-2.5,6.4-5.2,8.9-8.3
		c4.1-5.1,6.2-10,6.2-14.8c0-2.3-0.5-4.6-1.4-6.8c-0.9-2.2-2.2-4.1-3.8-5.8c-1.6-1.7-3.4-3.1-5.5-4.1c-2.1-1-4.3-1.5-6.6-1.5
		c-3.1,0-6.9,1.1-11.1,3.3c-10.7,5.5-17.5,15-20.5,28.3c-0.1,0.6-0.2,1.2-0.3,1.8c-0.1,0.5-0.1,1.1-0.1,1.7c0,2.7,0.6,5.2,1.7,7.4
		c1.2,2.1,2.8,3.8,4.8,5.1C17.7,59.2,20.1,59.8,22.8,59.8z M82,62.1c-1.3,0-1.9-0.3-1.9-1c0-1.2,2.3-6.5,6.8-15.9
		c-2.8-0.1-5.6-0.4-8.5-0.8c-2.8-0.4-5.7-1-8.6-1.7c-1.5,0.8-2.7,1.2-3.5,1.2c-0.6,0-1.3-0.1-2.1-0.4c-0.9-0.4-1.4-0.9-1.4-1.4
		c0-0.7,0.4-1.4,1.3-1.8c0.9-0.5,1.7-0.8,2.5-0.8c0.1,0,0.2,0,0.4,0.1c0.2,0,0.5,0,0.7,0.1c3.8-2.9,8.6-6.5,14.2-10.9
		c5.7-4.4,12.3-9.6,19.9-15.6c0.7-0.7,1.7-1.7,2.8-2.7c1.2-1.1,2.5-2.3,4-3.7c0.1-0.1,0.2-0.1,0.5-0.1c0.4,0,0.8,0.2,1.3,0.6
		s0.7,0.7,0.7,1.1c0,0.5-0.5,1.3-1.5,2.3c-0.3,0.4-0.6,0.7-1,1.1c-0.3,0.3-0.7,0.7-1,1c-0.7,0.9-2.4,3.7-5.1,8.5
		c-2,3.6-4,7.1-5.8,10.7c-1.8,3.5-3.6,7-5.3,10.6c1.4,0.1,2.7,0,3.9-0.2c1.2-0.2,2.4-0.4,3.5-0.6c3.3-0.9,4.9-2.3,4.9-4.3v-0.6
		c0-1,0.5-1.5,1.4-1.5c0.9,0,1.3,0.7,1.3,2.1c0,5.2-5.4,7.8-16.1,7.8c-0.9,1.8-1.7,3.6-2.5,5.4c-0.8,1.9-1.6,3.8-2.3,5.8
		c-0.2,0.6-0.4,1.3-0.6,2.1c-0.2,0.7-0.5,1.6-0.9,2.6C83.7,61.8,83.1,62.1,82,62.1z M87.9,42.6c5.4-11.5,10.3-20.4,14.9-26.9
		c-1.7,1.5-3.9,3.3-6.6,5.4c-2.6,2-5.7,4.3-9.3,7c-3.6,2.6-6.8,5-9.4,7c-2.7,2-4.8,3.7-6.4,5.1C76.6,41.6,82.2,42.4,87.9,42.6z"/>
</g>
</svg>
