<?xml version="1.0" encoding="utf-8"?>
<!-- Generator: Adobe Illustrator 23.0.3, SVG Export Plug-In . SVG Version: 6.00 Build 0)  -->
<svg version="1.1" id="Layer_1" xmlns="http://www.w3.org/2000/svg" xmlns:xlink="http://www.w3.org/1999/xlink" x="0px" y="0px"
	 viewBox="0 0 125 76.5" style="enable-background:new 0 0 125 76.5;" xml:space="preserve">
<style type="text/css">
	.st0{fill:url(#SVGID_1_);}
</style>
<g>
	
		<linearGradient id="SVGID_1_" gradientUnits="userSpaceOnUse" x1="62.5238" y1="57.7451" x2="62.5238" y2="-2.505" gradientTransform="matrix(1 0 0 -1 0 82)">
		<stop  offset="0" style="stop-color:#FF68D5"/>
		<stop  offset="0.5099" style="stop-color:#F3A7FF"/>
		<stop  offset="1" style="stop-color:#FF33AD"/>
	</linearGradient>
	<path class="st0" d="M22.6,69.3c-3.1,0-6-0.8-8.5-2.4c-2.5-1.6-4.5-3.7-5.9-6.4c-1.4-2.7-2.1-5.7-2.1-8.9c0-0.7,0-1.3,0.1-1.9
		c0.1-0.6,0.2-1.2,0.3-1.8C9.8,34,17.1,24.1,28.4,18.3c4.7-2.4,8.8-3.6,12.1-3.6c2.7,0,5.3,0.6,7.8,1.8c2.5,1.2,4.7,2.8,6.7,4.8
		c2,2,3.6,4.3,4.7,6.9c1.2,2.5,1.8,5.1,1.8,7.8c0,0.9-0.1,1.7-0.2,2.6c-0.1,0.9-0.3,1.7-0.5,2.6c-0.7,2.8-2.3,5.9-4.8,9.3
		c-1.8,2.5-3.9,4.7-6.2,6.9c-2.3,2.1-4.9,4-7.8,5.7c-6,3.6-11.9,5.7-17.7,6.2v-0.1c-0.2,0.1-0.5,0.1-0.8,0.1
		C23.4,69.3,23,69.3,22.6,69.3z M22.6,66.7c3.1,0,6.5-0.7,10.2-2.2c3.6-1.4,7.1-3.4,10.6-5.8c3.5-2.5,6.4-5.2,8.9-8.3
		c4.1-5.1,6.2-10,6.2-14.8c0-2.3-0.5-4.6-1.4-6.8c-0.9-2.2-2.2-4.1-3.8-5.8c-1.6-1.7-3.4-3.1-5.5-4.1c-2.1-1-4.3-1.5-6.6-1.5
		c-3.1,0-6.9,1.1-11.1,3.3c-10.7,5.5-17.5,15-20.5,28.3c-0.1,0.6-0.2,1.2-0.3,1.8c-0.1,0.5-0.1,1.1-0.1,1.7c0,2.7,0.6,5.2,1.7,7.4
		c1.2,2.1,2.8,3.8,4.8,5.1C17.5,66.1,19.9,66.7,22.6,66.7z M104.1,21.7c-1.5,0-3.4-0.2-5.8-0.6c-2.3-0.4-5.1-1.1-8.2-1.9
		c-1.7,0.9-2.6,1.3-2.8,1.3c-0.5,0-1-0.2-1.7-0.5c-0.6-0.3-0.9-0.7-0.9-1.1c0-0.7,0.5-1.4,1.5-1.9c1-0.4,1.8-0.6,2.6-0.6
		c0.5,0,1.4,0.2,2.6,0.6c5.4,1.5,9.4,2.3,11.8,2.3c9,0,13.4-1.7,13.3-5.2l-0.1-0.5c0-1,0.5-1.5,1.4-1.5c0.7,0,1.1,0.4,1.1,1.1V13
		c0.1,0.2,0.1,0.5,0.1,0.9c0,2.9-1.8,5.1-5.5,6.5C110.8,21.3,107.7,21.7,104.1,21.7z M72.2,70c-8.6,0-12.9-2.6-12.9-7.9
		c0-0.6,0.2-1.4,0.5-2.2c0.3-0.8,0.7-1.5,1.2-2c0.5-0.6,1.1-0.9,1.7-0.9c0.5,0,0.8,0.3,0.8,0.8c0,0.3-0.3,0.8-0.8,1.7
		c-0.5,0.9-0.8,1.7-0.8,2.6c0,3.6,3.3,5.4,9.8,5.4c1.9,0,3.7-0.1,5.6-0.4c1.9-0.3,3.7-0.7,5.5-1.2c4.8-1.4,9-3.4,12.5-6
		c4.4-3.4,6.8-7.1,7.1-11.2v-0.6c0-2.9-0.8-5.3-2.5-7c-1.7-1.8-3.9-2.7-6.8-2.7c-3,0-6.4,1.1-10.2,3.3c-3.8,2.2-6,3.3-6.6,3.3
		c-1.5,0-2.2-0.5-2.2-1.4c0-0.5,0.4-1,1.3-1.5l-0.1-0.1c4-8.6,8.1-15.2,12.2-19.7c0.3-0.3,0.6-0.5,1-0.5c0.9,0,1.4,0.5,1.4,1.4
		c0,0.3-0.1,0.6-0.4,0.9c-0.4,0.5-1,1.2-1.7,2c-0.6,0.8-1.4,1.7-2.2,2.8c-1,1.3-2,2.9-3.1,5s-2.3,4.4-3.7,7.2l0.7-0.1
		c4.7-3.2,9.5-4.8,14.2-4.8c3.7,0,6.6,1,8.7,3.1c2.1,2.1,3.2,5,3.2,8.6c0,6.7-4.1,12.2-12.2,16.6C86.7,68.1,79.6,70,72.2,70z"/>
</g>
</svg>
