<?xml version="1.0" encoding="utf-8"?>
<!-- Generator: Adobe Illustrator 23.0.3, SVG Export Plug-In . SVG Version: 6.00 Build 0)  -->
<svg version="1.1" id="Layer_1" xmlns="http://www.w3.org/2000/svg" xmlns:xlink="http://www.w3.org/1999/xlink" x="0px" y="0px"
	 viewBox="0 0 121 85" style="enable-background:new 0 0 121 85;" xml:space="preserve">
<style type="text/css">
	.st0{fill:url(#SVGID_1_);}
</style>
<g>
	
		<linearGradient id="SVGID_1_" gradientUnits="userSpaceOnUse" x1="60.6108" y1="60.7065" x2="60.6108" y2="0.457" gradientTransform="matrix(1 0 0 -1 0 84)">
		<stop  offset="0" style="stop-color:#FF68D5"/>
		<stop  offset="0.5099" style="stop-color:#F3A7FF"/>
		<stop  offset="1" style="stop-color:#FF33AD"/>
	</linearGradient>
	<path class="st0" d="M22.6,68.3c-3.1,0-6-0.8-8.5-2.4c-2.5-1.6-4.5-3.7-5.9-6.4c-1.4-2.7-2.1-5.7-2.1-8.9c0-0.7,0-1.3,0.1-1.9
		c0.1-0.6,0.2-1.2,0.3-1.8C9.8,33,17.1,23.2,28.5,17.3c4.7-2.4,8.8-3.6,12.1-3.6c2.7,0,5.3,0.6,7.8,1.8c2.5,1.2,4.7,2.8,6.7,4.8
		c2,2,3.6,4.3,4.7,6.9c1.2,2.5,1.8,5.1,1.8,7.8c0,0.9-0.1,1.7-0.2,2.6c-0.1,0.9-0.3,1.7-0.5,2.6c-0.7,2.8-2.3,5.9-4.8,9.3
		c-1.8,2.5-3.9,4.7-6.2,6.9c-2.3,2.1-4.9,4-7.8,5.7c-6,3.6-11.9,5.7-17.7,6.2v-0.1c-0.2,0.1-0.5,0.1-0.8,0.1
		C23.4,68.3,23.1,68.3,22.6,68.3z M22.6,65.7c3.1,0,6.5-0.7,10.2-2.2c3.6-1.4,7.1-3.4,10.6-5.8c3.5-2.5,6.4-5.2,8.9-8.3
		c4.1-5.1,6.2-10,6.2-14.8c0-2.3-0.5-4.6-1.4-6.8c-0.9-2.2-2.2-4.1-3.8-5.8c-1.6-1.7-3.4-3.1-5.5-4.1c-2.1-1-4.3-1.5-6.6-1.5
		c-3.1,0-6.9,1.1-11.1,3.3C19.1,25.2,12.3,34.7,9.3,48c-0.1,0.6-0.2,1.2-0.3,1.8c-0.1,0.5-0.1,1.1-0.1,1.7c0,2.7,0.6,5.2,1.7,7.4
		c1.2,2.1,2.8,3.8,4.8,5.1C17.5,65.1,19.9,65.7,22.6,65.7z M76.1,70.8c-8.5,0-12.8-3.8-12.8-11.4c0-6.2,3-13,9.1-20.2
		c2.6-3.1,5.6-6.2,9-9c3.4-2.9,7.1-5.7,11.1-8.3c7.6-4.9,14.5-8.1,20.6-9.7l0.2-0.1h0.2c1.1,0,1.6,0.6,1.6,1.9c0,0.6-0.3,1-0.8,1.4
		c-0.9,0.5-2.2,0.9-4.1,1.2c-2,0.3-3.4,0.6-4.2,1c-8.4,3.5-16.8,9.1-25.2,16.7C71,43.2,66,51.5,66,58.9c0,3,0.9,5.4,2.6,7.1
		c1.8,1.7,4.2,2.6,7.3,2.6c0.8,0,1.5-0.1,2.2-0.2c-1-1.3-1.5-3.1-1.5-5.4c0-2.1,0.5-4,1.4-5.7c1.6-2.8,3.7-5.2,6.2-7.2
		c3-2.2,5.9-3.4,8.7-3.4c1.9,0,3.4,0.5,4.6,1.5c1.2,1,1.8,2.3,1.8,4.2c0,3.1-1.9,6.6-5.8,10.4C88.3,68.1,82.5,70.8,76.1,70.8z
		 M81.5,67.6c1.8-0.6,3.5-1.6,5.2-2.9c1.8-1.3,3.3-2.7,4.7-4.2c1.4-1.5,2.6-3,3.4-4.5c0.9-1.5,1.3-2.8,1.3-3.8
		c0-1.9-1.1-2.8-3.2-2.8c-1.5,0-3.1,0.5-4.7,1.4c-1.7,0.9-3.2,2.1-4.6,3.6c-1.4,1.4-2.5,3-3.4,4.7c-0.9,1.7-1.3,3.3-1.3,4.9
		c0,1.4,0.3,2.3,0.9,2.7L81.5,67.6z"/>
</g>
</svg>
