<?xml version="1.0" encoding="utf-8"?>
<!-- Generator: Adobe Illustrator 23.0.3, SVG Export Plug-In . SVG Version: 6.00 Build 0)  -->
<svg version="1.1" id="Layer_1" xmlns="http://www.w3.org/2000/svg" xmlns:xlink="http://www.w3.org/1999/xlink" x="0px" y="0px"
	 viewBox="0 0 119 75" style="enable-background:new 0 0 119 75;" xml:space="preserve">
<style type="text/css">
	.st0{fill:url(#SVGID_1_);}
</style>
<g>
	
		<linearGradient id="SVGID_1_" gradientUnits="userSpaceOnUse" x1="60.1258" y1="56.668" x2="60.1258" y2="-3.582" gradientTransform="matrix(1 0 0 -1 0 78)">
		<stop  offset="0" style="stop-color:#FF68D5"/>
		<stop  offset="0.5099" style="stop-color:#F3A7FF"/>
		<stop  offset="1" style="stop-color:#FF33AD"/>
	</linearGradient>
	<path class="st0" d="M21.5,66.3c-3.1,0-6-0.8-8.5-2.4c-2.5-1.6-4.5-3.7-5.9-6.4C5.7,54.8,5,51.9,5,48.7c0-0.7,0-1.3,0.1-1.9
		c0.1-0.6,0.2-1.2,0.3-1.8C8.7,31.1,16,21.2,27.3,15.4c4.7-2.4,8.8-3.6,12.1-3.6c2.7,0,5.3,0.6,7.8,1.8c2.5,1.2,4.7,2.8,6.7,4.8
		c2,2,3.6,4.3,4.7,6.9c1.2,2.5,1.8,5.1,1.8,7.8c0,0.9-0.1,1.7-0.2,2.6c-0.1,0.9-0.3,1.7-0.5,2.6c-0.7,2.8-2.3,5.9-4.8,9.3
		c-1.8,2.5-3.9,4.7-6.2,6.9c-2.3,2.1-4.9,4-7.8,5.7c-6,3.6-11.9,5.7-17.7,6.2v-0.1c-0.2,0.1-0.5,0.1-0.8,0.1
		C22.3,66.3,21.9,66.3,21.5,66.3z M21.5,63.8c3.1,0,6.5-0.7,10.2-2.2c3.6-1.4,7.1-3.4,10.6-5.8c3.5-2.5,6.4-5.2,8.9-8.3
		c4.1-5.1,6.2-10,6.2-14.8c0-2.3-0.5-4.6-1.4-6.8c-0.9-2.2-2.2-4.1-3.8-5.8c-1.6-1.7-3.4-3.1-5.5-4.1c-2.1-1-4.3-1.5-6.6-1.5
		c-3.1,0-6.9,1.1-11.1,3.3C18,23.2,11.2,32.7,8.2,46c-0.1,0.6-0.2,1.2-0.3,1.8c-0.1,0.5-0.1,1.1-0.1,1.7c0,2.7,0.6,5.2,1.7,7.4
		c1.2,2.1,2.8,3.8,4.8,5.1C16.4,63.2,18.8,63.8,21.5,63.8z M77.1,66.3c-1.3,0-2-0.5-2-1.5c0-3.3,2-8.3,6-14.9c0.6-1,1.7-2.7,3.2-5.1
		c1.6-2.5,3.6-5.4,6-8.7c2.4-3.4,5.1-6.9,8.1-10.5c3-3.7,6.2-7.1,9.5-10.4c-1.8,1.3-4.1,1.9-6.7,1.9c-1,0-2.3-0.1-3.8-0.3
		c-1.4-0.3-3.1-0.6-5.1-1c-2-0.4-3.7-0.7-5.2-1c-1.5-0.3-2.8-0.4-3.8-0.4c-0.3,0-0.6,0-1.1,0.1c-0.4,0-1,0-1.6,0.1
		c-1.7,0.3-3,1.2-4,2.7c-0.4,0.6-1,1.9-1.8,3.9c-0.5,1.3-1.1,2-1.7,2c-1.1,0-1.6-0.6-1.6-1.8c0-2.8,2-5.7,5.9-8.9
		c0.9-0.7,2.1-1,3.8-1c1.7,0,4.3,0.3,7.7,1c2.9,0.5,5.4,0.9,7.6,1.2c2.2,0.3,4.1,0.4,5.7,0.4c4.4,0,8.1-1,11-3.1
		c0.1-0.1,0.3-0.2,0.6-0.2c0.3,0,0.7,0.2,1,0.6c0.4,0.3,0.6,0.6,0.6,1c-0.1,0.2-0.1,0.3-0.2,0.3c-1.2,1.6-3.5,3.7-6.8,6.2v-0.1
		l-8.3,9.1c-1.5,1.7-2.9,3.4-4.2,5c-1.3,1.6-2.5,3.1-3.5,4.6c-7.2,10.4-11.5,18.2-13,23.4c-0.1,0.5-0.2,1-0.3,1.5
		c-0.1,0.4-0.2,0.9-0.3,1.3C78.7,65.5,78.1,66.3,77.1,66.3z"/>
</g>
</svg>
