<?xml version="1.0" encoding="utf-8"?>
<!-- Generator: Adobe Illustrator 23.0.3, SVG Export Plug-In . SVG Version: 6.00 Build 0)  -->
<svg version="1.1" id="Layer_1" xmlns="http://www.w3.org/2000/svg" xmlns:xlink="http://www.w3.org/1999/xlink" x="0px" y="0px"
	 viewBox="0 0 120 70.7" style="enable-background:new 0 0 120 70.7;" xml:space="preserve">
<style type="text/css">
	.st0{fill:url(#SVGID_1_);}
</style>
<g>
	
		<linearGradient id="SVGID_1_" gradientUnits="userSpaceOnUse" x1="60.4838" y1="52.6299" x2="60.4838" y2="-7.62" gradientTransform="matrix(1 0 0 -1 0 74)">
		<stop  offset="0" style="stop-color:#FF68D5"/>
		<stop  offset="0.5099" style="stop-color:#F3A7FF"/>
		<stop  offset="1" style="stop-color:#FF33AD"/>
	</linearGradient>
	<path class="st0" d="M21.6,66.4c-3.1,0-6-0.8-8.5-2.4c-2.5-1.6-4.5-3.7-5.9-6.4c-1.4-2.7-2.1-5.7-2.1-8.9c0-0.7,0-1.3,0.1-1.9
		c0.1-0.6,0.2-1.2,0.3-1.8c3.3-13.9,10.6-23.8,21.9-29.6c4.7-2.4,8.8-3.6,12.1-3.6c2.7,0,5.3,0.6,7.8,1.8c2.5,1.2,4.7,2.8,6.7,4.8
		c2,2,3.6,4.3,4.7,6.9c1.2,2.5,1.8,5.1,1.8,7.8c0,0.9-0.1,1.7-0.2,2.6c-0.1,0.9-0.3,1.7-0.5,2.6c-0.7,2.8-2.3,5.9-4.8,9.3
		c-1.8,2.5-3.9,4.7-6.2,6.9c-2.3,2.1-4.9,4-7.8,5.7c-6,3.6-11.9,5.7-17.7,6.2v-0.1c-0.2,0.1-0.5,0.1-0.8,0.1
		C22.4,66.4,22,66.4,21.6,66.4z M21.6,63.8c3.1,0,6.5-0.7,10.2-2.2c3.6-1.4,7.1-3.4,10.6-5.8c3.5-2.5,6.4-5.2,8.9-8.3
		c4.1-5.1,6.2-10,6.2-14.8c0-2.3-0.5-4.6-1.4-6.8c-0.9-2.2-2.2-4.1-3.8-5.8c-1.6-1.7-3.4-3.1-5.5-4.1c-2.1-1-4.3-1.5-6.6-1.5
		c-3.1,0-6.9,1.1-11.1,3.3c-10.7,5.5-17.5,15-20.5,28.3c-0.1,0.6-0.2,1.2-0.3,1.8c-0.1,0.5-0.1,1.1-0.1,1.7c0,2.7,0.6,5.2,1.7,7.4
		c1.2,2.1,2.8,3.8,4.8,5.1C16.5,63.2,18.9,63.8,21.6,63.8z M77.2,67.2c-6.2,0-10.4-1.3-12.6-3.8c-2.3-2.5-3.4-4.7-3.4-6.7
		c0-4.7,7-11.9,21.1-21.7c-3.2-3.3-4.8-6.9-4.8-10.8c0-3.1,0.7-5.9,2.2-8.2c1.5-2.4,3.5-4.3,6-5.6c2.5-1.3,5.2-2,8.2-2
		c4.1,0,7.5,1.4,10.5,4.1c1.4,1.3,2.1,2.4,2.1,3.4c0,0.6-0.2,0.9-0.7,0.9c-0.3,0-0.9-0.5-2-1.4c-0.7-0.6-1.3-1.1-1.9-1.6
		c-0.6-0.5-1.2-0.9-1.8-1.2c-1.8-1-3.8-1.4-5.9-1.4c-3.1,0-6,1-8.6,2.9c-1.8,1.4-3.1,2.9-3.8,4.6c-0.7,1.7-1,3.6-1,5.8
		c0,2,0.3,3.7,1,5.2c0.6,1.4,1.6,2.7,2.9,3.8l11.8-7.7c9-5.8,14.5-11.9,16.6-18.2c0.4-1.4,1.1-2.1,1.9-2.1c0.7,0,1.1,0.6,1.1,1.7
		v0.7c-0.6,3.2-3.1,6.9-7.6,11.2c-1.7,1.7-3.4,3.2-5.2,4.6c-1.8,1.4-3.6,2.7-5.6,3.9c-1.2,0.7-2.8,1.7-4.6,3c-1.8,1.2-4,2.6-6.5,4.2
		c2.2,1.8,3.9,3.2,5.3,4.3c1.4,1.1,2.3,1.9,2.9,2.5c2.8,2.9,4.2,6.1,4.2,9.4c0,3.2-1.3,6.3-4,9.2c-2.2,2.4-5.1,4.3-8.6,5.6
		C83.7,66.7,80.7,67.2,77.2,67.2z M76.8,64.8c3,0,5.7-0.5,8.2-1.4c2.9-1.1,5.4-2.7,7.4-4.7c2.4-2.4,3.6-5,3.6-7.8
		c0-2.7-1.4-5.3-4.1-7.7l-7.1-5.8l-1-1c-13,9-19.5,15.9-19.5,20.7c0,1.3,0.4,2.5,1.2,3.4l-0.1-0.1C67.7,63.4,71.4,64.8,76.8,64.8z"
		/>
</g>
</svg>
