<?xml version="1.0" encoding="utf-8"?>
<!-- Generator: Adobe Illustrator 23.0.3, SVG Export Plug-In . SVG Version: 6.00 Build 0)  -->
<svg version="1.1" id="Layer_1" xmlns="http://www.w3.org/2000/svg" xmlns:xlink="http://www.w3.org/1999/xlink" x="0px" y="0px"
	 viewBox="0 0 114 70" style="enable-background:new 0 0 114 70;" xml:space="preserve">
<style type="text/css">
	.st0{fill:url(#SVGID_1_);}
</style>
<g>
	
		<linearGradient id="SVGID_1_" gradientUnits="userSpaceOnUse" x1="54.3258" y1="55.5918" x2="54.3258" y2="-4.658" gradientTransform="matrix(1 0 0 -1 0 72)">
		<stop  offset="0" style="stop-color:#FF68D5"/>
		<stop  offset="0.5099" style="stop-color:#F3A7FF"/>
		<stop  offset="1" style="stop-color:#FF33AD"/>
	</linearGradient>
	<path class="st0" d="M20.5,61.4c-3.1,0-6-0.8-8.5-2.4c-2.5-1.6-4.5-3.7-5.9-6.4C4.7,49.9,4,46.9,4,43.7c0-0.7,0-1.3,0.1-1.9
		c0.1-0.6,0.2-1.2,0.3-1.8C7.7,26.1,15,16.3,26.3,10.5c4.7-2.4,8.8-3.6,12.1-3.6c2.7,0,5.3,0.6,7.8,1.8c2.5,1.2,4.7,2.8,6.7,4.8
		c2,2,3.6,4.3,4.7,6.9c1.2,2.5,1.8,5.1,1.8,7.8c0,0.9-0.1,1.7-0.2,2.6c-0.1,0.9-0.3,1.7-0.5,2.6c-0.7,2.8-2.3,5.9-4.8,9.3
		c-1.8,2.5-3.9,4.7-6.2,6.9c-2.3,2.1-4.9,4-7.8,5.7c-6,3.6-11.9,5.7-17.7,6.2v-0.1c-0.2,0.1-0.5,0.1-0.8,0.1
		C21.3,61.4,20.9,61.4,20.5,61.4z M20.5,58.9c3.1,0,6.5-0.7,10.2-2.2c3.6-1.4,7.1-3.4,10.6-5.8c3.5-2.5,6.4-5.2,8.9-8.3
		c4.1-5.1,6.2-10,6.2-14.8c0-2.3-0.5-4.6-1.4-6.8c-0.9-2.2-2.2-4.1-3.8-5.8c-1.6-1.7-3.4-3.1-5.5-4.1c-2.1-1-4.3-1.5-6.6-1.5
		c-3.1,0-6.9,1.1-11.1,3.3C17,18.3,10.2,27.8,7.2,41.1c-0.1,0.6-0.2,1.2-0.3,1.8c-0.1,0.5-0.1,1.1-0.1,1.7c0,2.7,0.6,5.2,1.7,7.4
		c1.2,2.1,2.8,3.8,4.8,5.1C15.4,58.2,17.8,58.9,20.5,58.9z M62.4,64.4c-0.5,0-0.9-0.2-1.3-0.7c-0.4-0.5-0.6-1-0.6-1.4
		c0-0.5,0.2-0.9,0.6-1c0.9-0.6,2.3-1,4.1-1.2c1.8-0.3,3.1-0.6,3.8-1c3.8-1.7,7.5-3.9,11-6.5c3.6-2.6,7-5.7,10.3-9.3
		c7.7-8.1,11.6-15.7,11.6-22.9c0-3.8-1.1-6.8-3.2-9.1c-2.1-2.3-5-3.5-8.8-3.5c-2.2,0-4.3,0.5-6.5,1.6c-2.1,1.1-4,2.5-5.7,4.2
		c-1.7,1.8-3.1,3.7-4.1,5.9c-1,2.1-1.5,4.3-1.5,6.5c0,2.5,0.7,4.6,2.2,6.3c1.4,1.8,3.4,2.6,5.8,2.6c3.1,0,6.4-2,9.8-5.9
		c0.7-0.8,1.4-1.2,1.9-1.2c0.8,0,1.2,0.3,1.2,1c0,0.4-0.2,0.9-0.6,1.4c-3.7,5-7.9,7.4-12.6,7.4c-2.1,0-3.9-0.5-5.6-1.6
		c-1.6-1.1-2.9-2.5-3.8-4.2c-0.9-1.8-1.4-3.7-1.4-5.8c0-2.6,0.6-5,1.8-7.4c1.2-2.5,2.7-4.7,4.7-6.6c2-2,4.2-3.6,6.6-4.8
		c2.5-1.2,5-1.8,7.5-1.8c4.6,0,8.2,1.4,10.9,4.1c2.7,2.7,4,6.3,4,10.8c0,5.9-2.4,12.1-7.2,18.8c-4.2,5.9-9.7,11.2-16.5,16.1
		c-6.5,4.6-12.5,7.7-18.2,9.1C62.7,64.4,62.6,64.4,62.4,64.4z"/>
</g>
</svg>
