<?xml version="1.0" encoding="utf-8"?>
<!-- Generator: Adobe Illustrator 23.0.3, SVG Export Plug-In . SVG Version: 6.00 Build 0)  -->
<svg version="1.1" id="Layer_1" xmlns="http://www.w3.org/2000/svg" xmlns:xlink="http://www.w3.org/1999/xlink" x="0px" y="0px"
	 viewBox="0 0 627 195.2" style="enable-background:new 0 0 627 195.2;" xml:space="preserve">
<style type="text/css">
	.st0{fill:url(#SVGID_1_);}
</style>
<g>
	
		<linearGradient id="SVGID_1_" gradientUnits="userSpaceOnUse" x1="313.3116" y1="144.3391" x2="313.3116" y2="-3.2739" gradientTransform="matrix(1 0 0 -1 0 192.4602)">
		<stop  offset="0" style="stop-color:#FF68D5"/>
		<stop  offset="0.5099" style="stop-color:#F3A7FF"/>
		<stop  offset="1" style="stop-color:#FF33AD"/>
	</linearGradient>
	<path class="st0" d="M6.7,80.2c-1.1,0-1.7-0.6-1.7-1.7c0-0.4,0.2-1.3,0.7-2.6c1.3-4.1,3.5-9,6.7-14.9c3.2-5.9,7.3-12.7,12.3-20.4
		c-1.6,0-2.4-0.5-2.4-1.6c0-1,0.6-1.5,1.8-1.6h2.7c1.9-2.7,3.5-5.1,4.9-7.1s2.6-3.6,3.6-5c1.3-1.8,2.6-3.5,4-5.2
		c1.4-1.8,2.7-3.4,4-4.9c-0.3,0-0.5,0-0.8,0.1c-0.3,0-0.5,0-0.7,0c-2.5,0-3.8-0.6-3.8-1.9c0-1.2,1-1.8,3-1.8h32.8
		c1,0,1.6,0.5,1.7,1.6c0,1.2-0.5,1.8-1.6,1.8H47.6c-1.6,2-3.3,4.1-5,6.3c-1.6,2.1-3.4,4.4-5.4,7.1c-1.9,2.5-4.1,5.6-6.6,9h24.1
		c1,0,1.6,0.5,1.6,1.6c0,1-0.5,1.6-1.6,1.7H28.5c-6,9.1-10.7,16.8-14,23C11.3,69.9,9.2,75,8.2,79C8.1,79.8,7.5,80.2,6.7,80.2z
		 M56.4,79.2c-1,0-1.6-0.4-1.6-1.3c0-0.4,0.1-0.8,0.3-1.2c0.3-0.4,0.5-0.7,0.6-1l8.9-18c3.8-7.7,5.7-12,5.7-12.8
		c0-0.9,0.5-1.4,1.4-1.4c1.2,0,1.9,0.6,1.9,1.9c0,0.7-0.3,1.7-0.9,3.1s-1.3,3.1-2.3,5c-1.6,3.4-2.9,6-3.9,7.8c2-2.3,4-4.4,6-6.5
		c2-2,4.1-4,6.2-5.8c6.2-5.4,11-8.1,14.3-8.1c2.3,0,3.4,1.1,3.4,3.2c0,2.1-0.7,3.1-2.1,3.1c-0.7,0-1.1-0.6-1.5-1.7
		c-0.2-0.8-0.7-1.2-1.4-1.2c-1.1,0-3.3,1.2-6.5,3.6c-3.5,2.6-7.1,5.7-10.7,9.3c-3.5,3.6-7.3,8.2-11.3,13.7L58.2,78
		c-0.3,0.3-0.5,0.6-0.8,0.8C57.2,79.1,56.9,79.2,56.4,79.2z M101.1,78.5c-2.7,0-4.9-0.9-6.5-2.8c-1.6-1.9-2.4-4.2-2.4-7
		c0-4.7,1.6-9.5,4.7-14.5c0.8-1.4,1.8-2.7,2.9-4c1.1-1.4,2.3-2.7,3.6-3.9c2-1.9,4-3.5,6.2-4.7c2.2-1.2,4.2-1.9,6.3-1.9
		c3.3,0,5,1.6,5,4.7c0,3.9-2.3,7.5-6.9,10.7c-4.2,2.9-8.4,4.3-12.5,4.3c-0.7,0-1.4,0-2-0.1c-0.5-0.1-1-0.3-1.5-0.4
		c-0.7,1.2-1.2,2.8-1.8,4.8c-0.5,2-0.8,3.7-0.8,5.1c0,4.3,1.9,6.5,5.7,6.5c3.1,0,6-0.5,8.7-1.6c2.7-1.1,6-3.2,9.8-6.2
		c2.4-1.8,4.1-3.3,5.3-4.4c1.2-1.1,2.5-2.3,3.8-3.5c0.4-0.3,0.8-0.4,1.1-0.4s0.7,0.1,1,0.3s0.5,0.5,0.5,0.9c0,0.7-0.7,1.7-2,3
		c-1.1,1-2.3,2.2-3.5,3.3c-1.2,1.1-3.2,2.7-5.9,4.7c-2.9,2.2-6,4-9.4,5.2C107.3,77.9,104.1,78.5,101.1,78.5z M101,56.3
		c2.1,0,4.1-0.3,6-1s3.7-1.6,5.4-2.8c3.8-2.8,5.7-5.5,5.7-7.9c0-1.1-0.7-1.7-2.1-1.7c-2.6,0-5.7,1.6-9.1,4.8c-1.7,1.6-3.1,3-4.2,4.3
		c-1,1.2-2,2.6-2.9,4.1C100.2,56.2,100.6,56.3,101,56.3z M138.5,108.5c-3.7,0-5.5-1.9-5.5-5.6c0-1.5,0.3-3.2,1-5.2
		c0.7-1.9,1.5-3.8,2.4-5.7c0.9-1.9,1.7-3.6,2.4-5c1.8-4.1,3.3-7.3,4.3-9.6c1-2.2,2-4.1,2.8-5.7c-4.1,4-8.1,6-12.2,6
		c-2.3,0-4.1-0.7-5.4-2.2c-1.3-1.5-2-3.7-2-6.7c0-2.9,0.5-5.8,1.6-8.9s3-6.4,5.8-9.9c1.5-1.9,3.4-3.7,5.7-5.4
		c2.3-1.8,4.7-3.2,7.3-4.3c2.5-1.2,4.9-1.8,7.1-1.8c5.4,0,8,2.9,8,8.8c0,1-0.5,1.6-1.6,1.6c-1,0-1.5-0.6-1.6-1.9
		c-0.1-0.6-0.1-1.2-0.2-1.8c0-0.7-0.1-1.3-0.4-1.9c-0.5-1.2-1.6-1.9-3.4-1.9c-3.1,0-6.2,0.9-9.3,2.8c-3,1.8-5.8,4.1-8.4,6.9
		c-2.3,2.4-4.1,5.1-5.3,8.1c-1.2,3-1.9,5.9-1.9,8.8c0,4.2,1.5,6.3,4.5,6.3c2.2,0,4.4-0.9,6.8-2.7c2.4-1.9,4.7-4.2,7.1-7.1
		c2.4-2.9,4.5-5.8,6.6-8.7l2.9-4.2c0.6-0.8,1.1-1.3,1.7-1.3c0.5,0,0.9,0.2,1.2,0.5c0.3,0.3,0.5,0.6,0.5,0.9c0,0.3-0.1,0.6-0.3,0.9
		c-0.2,0.3-0.5,0.8-0.8,1.6l-10.3,18.2c1.5,0.6,2.9,0.9,4.2,0.9c1.9,0,3.8-0.5,5.7-1.6c2-1,4.1-2.5,6.6-4.4c2.4-1.8,4.1-3.3,5.3-4.4
		c1.2-1.1,2.4-2.3,3.8-3.5c0.4-0.3,0.8-0.4,1.1-0.4s0.7,0.1,1,0.3c0.3,0.2,0.5,0.5,0.5,0.9c0,0.7-0.7,1.7-2,3
		c-1.1,1-2.3,2.2-3.5,3.3c-1.2,1.1-3.2,2.7-5.9,4.7c-1.9,1.4-4,2.6-6.2,3.6c-2.2,1-4.4,1.5-6.7,1.5c-0.8,0-1.7-0.1-2.6-0.3
		c1.4,2.6,2.1,5.9,2.1,9.8c0,2.6-0.4,5.2-1.1,7.8c-0.7,2.7-1.7,5.1-3,7.3c-1.2,2.2-2.7,4-4.5,5.3
		C142.4,107.8,140.6,108.5,138.5,108.5z M138.3,105.4c1.3,0,2.6-0.6,3.8-1.8c1.3-1.1,2.5-2.5,3.6-4.3c1.1-1.7,2-3.5,2.6-5.4
		c0.7-1.8,1-3.4,1-4.8c0-2.4-0.2-4.5-0.5-6.6c-0.3-2-0.8-4.1-1.6-6.2c-3.9,7.3-6.8,13.1-8.6,17.3c-1.8,4.3-2.6,7.4-2.6,9.1
		C136.1,104.6,136.8,105.4,138.3,105.4z M199,80.1c-3.2,0-4.8-2.3-4.8-7c0-2.5,0.6-5.5,1.8-9c-7.9,9.2-14.1,13.8-18.6,13.8
		c-3.7,0-5.6-2.3-5.6-6.8c0-1.7,0.3-3.7,0.8-6.1c0.6-2.4,1.3-4.9,2.3-7.4c1-2.5,2-4.9,3.1-7.2c1.1-2.2,2.2-4,3.3-5.4
		c0.4-0.5,0.9-0.7,1.5-0.7c0.3,0,0.7,0.1,1,0.4c0.3,0.2,0.5,0.5,0.5,1c0,0.4-0.2,0.9-0.7,1.7c-2.9,4.8-5,9-6.3,12.6
		c-1.6,4.1-2.4,7.7-2.4,10.7c0,2.8,0.7,4.2,2.2,4.2c0.9,0,2.1-0.5,3.6-1.4c1.5-0.9,3-2,4.6-3.3c1.6-1.4,3-2.6,4.2-3.8
		c3.3-3.5,6.2-7.2,8.8-11.1c1.2-1.8,2.2-3.6,3.1-5.3c1-1.8,1.9-3.6,2.6-5.5c0.3-0.7,0.6-1.2,0.8-1.6c0.3-0.4,0.6-0.6,1.1-0.6
		c1.4,0,2.1,0.5,2.1,1.6c0,0.7-0.2,1.1-0.7,1.4c-6.7,13.5-10,22.8-10,27.9c0,1.4,0.1,2.4,0.4,2.9c0.3,0.5,0.7,0.8,1.4,0.8
		c0.9,0,2.3-0.6,4.2-1.8c2-1.2,4.2-3,6.9-5.4l10.3-9.4c0.5-0.5,1-0.8,1.5-0.8c1,0,1.6,0.5,1.6,1.5c0,0.8-2.1,3.1-6.2,6.9
		c-1.8,1.6-3.3,3-4.7,4.1c-1.4,1.1-2.6,2.1-3.8,2.9c-2.2,1.6-4.2,2.8-5.9,3.6C201.2,79.6,199.9,80.1,199,80.1z M227.4,78.5
		c-2.7,0-4.9-0.9-6.5-2.8c-1.6-1.9-2.4-4.2-2.4-7c0-4.7,1.6-9.5,4.7-14.5c0.9-1.4,1.8-2.7,2.9-4c1.1-1.4,2.3-2.7,3.6-3.9
		c2-1.9,4-3.5,6.2-4.7c2.2-1.2,4.2-1.9,6.3-1.9c3.3,0,5,1.6,5,4.7c0,3.9-2.3,7.5-6.9,10.7c-4.2,2.9-8.4,4.3-12.5,4.3
		c-0.7,0-1.4,0-2-0.1c-0.5-0.1-1-0.3-1.5-0.4c-0.7,1.2-1.2,2.8-1.8,4.8c-0.5,2-0.8,3.7-0.8,5.1c0,4.3,1.9,6.5,5.7,6.5
		c3.1,0,6-0.5,8.7-1.6c2.7-1.1,6-3.2,9.8-6.2c2.4-1.8,4.1-3.3,5.3-4.4c1.2-1.1,2.5-2.3,3.8-3.5c0.4-0.3,0.8-0.4,1.1-0.4
		c0.3,0,0.7,0.1,1,0.3c0.3,0.2,0.5,0.5,0.5,0.9c0,0.7-0.7,1.7-2,3c-1.1,1-2.3,2.2-3.5,3.3c-1.2,1.1-3.2,2.7-5.9,4.7
		c-2.9,2.2-6,4-9.4,5.2C233.6,77.9,230.4,78.5,227.4,78.5z M227.3,56.3c2.1,0,4.1-0.3,6-1c1.9-0.7,3.7-1.6,5.4-2.8
		c3.8-2.8,5.7-5.5,5.7-7.9c0-1.1-0.7-1.7-2.1-1.7c-2.6,0-5.7,1.6-9.1,4.8c-1.7,1.6-3.1,3-4.2,4.3c-1,1.2-2,2.6-2.9,4.1
		C226.4,56.2,226.8,56.3,227.3,56.3z M248.6,79.2c-1,0-1.6-0.4-1.6-1.3c0-0.3,0.1-0.7,0.4-1.2c0.3-0.5,0.5-0.9,0.7-1.3l8.8-17.7
		c3.8-7.7,5.7-12,5.7-12.8c0-0.9,0.5-1.4,1.4-1.4c1.2,0,1.9,0.7,1.9,2c0,0.5-0.3,1.4-0.9,2.9c-0.6,1.5-1.3,3.2-2.3,5.1
		c-1.6,3.4-2.9,6-3.9,7.8c2-2.3,4-4.4,6-6.5c2-2,4.1-4,6.2-5.8c6.2-5.4,11-8.1,14.3-8.1c2.3,0,3.4,1.1,3.4,3.2c0,2-1.7,6.4-5,13.2
		c-3.3,6.9-5,11.3-5,13.1c0,0.8,0.3,1.3,0.9,1.3c0.2,0,0.5-0.1,0.9-0.2c0.5-0.2,0.9-0.3,1.4-0.3c1.1,0,1.7,0.5,1.7,1.6
		c0,1.3-1.4,2-4.2,2c-1.3,0-2.3-0.3-2.8-0.9c-0.6-0.7-0.9-1.5-0.9-2.5c0-3.1,1.6-7.9,4.8-14.3c3.2-6.3,4.8-10.2,4.8-11.5
		c0-0.8-0.3-1.2-0.9-1.2c-1.4,0-3.8,1.2-7,3.6c-3.5,2.6-6.9,5.6-10.4,9c-3.5,3.4-6.8,7.3-9.9,11.7l-6.9,9.5
		C249.8,78.9,249.3,79.2,248.6,79.2z M291.1,83.5c-1.2,0-1.9-1-1.9-2.9c0-2.9,1.6-7.9,4.8-15.1c3.3-7.2,8.1-16.6,14.5-28.2
		c-2.5,0-4.8,0.3-7.1,1c-2.2,0.6-3.3,1.3-3.4,2.3c-0.1,0.3-0.2,0.5-0.5,0.8c-0.2,0.2-0.5,0.3-1,0.3c-1,0-1.6-0.5-1.6-1.6
		c0-1.7,1.3-3.1,4-4.2c2.7-1.1,6.4-1.7,11.3-1.7l6.8-11.2c0.5-0.7,0.9-1.5,1.5-2.4c0.5-0.9,1.1-1.9,1.8-2.9c0.7-0.9,1.4-1.4,2.3-1.4
		c0.5,0,0.9,0.2,1.2,0.5c0.3,0.3,0.4,0.6,0.4,0.9c0,1-1.4,3.6-4.3,7.8c-3.6,5.3-5.5,8.2-5.8,8.6c1,0,2.5,0.1,4.4,0.3
		c2,0.1,4.3,0.4,7,0.7c1,0.1,1.5,0.6,1.5,1.5c0,1-0.6,1.6-1.8,1.6c-0.5,0-1.4-0.1-2.7-0.2c-1.4-0.2-2.8-0.4-4.4-0.5
		c-1.6-0.1-2.9-0.2-4-0.1l-1.5,0.1c-13.3,23.3-19.9,37.8-19.8,43.5l0.1,0.8v0.2C292.7,83,292.2,83.5,291.1,83.5z M324.1,79.4
		c-3,0-5.3-0.9-7-2.7c-1.6-1.9-2.4-4.4-2.4-7.4c0-2.2,0.4-4.9,1.2-8c1.4-5.3,3.7-11.4,7-18.4c2.5-5.3,5.3-10.5,8.2-15.6
		c2.9-5.2,6.2-10.2,9.7-15.2c5.6-8,9.5-12,11.8-12c1.4,0,2.2,0.4,2.2,1.2c0,1.1-1.8,3.9-5.5,8.3l-6.9,8.3
		c-5.9,7.2-10.8,14.5-14.6,22c-3.7,7.5-6.6,15-8.7,22.5c-0.6,2.2-0.9,4.2-0.9,6.1c0,5,2,7.4,6.1,7.4c1.4,0,2.9-0.4,4.4-1.3
		c1.5-0.8,2.3-1.2,2.4-1.2c0.8,0,1.2,0.6,1.2,1.7c0,1-0.4,1.7-1.1,2.3C329,78.7,326.6,79.4,324.1,79.4z M336.8,109.2
		c-4,0-6-2.4-6-7.1c0-4,0.9-7.8,2.5-11.6c0.3-0.7,0.7-1,1.3-1c1.2,0,1.8,0.5,1.8,1.6c0,0.3-0.1,0.6-0.3,1c-0.1,0.5-0.3,0.9-0.5,1.5
		c-0.5,1.2-0.8,2.5-1.1,3.9c-0.3,1.4-0.4,2.8-0.4,4.3c0,1.7,0.2,2.8,0.7,3.4c0.5,0.6,1,0.9,1.8,0.9c1.7,0,3.7-0.8,6-2.4
		c2.4-1.6,4.8-4.1,7.3-7.4c1.8-2.4,3.6-5.3,5.5-8.6c1.9-3.3,3.9-7.2,6.1-11.5c2.9-5.7,5.5-11.5,7.9-17.3c-1.6,2.1-3.3,4.1-5.1,6.1
		c-1.8,2-3.7,3.8-5.7,5.5c-5.4,4.6-9.9,7-13.5,7c-4.3,0-6.5-2.5-6.5-7.4c0-1.8,0.3-3.9,1-6.4c0.7-2.5,1.7-5.3,2.9-8.5
		c0.2-0.5,0.3-0.9,0.3-1.3c0-0.4,0.1-0.8,0.3-1.2c1-2.3,2.8-4.8,5.2-7.6c0.5-0.6,1-0.9,1.4-0.9c1,0,1.5,0.7,1.5,2.2
		c-6.3,9.3-9.5,17.2-9.5,23.7c0,2.7,1.1,4.1,3.2,4.1c2.4,0,5.8-1.7,10.1-5c3.1-2.4,5.9-5,8.5-7.9c2.6-3,5-6.1,7.1-9.3
		c1.4-2.2,2.6-4.1,3.4-5.7c0.9-1.7,1.5-2.8,1.7-3.4c0.3-1,0.8-1.5,1.4-1.5c1.2,0,1.9,0.5,1.9,1.6c0,0.5-0.3,1.5-0.8,2.8
		c-0.5,1.3-1,2.9-1.8,4.7c-1,2.7-2.5,6.3-4.5,10.8c-2,4.5-4.4,9.9-7.3,16.1c-3.7,7.7-7.3,14-10.8,18.9c-2.6,3.7-5.5,6.8-8.6,9.3
		C342,107.9,339.2,109.2,336.8,109.2z M397.6,82.5c-1.1,0-1.7-0.5-1.7-1.6c0-0.4,0-0.7,0.1-0.8c2.4-5.3,9-13.2,19.7-23.7
		c-0.3,0.1-0.6,0.1-0.9,0.2c-0.3,0-0.5,0-0.6,0c-1.1,0-1.7-0.6-1.7-1.9c0-0.7,0.6-1.2,1.7-1.4c0.7-0.1,1.3-0.2,2.1-0.3
		c0.8-0.1,1.8-0.3,2.9-0.6c7.9-8.2,15.5-15.3,22.8-21.2c7.4-5.9,14.4-10.8,21.2-14.6c0.6-0.3,1.1-0.6,1.6-0.8
		c0.5-0.3,0.8-0.4,1.2-0.4c0.8,0,1.2,0.5,1.2,1.6c0,2-2,8.7-5.9,20.2L456.9,50c1.7,0,2.5,0.5,2.5,1.6c0,1.2-1.1,1.8-3.3,1.8
		c-1.2,3.4-2.4,7.2-3.5,11.3c-1,4.1-1.9,8.2-2.6,12.5c-0.3,1.4-0.8,2.1-1.8,2.1c-1.1,0-1.7-0.6-1.7-1.8c0-0.2,0.1-0.6,0.2-1.3
		c0.1-0.7,0.3-1.5,0.6-2.5c0.8-3.8,1.5-6.9,2.1-9.4c0.7-2.5,1.2-4.6,1.7-6.3c0.5-1.8,1-3.4,1.4-4.8c-12,0.3-22.6,1.1-31.8,2.6
		c-2.6,2.7-4.8,5-6.6,6.9c-1.8,1.8-3.1,3.2-3.9,4.1c-3.9,4.3-7.1,8.2-9.4,11.8c-0.2,0.3-0.4,0.8-0.7,1.3c-0.3,0.5-0.7,1.1-1.2,1.9
		C398.7,82.2,398.2,82.5,397.6,82.5z M424.7,51.7c3.8-0.5,8.1-0.9,12.8-1.2c4.8-0.3,10.1-0.6,16.1-0.7c1-3,2-5.9,2.9-8.7
		c1-2.9,1.9-5.6,2.8-8.2c1.1-2.9,2.6-7.2,4.4-12.9c-7.6,4.4-14.6,9.2-21.2,14.5C436.2,39.8,430.2,45.5,424.7,51.7z M470.5,80
		c-3.7,0-5.5-1.2-5.5-3.6c0-1.5,0.5-3,1.6-4.5c1.1-1.5,2.4-2.9,3.9-4.1c1.5-1.2,2.9-2.2,4.2-2.8c0.4-0.2,0.9-0.4,1.6-0.6
		c0.7-0.2,1.3-0.3,1.8-0.3c0.5,0,0.8,0.2,0.8,0.6c0,0.3-0.4,0.7-1.1,1.1c-3,1.4-5.4,3.2-7.1,5.2c-1.6,2-2.5,3.6-2.5,4.8
		c0,1.2,1,1.8,3,1.8c1.7,0,3.5-0.4,5.5-1.3c2-0.8,3.9-2,5.7-3.3c1.8-1.4,3.3-2.8,4.5-4.4c1.2-1.6,1.8-3.1,1.8-4.5c0-1-0.3-1.9-1-2.6
		c-0.6-0.8-1.6-1.4-2.9-1.8l-6.5-2c-1.6-0.5-2.8-1.2-3.5-2.1c-0.7-0.8-1.1-1.8-1.1-2.8c0-2,0.7-3.7,2.2-5.3c1.5-1.6,3.4-2.8,5.6-3.7
		c2.2-0.9,4.4-1.4,6.5-1.4s3.9,0.5,5.5,1.6c1.6,1,2.4,2.3,2.4,4c0,1-0.3,1.9-0.9,2.7c-0.5,0.8-1.1,1.3-1.9,1.3
		c-1.1,0-1.7-0.5-1.7-1.4c0-0.3,0.2-0.7,0.5-1.2c0.4-0.5,0.6-1,0.6-1.5c0-2-1.5-2.9-4.5-2.9c-1.6,0-3.3,0.4-4.9,1.1
		c-1.6,0.7-2.9,1.5-3.9,2.6c-1,1.1-1.6,2.3-1.6,3.6c0,1.3,1.3,2.4,3.9,3.1l6.3,2c1.9,0.6,3.2,1.4,3.9,2.4c0.7,1,1.1,2.1,1.1,3.3
		c0,2.9-1.8,6-5.4,9.1C481.5,77.4,475.9,80,470.5,80z M525.6,81.3c-0.7,0-1.1-0.4-1.5-1.2l-1.4-3.3c-1.4-3.5-3.5-6.9-6.2-10.3
		c-2.7-3.5-5.3-6.6-7.9-9.5c-1.4,2.9-2.7,5.6-3.8,7.9c-1.1,2.4-2.1,4.6-3,6.7c-0.9,2-1.9,4.1-2.9,6.4c-0.3,0.7-0.7,1-1.4,1
		c-1.1,0-1.7-0.5-1.7-1.4c0-0.4,0.1-0.9,0.4-1.5c0.3-0.7,0.6-1.3,0.9-2c1.7-4.1,3.9-9,6.6-14.7c2.7-5.7,5.8-11.9,9.3-18.6
		c6.6-12.9,11.9-22.1,15.9-27.6c0.9-1.3,1.8-2.5,2.6-3.5c0.9-1,1.7-1.6,2.4-1.6c1.2,0,1.8,0.6,1.8,1.9c0,1.7-2.5,6.2-7.4,13.5
		c-0.4,0.6-1.1,1.6-2.1,2.9c-1,1.4-2,2.9-3.1,4.5c-1.1,1.6-2.2,3-3.1,4.4c-0.9,1.3-1.5,2.2-1.9,2.7l-7.1,14
		c15.8-9.2,24.3-13.8,25.5-13.8c1,0,1.6,0.6,1.6,1.8c0,0.7-0.4,1.2-1.2,1.6c-2.9,1.4-5.2,2.5-6.9,3.3c-1.6,0.8-3.3,1.7-5,2.6
		c-1.4,0.9-3.3,2-5.6,3.3c-2.2,1.3-4.9,2.8-7.9,4.5c1.6,1.7,3.3,3.7,5.1,6c1.8,2.2,3.5,4.5,5.1,7c1.6,2.4,3,4.5,4,6.6
		c1,2,1.6,3.7,1.6,4.9C527.2,80.9,526.6,81.3,525.6,81.3z M544.8,78.5c-2.7,0-4.9-0.9-6.5-2.8c-1.6-1.9-2.4-4.2-2.4-7
		c0-4.7,1.6-9.5,4.7-14.5c0.8-1.4,1.8-2.7,2.9-4c1.1-1.4,2.3-2.7,3.6-3.9c2-1.9,4-3.5,6.2-4.7c2.2-1.2,4.2-1.9,6.3-1.9
		c3.3,0,5,1.6,5,4.7c0,3.9-2.3,7.5-6.9,10.7c-4.2,2.9-8.4,4.3-12.5,4.3c-0.7,0-1.4,0-2-0.1c-0.5-0.1-1-0.3-1.5-0.4
		c-0.7,1.2-1.2,2.8-1.8,4.8c-0.5,2-0.8,3.7-0.8,5.1c0,4.3,1.9,6.5,5.7,6.5c3.1,0,6-0.5,8.7-1.6c2.7-1.1,6-3.2,9.8-6.2
		c2.4-1.8,4.1-3.3,5.3-4.4c1.2-1.1,2.5-2.3,3.8-3.5c0.4-0.3,0.8-0.4,1.1-0.4c0.3,0,0.7,0.1,1,0.3c0.3,0.2,0.5,0.5,0.5,0.9
		c0,0.7-0.7,1.7-2,3c-1.1,1-2.3,2.2-3.5,3.3c-1.2,1.1-3.2,2.7-5.9,4.7c-2.9,2.2-6,4-9.4,5.2C551,77.9,547.8,78.5,544.8,78.5z
		 M544.7,56.3c2.1,0,4.1-0.3,6-1c1.9-0.7,3.7-1.6,5.4-2.8c3.8-2.8,5.7-5.5,5.7-7.9c0-1.1-0.7-1.7-2.1-1.7c-2.6,0-5.7,1.6-9.1,4.8
		c-1.7,1.6-3.1,3-4.2,4.3c-1,1.2-2,2.6-2.9,4.1C543.8,56.2,544.3,56.3,544.7,56.3z M601.1,85.5c-0.5,0-1.2-0.3-2-0.8
		c-0.7-0.5-1.3-0.9-1.7-1.4c-0.8-1-1.3-2.2-1.6-3.5c-0.3-1.4-0.4-2.9-0.4-4.5c0-1.4,0-2.8,0.1-4.4c0.1-1.6,0.3-3.4,0.6-5.2
		c-1.7,2-3.6,3.9-5.8,5.8c-2.1,1.8-4.2,3.3-6.5,4.5c-2.2,1.2-4.2,1.8-6.2,1.8c-4.9,0-7.3-2.6-7.3-7.8c0-5.4,1.9-10.6,5.7-15.7
		c1.9-2.5,4.1-4.9,6.5-7.2c2.4-2.3,5-4.1,7.6-5.6c2.7-1.4,5.3-2.2,7.9-2.2c2,0,3.7,0.8,5.2,2.3c0.1-0.3,0.3-0.7,0.5-1.3
		c0.3-0.6,0.6-1.3,1.1-2.3c1.6-3.4,3.3-6.9,5.2-10.6c1.9-3.7,3.6-6.8,5.1-9.2c1.7-2.7,3.3-4,4.8-4c1,0,1.6,0.8,1.6,2.5
		c0,2.8-2.6,9.4-7.9,19.7c-0.3,0.6-0.9,1.7-1.8,3.2c-0.8,1.5-1.7,3.3-2.8,5.3c-1,2-2.1,3.9-3.2,5.9c-1.1,2-2.1,3.7-3,5.3
		c-0.8,1.5-1.5,2.5-1.9,3.1c-0.7,2.9-1.3,5.7-1.7,8.4c-0.4,2.6-0.6,5.3-0.6,8.1c0,1,0,2,0.1,2.8c0.1,0.9,0.4,1.6,0.8,2.2
		c0.3,0.4,0.7,0.7,1.1,0.9c0.4,0.3,0.8,0.5,1.4,0.7c0.8,0.2,1.2,0.7,1.2,1.4C603.2,84.9,602.5,85.5,601.1,85.5z M605.7,44.5
		c2.5-4.2,4.7-8.2,6.6-11.9c1.9-3.7,3.4-7.2,4.6-10.5c-2.6,3.4-4.8,7-6.6,10.8S607,40.6,605.7,44.5z M577.1,74.8
		c1.9,0,3.9-0.6,6-1.9c2.2-1.3,4.2-2.8,6.1-4.6c1.7-1.6,3.3-3.2,4.7-4.8c1.4-1.7,2.8-3.4,4-5.2c0.5-2.3,1.1-4.5,1.8-6.8
		c0.7-2.2,1.5-4.4,2.4-6.7c-1-1.6-2.5-2.5-4.4-2.5c-2,0-4.1,0.8-6.6,2.3c-2.4,1.4-4.6,3.2-6.9,5.4c-2.2,2.2-4,4.2-5.6,6.2
		c-3.3,4.4-4.9,9-4.9,13.9C573.7,73.2,574.8,74.8,577.1,74.8z M190.4,190.8c-5.4,0-10.3-4.1-14.9-12.4c-3.4,0.8-6.5,1.2-9.2,1.2
		c-13.3,0-19.9-7.1-19.9-21.3c0-5.3,1-10.3,3-15c2-4.8,4.9-9.4,8.6-13.9c4.4-5.4,9.6-9.6,15.5-12.6c5.9-3.1,12.2-4.6,19-4.6
		c7.1,0,12.3,1.7,15.9,5.2c3.5,3.5,5.3,8.8,5.3,16.1c0,5.2-1,10-2.9,14.2c-1.9,4.2-4.7,8.6-8.4,13.1c-6.9,8.5-14.8,14.2-23.6,17.1
		l2.3,3.6c1.3,2,2.8,3.6,4.4,4.6c1.7,1.1,3.3,1.7,4.8,1.7c1,0,2-0.2,2.9-0.7c1-0.4,1.7-0.6,2.2-0.6c1,0,1.5,0.6,1.5,1.8
		c0,0.8-0.7,1.4-2.2,1.9C193.2,190.5,191.8,190.8,190.4,190.8z M166.3,176.1c1.7,0,3.1-0.1,4.3-0.2c1.2-0.1,2.4-0.2,3.4-0.4
		c-2-3.9-4.1-5.9-6.5-5.9c-1.1,0-1.9,0.2-2.4,0.7c-0.5,0.5-1,0.7-1.8,0.7c-1,0-1.6-0.5-1.6-1.5c0-0.8,0.6-1.5,1.9-2.1
		c1.3-0.6,2.6-0.9,3.9-0.9c2.2,0,4.2,0.8,6.1,2.5c0.5,0.5,1.1,1.2,1.7,2.2c0.7,0.9,1.3,2,2.1,3.3c8.5-2.5,16.1-8,22.7-16.4
		c3.5-4.4,6.1-8.4,7.8-12.2c1.8-3.7,2.6-7.9,2.6-12.5c0-6.7-1.4-11.4-4.3-14.1c-2.9-2.7-7.2-4.1-12.9-4.1c-6.5,0-12.6,1.4-18.1,4.3
		s-10.5,6.9-14.7,12.2c-3.5,4.3-6.2,8.6-7.9,12.8c-1.8,4.2-2.6,8.7-2.6,13.5c0,6.1,1.2,10.6,3.7,13.5S160.3,176.1,166.3,176.1z
		 M244.9,178.1c-3.2,0-4.8-2.3-4.8-7c0-2.5,0.6-5.5,1.8-9c-7.9,9.2-14.1,13.8-18.6,13.8c-3.7,0-5.6-2.3-5.6-6.8
		c0-1.7,0.3-3.7,0.8-6.1c0.6-2.4,1.3-4.9,2.3-7.4c1-2.5,2-4.9,3.1-7.2c1.1-2.2,2.2-4,3.3-5.4c0.4-0.5,0.9-0.7,1.5-0.7
		c0.3,0,0.7,0.1,1,0.4c0.3,0.2,0.5,0.5,0.5,1c0,0.4-0.2,0.9-0.7,1.7c-2.9,4.8-5,9-6.3,12.6c-1.6,4.1-2.4,7.7-2.4,10.7
		c0,2.8,0.7,4.2,2.2,4.2c0.9,0,2.1-0.5,3.6-1.4c1.5-0.9,3-2,4.6-3.3c1.6-1.4,3-2.6,4.2-3.8c3.3-3.5,6.2-7.2,8.8-11.1
		c1.2-1.8,2.2-3.6,3.1-5.3c1-1.8,1.9-3.6,2.6-5.5c0.3-0.7,0.6-1.2,0.8-1.6c0.3-0.4,0.6-0.6,1.1-0.6c1.4,0,2.1,0.5,2.1,1.6
		c0,0.7-0.2,1.1-0.7,1.4c-6.7,13.5-10,22.8-10,27.9c0,1.4,0.1,2.4,0.4,2.9c0.3,0.5,0.7,0.8,1.4,0.8c0.9,0,2.3-0.6,4.2-1.8
		c2-1.2,4.2-3,6.9-5.4l10.3-9.4c0.5-0.5,1-0.8,1.5-0.8c1,0,1.6,0.5,1.6,1.5c0,0.8-2.1,3.1-6.2,6.9c-1.8,1.6-3.3,3-4.7,4.1
		c-1.4,1.1-2.6,2.1-3.8,2.9c-2.2,1.6-4.2,2.8-5.9,3.6C247.1,177.6,245.8,178.1,244.9,178.1z M273.3,176.5c-2.7,0-4.9-0.9-6.5-2.8
		c-1.6-1.9-2.4-4.2-2.4-7c0-4.7,1.6-9.5,4.7-14.5c0.8-1.4,1.8-2.7,2.9-4c1.1-1.4,2.3-2.7,3.6-3.9c2-1.9,4-3.5,6.2-4.7
		c2.2-1.2,4.2-1.9,6.3-1.9c3.3,0,5,1.6,5,4.7c0,3.9-2.3,7.5-6.9,10.7c-4.2,2.9-8.4,4.3-12.5,4.3c-0.7,0-1.4,0-2-0.1
		c-0.5-0.1-1-0.3-1.5-0.4c-0.7,1.2-1.2,2.8-1.8,4.8c-0.5,2-0.8,3.7-0.8,5.1c0,4.3,1.9,6.5,5.7,6.5c3.1,0,6-0.5,8.7-1.6
		c2.7-1.1,6-3.2,9.8-6.2c2.4-1.8,4.1-3.3,5.3-4.4c1.2-1.1,2.5-2.3,3.8-3.5c0.4-0.3,0.8-0.4,1.1-0.4c0.3,0,0.7,0.1,1,0.3
		s0.5,0.5,0.5,0.9c0,0.7-0.7,1.7-2,3c-1.1,1-2.3,2.2-3.5,3.3c-1.2,1.1-3.2,2.7-5.9,4.7c-2.9,2.2-6,4-9.4,5.2
		S276.3,176.5,273.3,176.5z M273.2,154.3c2.1,0,4.1-0.3,6-1c1.9-0.7,3.7-1.6,5.4-2.8c3.8-2.8,5.7-5.5,5.7-7.9c0-1.1-0.7-1.7-2.1-1.7
		c-2.6,0-5.7,1.6-9.1,4.8c-1.7,1.6-3.1,3-4.2,4.3c-1,1.2-2,2.6-2.9,4.1C272.3,154.2,272.7,154.3,273.2,154.3z M299.9,178
		c-3.7,0-5.5-1.2-5.5-3.6c0-1.5,0.5-3,1.6-4.5c1.1-1.5,2.4-2.9,3.9-4.1c1.5-1.2,2.9-2.2,4.2-2.8c0.4-0.2,0.9-0.4,1.6-0.6
		c0.7-0.2,1.3-0.3,1.8-0.3c0.5,0,0.8,0.2,0.8,0.6c0,0.3-0.4,0.7-1.1,1.1c-3,1.4-5.4,3.2-7.1,5.2c-1.6,2-2.5,3.6-2.5,4.8
		c0,1.2,1,1.8,3,1.8c1.7,0,3.5-0.4,5.5-1.3c2-0.8,3.9-2,5.7-3.3c1.8-1.4,3.3-2.8,4.5-4.4c1.2-1.6,1.8-3.1,1.8-4.5c0-1-0.3-1.9-1-2.6
		c-0.6-0.8-1.6-1.4-2.9-1.8l-6.5-2c-1.6-0.5-2.8-1.2-3.5-2.1s-1.1-1.8-1.1-2.8c0-2,0.7-3.7,2.2-5.3c1.5-1.6,3.4-2.8,5.6-3.7
		c2.2-0.9,4.4-1.4,6.5-1.4c2.1,0,3.9,0.5,5.5,1.6c1.6,1,2.4,2.3,2.4,4c0,1-0.3,1.9-0.9,2.7c-0.5,0.8-1.1,1.3-1.9,1.3
		c-1.1,0-1.7-0.5-1.7-1.4c0-0.3,0.2-0.7,0.5-1.2c0.4-0.5,0.6-1,0.6-1.5c0-2-1.5-2.9-4.5-2.9c-1.6,0-3.3,0.4-4.9,1.1
		c-1.6,0.7-2.9,1.5-3.9,2.6c-1,1.1-1.6,2.3-1.6,3.6c0,1.3,1.3,2.4,3.9,3.1l6.3,2c1.9,0.6,3.2,1.4,3.9,2.4c0.7,1,1.1,2.1,1.1,3.3
		c0,2.9-1.8,6-5.4,9.1C310.9,175.4,305.3,178,299.9,178z M328.4,181.5c-1.2,0-1.9-1-1.9-2.9c0-2.9,1.6-7.9,4.8-15.1
		c3.3-7.2,8.1-16.6,14.5-28.2c-2.5,0-4.8,0.3-7.1,1c-2.2,0.6-3.3,1.3-3.4,2.3c-0.1,0.3-0.2,0.5-0.5,0.8c-0.2,0.2-0.5,0.3-1,0.3
		c-1,0-1.6-0.5-1.6-1.6c0-1.7,1.3-3.1,4-4.2c2.7-1.1,6.4-1.7,11.3-1.7l6.8-11.2c0.5-0.7,0.9-1.5,1.5-2.4c0.5-0.9,1.1-1.9,1.8-2.9
		c0.7-0.9,1.4-1.4,2.3-1.4c0.5,0,0.9,0.2,1.2,0.5c0.3,0.3,0.4,0.6,0.4,0.9c0,1-1.4,3.6-4.3,7.8c-3.6,5.3-5.5,8.2-5.8,8.6
		c1,0,2.4,0.1,4.4,0.3c2,0.1,4.3,0.4,7,0.7c1,0.1,1.5,0.6,1.5,1.5c0,1-0.6,1.6-1.8,1.6c-0.5,0-1.4-0.1-2.7-0.2
		c-1.4-0.2-2.8-0.4-4.4-0.5c-1.6-0.1-2.9-0.2-4-0.1l-1.5,0.1c-13.3,23.3-19.9,37.8-19.8,43.5l0.1,0.8v0.2
		C330,181,329.5,181.5,328.4,181.5z M371.7,136.1c-1.1,0-1.7-0.6-1.7-1.7c0-0.3,0.2-0.9,0.7-1.8c0.5-0.9,1-1.8,1.6-2.7
		c0.6-0.9,1-1.5,1.4-1.9c1.1-1.2,2-2,2.5-2.4c0.7-0.3,1.2-0.5,1.8-0.5c1.4,0,2.1,0.6,2.1,1.9c0,0.5-0.3,1-0.9,1.7
		c-0.5,0.6-1.1,1.1-1.9,1.7c-1,0.7-1.7,1.2-2,1.6l-2.2,3c-0.1,0.3-0.2,0.5-0.5,0.8C372.5,136,372.2,136.1,371.7,136.1z M355.1,175.8
		c-1.8,0-3.2-0.4-4-1.1c-0.8-0.7-1.2-1.8-1.2-3.2c0-1.4,0.4-3.2,1.3-5.6c0.8-2.4,1.9-5,3.2-7.7c1.4-2.7,2.8-5.4,4.3-7.8
		c1.5-2.5,2.9-4.5,4.3-6.1c1.4-1.6,2.6-2.4,3.4-2.4c1.2,0,1.8,0.5,1.8,1.6c0,0.7-0.6,1.9-1.7,3.7c-1.1,1.8-2.3,3.7-3.6,5.7
		c-0.5,0.7-1.2,1.7-2.2,2.9c-0.9,1.2-1.8,2.4-2.6,3.5c-0.9,1-1.4,1.8-1.7,2.2c-0.7,1-1.3,2.6-2.1,4.8c-0.8,2.2-1.2,3.9-1.2,5.1
		c0,0.5,0.1,0.9,0.3,1.2c0.3,0.3,0.8,0.4,1.7,0.4c1.6,0,3.5-0.5,5.5-1.6c2-1,4.1-2.4,6.2-3.9c2.1-1.6,4-3.3,5.9-5
		c1.9-1.7,3.5-3.2,4.8-4.4c0.3-0.3,0.7-0.4,1.2-0.4c1,0,1.5,0.4,1.5,1.2c0,0.7-0.5,1.5-1.4,2.4c-1.8,1.8-3.4,3.3-4.9,4.7
		c-1.5,1.4-2.9,2.6-4.3,3.6c-2.2,1.6-4.5,3-7.2,4.3C359.8,175.2,357.3,175.8,355.1,175.8z M382.5,174.2c-5.3,0-7.9-3-7.9-8.9
		c0-2.7,0.7-5.6,2-8.6c1.3-3,3-5.8,5.2-8.3c2.2-2.6,4.5-4.7,7.2-6.4c2.7-1.6,5.4-2.4,8.1-2.4c2.4,0,4.2,0.9,5.3,2.7
		c1.1,1.8,1.7,3.9,1.7,6.1c0,2.9-0.6,5.9-1.8,9c-1.2,3-2.8,5.8-4.8,8.3c-2,2.5-4.3,4.6-6.9,6.2C388,173.5,385.3,174.2,382.5,174.2z
		 M382.4,171.1c0.4,0,0.6,0,0.7-0.1c2.5-0.3,4.9-1.2,7.1-2.7c2.2-1.5,4-3.4,5.6-5.6c1.6-2.3,2.9-4.7,3.7-7.3
		c0.8-2.6,1.3-5.2,1.3-7.7c0-1.5-0.4-2.7-1.3-3.5c-0.8-0.8-1.9-1.3-3.2-1.3c-1.9,0-3.9,0.8-6.1,2.4c-2.1,1.6-4.1,3.6-6,6
		c-1.8,2.4-3.3,5-4.5,7.6c-1.2,2.6-1.8,5-1.8,7.1C377.9,169.3,379.4,171.1,382.4,171.1z M403.8,177.2c-1,0-1.6-0.4-1.6-1.3
		c0-0.3,0.1-0.7,0.4-1.2c0.3-0.5,0.5-0.9,0.7-1.3l8.8-17.7c3.8-7.7,5.7-12,5.7-12.8c0-0.9,0.5-1.4,1.4-1.4c1.2,0,1.9,0.7,1.9,2
		c0,0.5-0.3,1.4-0.9,2.9c-0.6,1.5-1.3,3.2-2.3,5.1c-1.6,3.4-2.9,6-3.9,7.8c2-2.3,4-4.4,6-6.5c2-2,4.1-4,6.2-5.8
		c6.2-5.4,11-8.1,14.3-8.1c2.3,0,3.4,1.1,3.4,3.2c0,2-1.7,6.4-5,13.2c-3.3,6.9-5,11.3-5,13.1c0,0.8,0.3,1.3,0.9,1.3
		c0.2,0,0.5-0.1,0.9-0.2c0.5-0.2,0.9-0.3,1.4-0.3c1.1,0,1.7,0.5,1.7,1.6c0,1.3-1.4,2-4.2,2c-1.3,0-2.3-0.3-2.8-0.9
		c-0.6-0.7-0.9-1.5-0.9-2.5c0-3.1,1.6-7.9,4.8-14.3c3.2-6.3,4.8-10.2,4.8-11.5c0-0.8-0.3-1.2-0.9-1.2c-1.4,0-3.8,1.2-7,3.6
		c-3.5,2.6-6.9,5.6-10.4,9c-3.5,3.4-6.8,7.3-9.9,11.7l-6.9,9.5C405,176.9,404.4,177.2,403.8,177.2z M448.1,178
		c-3.7,0-5.5-1.2-5.5-3.6c0-1.5,0.5-3,1.6-4.5c1.1-1.5,2.4-2.9,3.9-4.1c1.5-1.2,2.9-2.2,4.2-2.8c0.4-0.2,0.9-0.4,1.6-0.6
		c0.7-0.2,1.3-0.3,1.8-0.3c0.5,0,0.8,0.2,0.8,0.6c0,0.3-0.4,0.7-1.1,1.1c-3,1.4-5.4,3.2-7.1,5.2c-1.6,2-2.5,3.6-2.5,4.8
		c0,1.2,1,1.8,3,1.8c1.7,0,3.5-0.4,5.5-1.3c2-0.8,3.9-2,5.7-3.3c1.8-1.4,3.3-2.8,4.5-4.4c1.2-1.6,1.8-3.1,1.8-4.5c0-1-0.3-1.9-1-2.6
		c-0.6-0.8-1.6-1.4-2.9-1.8l-6.5-2c-1.6-0.5-2.8-1.2-3.5-2.1c-0.7-0.8-1.1-1.8-1.1-2.8c0-2,0.7-3.7,2.2-5.3c1.5-1.6,3.4-2.8,5.6-3.7
		c2.2-0.9,4.4-1.4,6.5-1.4c2.1,0,3.9,0.5,5.5,1.6c1.6,1,2.4,2.3,2.4,4c0,1-0.3,1.9-0.9,2.7c-0.5,0.8-1.1,1.3-1.9,1.3
		c-1.1,0-1.7-0.5-1.7-1.4c0-0.3,0.2-0.7,0.5-1.2c0.4-0.5,0.6-1,0.6-1.5c0-2-1.5-2.9-4.5-2.9c-1.6,0-3.3,0.4-4.9,1.1
		c-1.6,0.7-2.9,1.5-3.9,2.6c-1,1.1-1.6,2.3-1.6,3.6c0,1.3,1.3,2.4,3.9,3.1l6.3,2c1.9,0.6,3.2,1.4,3.9,2.4c0.7,1,1.1,2.1,1.1,3.3
		c0,2.9-1.8,6-5.4,9.1C459.2,175.4,453.5,178,448.1,178z"/>
</g>
</svg>
