<svg width="32" height="33" viewBox="0 0 32 33" fill="none" xmlns="http://www.w3.org/2000/svg">
<path d="M29.5494 8.06467C28.5315 8.51493 27.452 8.81064 26.3467 8.94201C27.5117 8.24525 28.3837 7.14869 28.8001 5.85667C27.7067 6.50734 26.5081 6.96334 25.2587 7.21001C24.4195 6.31211 23.3072 5.71662 22.0947 5.51612C20.8821 5.31561 19.6373 5.52133 18.5538 6.10128C17.4702 6.68123 16.6086 7.60292 16.1029 8.72306C15.5972 9.84321 15.4757 11.099 15.7574 12.2953C13.5402 12.1842 11.3712 11.608 9.39112 10.6042C7.41106 9.60041 5.66424 8.1914 4.26407 6.46867C3.76846 7.31994 3.50801 8.28764 3.5094 9.27267C3.5094 11.206 4.4934 12.914 5.9894 13.914C5.10408 13.8861 4.23825 13.647 3.46407 13.2167V13.286C3.46434 14.5736 3.9099 15.8215 4.7252 16.8181C5.54051 17.8147 6.67538 18.4986 7.9374 18.754C7.11556 18.9767 6.25381 19.0096 5.4174 18.85C5.77323 19.9583 6.46675 20.9276 7.40086 21.6222C8.33497 22.3167 9.46291 22.7017 10.6267 22.7233C9.47004 23.6318 8.14564 24.3033 6.72924 24.6996C5.31285 25.0958 3.83224 25.209 2.37207 25.0327C4.921 26.6719 7.8882 27.5422 10.9187 27.5393C21.1761 27.5393 26.7854 19.042 26.7854 11.6727C26.7854 11.4327 26.7787 11.19 26.7681 10.9527C27.8599 10.1636 28.8022 9.18603 29.5507 8.06601L29.5494 8.06467Z" fill="white"/>
</svg>
