<svg width="32" height="33" viewBox="0 0 32 33" fill="none" xmlns="http://www.w3.org/2000/svg">
<path d="M15.9998 3.18945C19.6225 3.18945 20.0745 3.20279 21.4958 3.26945C22.9158 3.33612 23.8825 3.55879 24.7332 3.88945C25.6132 4.22812 26.3545 4.68679 27.0958 5.42679C27.7738 6.09331 28.2984 6.89957 28.6332 7.78945C28.9625 8.63879 29.1865 9.60679 29.2532 11.0268C29.3158 12.4481 29.3332 12.9001 29.3332 16.5228C29.3332 20.1455 29.3198 20.5975 29.2532 22.0188C29.1865 23.4388 28.9625 24.4055 28.6332 25.2561C28.2994 26.1465 27.7747 26.9529 27.0958 27.6188C26.4291 28.2965 25.6229 28.8211 24.7332 29.1561C23.8838 29.4855 22.9158 29.7095 21.4958 29.7761C20.0745 29.8388 19.6225 29.8561 15.9998 29.8561C12.3772 29.8561 11.9252 29.8428 10.5038 29.7761C9.08384 29.7095 8.11717 29.4855 7.2665 29.1561C6.37627 28.8221 5.56987 28.2974 4.90384 27.6188C4.22571 26.9524 3.70108 26.1461 3.3665 25.2561C3.03584 24.4068 2.81317 23.4388 2.7465 22.0188C2.68384 20.5975 2.6665 20.1455 2.6665 16.5228C2.6665 12.9001 2.67984 12.4481 2.7465 11.0268C2.81317 9.60545 3.03584 8.64012 3.3665 7.78945C3.70015 6.89903 4.22491 6.09255 4.90384 5.42679C5.57007 4.74843 6.37641 4.22376 7.2665 3.88945C8.11717 3.55879 9.0825 3.33612 10.5038 3.26945C11.9252 3.20679 12.3772 3.18945 15.9998 3.18945ZM15.9998 9.85612C14.2317 9.85612 12.536 10.5585 11.2858 11.8087C10.0355 13.059 9.33317 14.7547 9.33317 16.5228C9.33317 18.2909 10.0355 19.9866 11.2858 21.2368C12.536 22.4871 14.2317 23.1895 15.9998 23.1895C17.7679 23.1895 19.4636 22.4871 20.7139 21.2368C21.9641 19.9866 22.6665 18.2909 22.6665 16.5228C22.6665 14.7547 21.9641 13.059 20.7139 11.8087C19.4636 10.5585 17.7679 9.85612 15.9998 9.85612ZM24.6665 9.52279C24.6665 9.08076 24.4909 8.65684 24.1784 8.34428C23.8658 8.03171 23.4419 7.85612 22.9998 7.85612C22.5578 7.85612 22.1339 8.03171 21.8213 8.34428C21.5088 8.65684 21.3332 9.08076 21.3332 9.52279C21.3332 9.96481 21.5088 10.3887 21.8213 10.7013C22.1339 11.0139 22.5578 11.1895 22.9998 11.1895C23.4419 11.1895 23.8658 11.0139 24.1784 10.7013C24.4909 10.3887 24.6665 9.96481 24.6665 9.52279ZM15.9998 12.5228C17.0607 12.5228 18.0781 12.9442 18.8283 13.6944C19.5784 14.4445 19.9998 15.4619 19.9998 16.5228C19.9998 17.5837 19.5784 18.6011 18.8283 19.3512C18.0781 20.1014 17.0607 20.5228 15.9998 20.5228C14.939 20.5228 13.9216 20.1014 13.1714 19.3512C12.4213 18.6011 11.9998 17.5837 11.9998 16.5228C11.9998 15.4619 12.4213 14.4445 13.1714 13.6944C13.9216 12.9442 14.939 12.5228 15.9998 12.5228Z" fill="white"/>
</svg>
