<?xml version="1.0" encoding="utf-8"?>
<!-- Generator: Adobe Illustrator 23.0.3, SVG Export Plug-In . SVG Version: 6.00 Build 0)  -->
<svg version="1.1" id="Layer_1" xmlns="http://www.w3.org/2000/svg" xmlns:xlink="http://www.w3.org/1999/xlink" x="0px" y="0px"
	 viewBox="0 0 712 159.1" style="enable-background:new 0 0 712 159.1;" xml:space="preserve">
<style type="text/css">
	.st0{fill:url(#SVGID_1_);}
</style>
<g>
	
		<linearGradient id="SVGID_1_" gradientUnits="userSpaceOnUse" x1="356.2173" y1="109.1321" x2="356.2173" y2="-11.3679" gradientTransform="matrix(1 0 0 -1 0 148.2722)">
		<stop  offset="0" style="stop-color:#FFC1EE"/>
		<stop  offset="0.5099" style="stop-color:#FFFFFF"/>
		<stop  offset="1" style="stop-color:#FF9CD7"/>
	</linearGradient>
	<path class="st0" d="M13.2,65.1c-2.3,0-4.2-0.7-5.6-2.1c-1.4-1.4-2.1-3.2-2.1-5.5c0-1.7,0.3-3.3,1-5c0.7-1.7,1.6-3.3,2.6-4.8
		c1.1-1.5,2.3-2.8,3.4-3.8c0.9-0.9,1.7-1.3,2.4-1.3s1,0.3,1,1c0,0.6-0.5,1.4-1.4,2.2c-1.8,1.5-3.3,3.4-4.5,5.7
		c-1.2,2.2-1.8,4.3-1.8,6.2c0,3,1.6,4.6,4.9,4.6c1.9,0,3.8-0.6,5.8-1.9c2-1.3,3.9-3,5.8-5c1.9-2.1,3.8-4.5,5.5-7.1
		c1.8-2.6,3.5-5.2,5.1-7.8c7.1-11.5,11.8-21,14.2-28.5c-0.7,0.1-1.8,0.3-3.2,0.6c-1.4,0.4-3.1,0.9-5.3,1.6c-2,0.6-3.5,1.1-4.6,1.5
		c-1,0.3-1.7,0.5-2.1,0.5c-1,0-1.5-0.5-1.5-1.4c0-0.5,0.3-0.9,1-1.4c1.1-0.7,2.6-1.3,4.4-1.9c1.9-0.6,4-1.2,6.3-1.6
		C49,9,52.9,8.6,56.7,8.6c1.5,0,3.1,0.1,4.7,0.2C63,9,64.3,9.2,65.3,9.4c0.9,0.2,1.4,0.6,1.4,1.4c0,0.8-0.4,1.2-1.1,1.2
		c-0.2,0-1-0.1-2.5-0.3c-1.4-0.3-3.4-0.4-5.8-0.4c-1.7,0-3.3,0.1-5,0.2c0.2,0.2,0.3,0.5,0.3,0.8c0,0.2-0.1,0.5-0.3,1
		c-0.2,0.5-0.3,0.9-0.5,1.4c-1.4,3.9-3.1,7.9-5.3,12.2C44.4,31,42,35.4,39.2,40c-1.9,3.1-3.9,6.2-6,9.2s-4.2,5.7-6.5,8.1
		c-2.2,2.4-4.4,4.3-6.7,5.7C17.8,64.4,15.5,65.1,13.2,65.1z M51.1,62.2c-4.3,0-6.5-2.4-6.5-7.3c0-2.2,0.5-4.6,1.6-7
		c1.1-2.5,2.5-4.7,4.2-6.8c1.8-2.1,3.7-3.9,5.8-5.2c2.2-1.3,4.4-2,6.6-2c2,0,3.4,0.7,4.3,2.2c0.9,1.5,1.4,3.1,1.4,5
		c0,2.4-0.5,4.9-1.4,7.4c-1,2.5-2.3,4.7-3.9,6.8s-3.5,3.8-5.6,5S53.4,62.2,51.1,62.2z M51,59.7c0.3,0,0.5,0,0.6-0.1
		c2.1-0.3,4-1,5.8-2.2c1.8-1.2,3.3-2.7,4.6-4.6c1.3-1.9,2.3-3.9,3-6c0.7-2.1,1-4.2,1-6.3c0-1.2-0.3-2.2-1-2.9c-0.7-0.7-1.6-1-2.6-1
		c-1.5,0-3.2,0.6-5,1.9c-1.7,1.3-3.3,2.9-4.9,4.9c-1.5,2-2.7,4.1-3.7,6.2c-1,2.1-1.4,4.1-1.4,5.8C47.3,58.2,48.5,59.7,51,59.7z
		 M88.4,31.1c-0.9,0-1.4-0.5-1.4-1.4c0-0.3,0.2-0.7,0.6-1.4c0.4-0.7,0.8-1.5,1.3-2.2c0.5-0.7,0.9-1.3,1.1-1.5c0.9-1,1.6-1.7,2.1-1.9
		c0.5-0.3,1-0.4,1.4-0.4c1.1,0,1.7,0.5,1.7,1.5c0,0.4-0.2,0.8-0.7,1.4c-0.4,0.5-0.9,0.9-1.5,1.4c-0.9,0.5-1.4,1-1.6,1.3l-1.8,2.5
		c-0.1,0.2-0.2,0.4-0.4,0.6C89.1,31,88.8,31.1,88.4,31.1z M74.8,63.5c-1.5,0-2.6-0.3-3.3-0.9c-0.6-0.6-1-1.5-1-2.6
		c0-1.1,0.3-2.6,1-4.6c0.7-2,1.6-4.1,2.6-6.3c1.1-2.2,2.3-4.4,3.5-6.4c1.2-2,2.4-3.7,3.5-5c1.2-1.3,2.1-2,2.8-2c1,0,1.4,0.4,1.4,1.3
		c0,0.5-0.5,1.5-1.4,3c-0.9,1.5-1.9,3-3,4.6c-0.4,0.6-1,1.4-1.8,2.4c-0.7,1-1.5,2-2.2,2.9c-0.7,0.9-1.1,1.4-1.4,1.8
		c-0.5,0.8-1.1,2.1-1.7,3.9c-0.6,1.8-1,3.2-1,4.2c0,0.4,0.1,0.7,0.2,1c0.2,0.2,0.7,0.3,1.4,0.3c1.3,0,2.8-0.4,4.5-1.3
		c1.7-0.9,3.3-1.9,5-3.2c1.7-1.3,3.3-2.7,4.8-4.1c1.5-1.4,2.9-2.6,3.9-3.6c0.2-0.2,0.5-0.3,1-0.3c0.8,0,1.2,0.3,1.2,1
		c0,0.6-0.4,1.3-1.1,2c-1.4,1.4-2.8,2.7-4,3.8c-1.2,1.1-2.4,2.1-3.5,3c-1.8,1.3-3.7,2.5-5.8,3.5C78.7,63,76.7,63.5,74.8,63.5z
		 M88,64.6c-0.9,0-1.3-0.3-1.3-1c0-0.3,0.1-0.6,0.3-1c0.2-0.4,0.4-0.8,0.6-1l7.2-14.5c3.1-6.3,4.6-9.8,4.6-10.5
		c0-0.7,0.4-1.1,1.1-1.1c1,0,1.5,0.5,1.5,1.6c0,0.4-0.2,1.2-0.7,2.4c-0.5,1.2-1.1,2.6-1.8,4.2c-1.3,2.8-2.3,4.9-3.2,6.4
		c1.6-1.9,3.2-3.6,4.9-5.3s3.3-3.2,5-4.7c5.1-4.4,9-6.6,11.7-6.6c1.9,0,2.8,0.9,2.8,2.6c0,1.6-1.4,5.2-4.1,10.8
		c-2.7,5.7-4.1,9.2-4.1,10.7c0,0.7,0.2,1,0.7,1c0.2,0,0.4-0.1,0.7-0.2c0.4-0.2,0.7-0.2,1.1-0.2c0.9,0,1.4,0.4,1.4,1.3
		c0,1.1-1.1,1.6-3.4,1.6c-1.1,0-1.8-0.2-2.3-0.7c-0.5-0.5-0.7-1.2-0.7-2.1c0-2.6,1.3-6.5,3.9-11.7c2.6-5.2,3.9-8.3,3.9-9.4
		c0-0.6-0.2-1-0.7-1c-1.2,0-3.1,1-5.7,3c-2.8,2.1-5.7,4.6-8.5,7.4c-2.8,2.8-5.5,5.9-8.1,9.5l-5.6,7.8C88.9,64.4,88.5,64.6,88,64.6z
		 M145.4,68.2c-1,0-1.5-0.8-1.5-2.4c0-2.3,1.3-6.5,3.9-12.3c2.7-5.9,6.6-13.5,11.8-23c-2,0-3.9,0.3-5.8,0.8
		c-1.8,0.5-2.7,1.1-2.8,1.8c-0.1,0.2-0.2,0.4-0.4,0.6c-0.2,0.2-0.4,0.2-0.8,0.2c-0.9,0-1.3-0.4-1.3-1.3c0-1.4,1.1-2.5,3.3-3.4
		c2.2-0.9,5.3-1.4,9.2-1.4l5.5-9.1c0.4-0.6,0.8-1.2,1.2-1.9c0.4-0.7,0.9-1.5,1.4-2.4c0.5-0.7,1.1-1.1,1.8-1.1c0.4,0,0.7,0.1,1,0.4
		c0.2,0.2,0.3,0.5,0.3,0.7c0,0.8-1.2,2.9-3.5,6.4c-2.9,4.3-4.5,6.7-4.7,7c0.8,0,2,0.1,3.6,0.2c1.6,0.1,3.5,0.3,5.7,0.6
		c0.8,0.1,1.2,0.5,1.2,1.2c0,0.9-0.5,1.3-1.4,1.3c-0.4,0-1.1-0.1-2.2-0.2c-1.1-0.2-2.3-0.3-3.6-0.4c-1.3-0.1-2.4-0.1-3.3-0.1
		l-1.2,0.1c-10.8,19-16.2,30.9-16.2,35.5l0.1,0.6v0.2C146.7,67.7,146.3,68.2,145.4,68.2z M162.6,64.1c-0.9,0-1.3-0.4-1.3-1.3
		c0-1.1,0.4-2.9,1.2-5.3c0.8-2.5,1.8-5.3,3.1-8.4c1.3-3.2,2.7-6.5,4.2-9.8c0.9-1.9,1.7-3.7,2.6-5.4c0.9-1.8,1.8-3.4,2.6-4.7
		c7.9-13.3,12.8-20,14.7-20c0.7,0,1.1,0.4,1.1,1.1c0,0.5-0.4,1.4-1.1,2.7c-0.7,1.3-1.6,2.8-2.8,4.6c-1.1,1.7-2.3,3.4-3.7,5.2
		c-1.3,1.8-2.5,3.4-3.7,4.9c-1.1,1.4-2,2.5-2.7,3.3c-0.6,0.7-1.3,1.7-2,3c-0.7,1.3-1.4,2.7-2.1,4.2c-0.7,1.4-1.3,2.6-1.7,3.7l-3,7.5
		c0.8-1.1,1.8-2.3,3.1-3.6c3-3.4,6.2-5.9,9.4-7.6c3.3-1.8,6.1-2.6,8.3-2.6c1.2,0,2.2,0.4,3,1.1c0.7,0.7,1.1,1.7,1.1,2.7
		c0,2.1-1.4,5.6-4.1,10.5c-2.7,4.9-4.1,7.8-4.1,9c0,0.6,0.3,0.9,1,0.9c1.5,0,3.1-0.5,4.9-1.6c1.8-1.1,3.6-2.5,5.4-4.2
		c1.9-1.7,3.7-3.4,5.4-5.1c0.2-0.2,0.5-0.3,1-0.3c0.8,0,1.2,0.3,1.2,1c0,0.6-0.4,1.3-1.1,2c-3.6,3.6-6.6,6.2-9.2,8
		c-2.6,1.8-5.3,2.6-8.1,2.6c-2.1,0-3.2-1-3.2-3c0-0.7,0.1-1.5,0.4-2.2c0.3-0.7,0.7-1.6,1.3-2.8l3.7-7.3c0.9-1.8,1.6-3.3,2-4.6
		c0.4-1.2,0.6-2.2,0.6-2.8c0-0.9-0.6-1.4-1.7-1.4c-2,0-4.3,0.8-7,2.4c-2.6,1.5-5.4,3.9-8.4,7c-1.7,1.8-3.3,3.7-4.6,5.8
		c-1.3,2-2.4,4.2-3.2,6.6l-1,2.8C164,63.6,163.4,64.1,162.6,64.1z M207,64.1c-2.2,0-4-0.8-5.3-2.3c-1.3-1.5-1.9-3.4-1.9-5.7
		c0-3.8,1.3-7.8,3.8-11.8c0.7-1.1,1.5-2.2,2.4-3.3c0.9-1.1,1.9-2.2,3-3.2c1.6-1.5,3.3-2.8,5-3.8c1.8-1,3.5-1.5,5.1-1.5
		c2.7,0,4.1,1.3,4.1,3.8c0,3.2-1.9,6.1-5.6,8.7c-3.5,2.3-6.9,3.5-10.2,3.5c-0.6,0-1.1,0-1.6-0.1c-0.4-0.1-0.8-0.2-1.2-0.3
		c-0.5,1-1,2.3-1.4,3.9c-0.4,1.6-0.6,3-0.6,4.2c0,3.5,1.5,5.3,4.6,5.3c2.5,0,4.9-0.4,7.1-1.3c2.2-0.9,4.9-2.6,8-5
		c1.9-1.5,3.4-2.7,4.3-3.6s2-1.9,3.1-2.9c0.3-0.2,0.6-0.3,0.9-0.3c0.3,0,0.5,0.1,0.8,0.2c0.3,0.2,0.4,0.4,0.4,0.7
		c0,0.6-0.5,1.4-1.6,2.5c-0.9,0.9-1.9,1.8-2.9,2.7c-1,0.9-2.6,2.2-4.8,3.8c-2.3,1.8-4.9,3.2-7.7,4.2C212.1,63.6,209.5,64.1,207,64.1
		z M207,45.9c1.7,0,3.3-0.3,4.9-0.8c1.5-0.5,3-1.3,4.4-2.3c3.1-2.3,4.6-4.5,4.6-6.5c0-0.9-0.6-1.4-1.7-1.4c-2.1,0-4.6,1.3-7.4,3.9
		c-1.4,1.3-2.5,2.5-3.4,3.5c-0.9,1-1.7,2.1-2.4,3.4C206.2,45.9,206.6,45.9,207,45.9z M246.4,65.6c-1,0-1.4-0.5-1.4-1.4
		c0-0.4,0.2-1,0.5-1.7c0.4-0.7,0.7-1.4,1-2c1.6-3.4,3.7-7.3,6.3-11.9c2.7-4.6,5.8-9.8,9.5-15.5c-1.4,0-2.2-0.4-2.2-1.3
		c0-0.9,0.5-1.4,1.5-1.4l2.4,0.1c1.7-2.5,3.1-4.6,4.2-6.3c1.2-1.7,2.1-3,2.8-4c1.2-1.5,2.4-3.1,3.8-4.6c1.4-1.6,2.9-3.1,4.6-4.6
		c2.5-0.5,5.1-0.9,7.7-1.1c2.7-0.3,5.4-0.4,8.1-0.4c4.8,0,8.2,0.2,10.1,0.7c0.7,0.2,1.1,0.3,1.4,0.6c0.3,0.2,0.4,0.5,0.4,0.9
		c0,0.9-0.4,1.4-1.2,1.4c-0.6,0-1.9-0.1-3.7-0.4c-1.8-0.3-4.6-0.5-8.3-0.5c-1.8,0-3.8,0.1-6,0.3c-2.2,0.2-4.6,0.5-7.2,1
		c-2.2,1.7-6.7,7.4-13.5,17.2h19.6c0.9,0,1.3,0.4,1.3,1.3c0,0.9-0.4,1.3-1.3,1.3h-21.3c-7.7,11.8-13.4,21.6-17,29.3
		c14.4-3.2,25.3-4.8,32.6-4.8c5.1,0,7.7,1.2,7.7,3.7c0,0.9-0.4,1.3-1.3,1.3c-0.7,0-1.1-0.3-1.1-0.8c-0.1-0.6-0.5-1-1.4-1.1
		c-0.9-0.2-2.2-0.3-4.1-0.3c-2.3,0-5,0.2-7.9,0.6c-2.9,0.3-6,0.7-9.3,1.3c-4.7,0.7-8.5,1.4-11.4,2.2
		C249.1,65.2,247.2,65.6,246.4,65.6z M293.7,64.6c-0.9,0-1.4-0.4-1.4-1.3c0-0.4,0.6-1.3,1.9-2.7c1.3-1.4,3.4-3.3,6.1-5.6l9.6-8.2
		c-0.4-1.4-0.7-2.7-1-3.8c-0.3-1.1-0.5-2.1-0.8-2.8c-1-3.1-1.9-5-2.7-5.8c-0.3-0.3-0.5-0.7-0.5-1c0-0.8,0.4-1.2,1.2-1.2
		c1.2,0,2.5,1.9,3.8,5.6c0.4,1.2,0.8,2.5,1.2,3.7c0.4,1.2,0.7,2.5,1.1,3.7c5.8-4.8,9.6-8.1,11.4-9.9c0.4-0.4,0.7-0.7,0.9-1
		c0.2-0.2,0.3-0.4,0.3-0.6c0.3-0.6,0.7-0.9,1.4-0.9c0.9,0,1.3,0.4,1.3,1.2c0,1.6-4.8,6.2-14.4,13.7c0.6,2.2,1.3,4.3,2,6.3
		c0.7,2,1.5,3.6,2.4,4.9c1,1.2,2,1.8,3.2,1.8c1.1,0,2.3-0.3,3.5-0.9c1.3-0.6,2.6-1.3,3.8-2.2c1.3-0.9,2.4-1.8,3.4-2.6
		c1.9-1.5,3.4-2.7,4.3-3.6s2-1.9,3.1-2.9c0.3-0.2,0.6-0.3,0.9-0.3c0.3,0,0.5,0.1,0.8,0.2c0.3,0.2,0.4,0.4,0.4,0.7
		c0,0.6-0.5,1.4-1.6,2.5c-0.9,0.9-1.9,1.8-2.9,2.7c-1,0.9-2.6,2.2-4.8,3.8c-1,0.7-2.1,1.5-3.4,2.2c-1.3,0.7-2.6,1.4-3.9,1.8
		c-1.3,0.5-2.5,0.7-3.5,0.7c-1.8,0-3.4-0.6-4.6-1.9c-1.2-1.3-2.3-3-3.1-5.1c-0.9-2.1-1.6-4.3-2.3-6.6l-8.2,7c-1.7,1.4-3.1,2.7-4.4,4
		s-2.4,2.5-3.4,3.6C294.5,64.5,294.2,64.6,293.7,64.6z M346,63.8c-2.8,0-5-0.8-6.6-2.5c-1.6-1.7-2.4-3.9-2.4-6.6
		c0-4.8,2.3-10,6.8-15.7c2.3-2.9,4.7-5.1,7.1-6.6c2.5-1.5,4.7-2.3,6.9-2.3c1.9,0,3.3,0.6,4.3,1.9c1,1.3,1.5,2.9,1.5,4.8
		c0,1.2-0.2,2.4-0.5,3.6c-0.2,0.9-0.6,1.3-1.3,1.3c-1,0-1.5-0.6-1.5-1.7c0-0.5,0.1-1.1,0.2-1.8c0.2-0.8,0.3-1.6,0.3-2.3
		c0-2.1-1-3.2-3.1-3.2c-1.1,0-2.5,0.4-4.1,1.2c-1.5,0.8-3.1,1.9-4.6,3.2c-1.5,1.3-2.9,2.7-4.1,4.4c-3.6,4.9-5.4,9.2-5.4,13
		c0,4.4,2,6.6,6,6.6c2.5,0,4.9-0.4,7.2-1.1c2.3-0.8,5-2.4,8.1-4.9c1.9-1.5,3.4-2.7,4.3-3.6c1-0.9,2-1.9,3.1-2.9
		c0.3-0.2,0.6-0.3,0.9-0.3c0.3,0,0.5,0.1,0.8,0.2c0.3,0.2,0.4,0.4,0.4,0.7c0,0.6-0.5,1.4-1.6,2.5c-0.9,0.9-1.9,1.8-2.9,2.7
		c-1,0.9-2.6,2.2-4.8,3.8c-2.3,1.8-4.9,3.2-7.5,4.1C351,63.3,348.4,63.8,346,63.8z M374.6,64.8c-2.5,0-4.3-0.7-5.7-2.2
		c-1.3-1.5-1.9-3.6-1.9-6.1c0-1.8,0.3-4,1-6.6c1.1-4.3,3-9.3,5.7-15c2.1-4.3,4.3-8.6,6.7-12.7c2.4-4.2,5-8.3,7.9-12.4
		c4.6-6.5,7.8-9.8,9.6-9.8c1.2,0,1.8,0.3,1.8,1c0,0.9-1.5,3.2-4.5,6.8l-5.6,6.8c-4.9,5.9-8.8,11.9-11.9,18c-3,6.1-5.4,12.3-7.1,18.4
		c-0.5,1.8-0.7,3.4-0.7,5c0,4.1,1.7,6.1,5,6.1c1.2,0,2.4-0.3,3.6-1c1.2-0.6,1.9-1,2-1c0.6,0,1,0.5,1,1.4c0,0.8-0.3,1.4-0.9,1.8
		C378.6,64.3,376.6,64.8,374.6,64.8z M408.4,65.4c-2.6,0-3.9-1.9-3.9-5.7c0-2,0.5-4.5,1.4-7.4c-6.5,7.5-11.5,11.3-15.2,11.3
		c-3,0-4.6-1.8-4.6-5.5c0-1.4,0.2-3,0.6-5c0.5-2,1.1-4,1.8-6.1c0.8-2.1,1.7-4,2.6-5.8c0.9-1.8,1.8-3.3,2.7-4.4
		c0.3-0.4,0.7-0.6,1.2-0.6c0.3,0,0.5,0.1,0.8,0.3c0.3,0.2,0.4,0.4,0.4,0.8c0,0.3-0.2,0.8-0.6,1.4c-2.4,3.9-4.1,7.4-5.1,10.3
		c-1.3,3.4-1.9,6.3-1.9,8.7c0,2.3,0.6,3.4,1.8,3.4c0.7,0,1.7-0.4,3-1.1c1.2-0.7,2.5-1.7,3.8-2.7c1.3-1.1,2.5-2.2,3.4-3.1
		c2.7-2.8,5.1-5.8,7.2-9c1-1.5,1.8-2.9,2.6-4.3c0.8-1.4,1.5-2.9,2.2-4.5c0.3-0.6,0.5-1,0.6-1.3c0.2-0.3,0.5-0.5,0.9-0.5
		c1.1,0,1.7,0.4,1.7,1.3c0,0.5-0.2,0.9-0.6,1.1c-5.4,11-8.2,18.6-8.2,22.8c0,1.1,0.1,1.9,0.3,2.4c0.2,0.4,0.6,0.6,1.1,0.6
		c0.7,0,1.9-0.5,3.4-1.4c1.6-1,3.5-2.4,5.6-4.4l8.4-7.7c0.4-0.4,0.8-0.6,1.2-0.6c0.9,0,1.3,0.4,1.3,1.2c0,0.7-1.7,2.6-5,5.6
		c-1.4,1.3-2.7,2.5-3.8,3.4s-2.2,1.7-3.1,2.4c-1.8,1.3-3.4,2.3-4.8,3C410.2,65,409.1,65.4,408.4,65.4z M425.2,65.3c-3,0-4.5-1-4.5-3
		c0-1.2,0.4-2.5,1.3-3.7c0.9-1.2,2-2.3,3.2-3.4c1.2-1,2.4-1.8,3.4-2.3c0.3-0.2,0.7-0.3,1.3-0.5c0.6-0.2,1.1-0.2,1.4-0.2
		c0.4,0,0.6,0.2,0.6,0.5c0,0.3-0.3,0.6-0.9,0.9c-2.5,1.2-4.4,2.6-5.8,4.2c-1.3,1.6-2,2.9-2,3.9c0,1,0.8,1.4,2.5,1.4
		c1.4,0,2.9-0.3,4.5-1c1.7-0.7,3.2-1.6,4.6-2.7c1.5-1.1,2.7-2.3,3.7-3.6c1-1.3,1.4-2.5,1.4-3.7c0-0.8-0.3-1.5-0.8-2.2
		c-0.5-0.6-1.3-1.1-2.4-1.4l-5.3-1.6c-1.3-0.4-2.3-1-2.9-1.7c-0.6-0.7-0.9-1.5-0.9-2.3c0-1.6,0.6-3,1.8-4.3c1.2-1.3,2.7-2.3,4.6-3
		c1.8-0.7,3.6-1.1,5.3-1.1c1.7,0,3.2,0.4,4.5,1.3c1.3,0.8,1.9,1.9,1.9,3.3c0,0.8-0.2,1.5-0.7,2.2c-0.4,0.7-0.9,1-1.5,1
		c-0.9,0-1.4-0.4-1.4-1.1c0-0.3,0.1-0.6,0.4-1c0.3-0.4,0.5-0.8,0.5-1.2c0-1.6-1.2-2.4-3.7-2.4c-1.3,0-2.7,0.3-4,0.9
		c-1.3,0.5-2.3,1.3-3.2,2.2c-0.9,0.9-1.3,1.9-1.3,3s1.1,1.9,3.2,2.6l5.1,1.6c1.5,0.5,2.6,1.1,3.2,2c0.6,0.8,0.9,1.7,0.9,2.7
		c0,2.4-1.5,4.9-4.4,7.4C434.2,63.2,429.6,65.3,425.2,65.3z M465.5,31.1c-0.9,0-1.4-0.5-1.4-1.4c0-0.3,0.2-0.7,0.6-1.4
		c0.4-0.7,0.8-1.5,1.3-2.2c0.5-0.7,0.9-1.3,1.1-1.5c0.9-1,1.6-1.7,2.1-1.9c0.5-0.3,1-0.4,1.4-0.4c1.1,0,1.7,0.5,1.7,1.5
		c0,0.4-0.2,0.8-0.7,1.4c-0.4,0.5-0.9,0.9-1.5,1.4c-0.9,0.5-1.4,1-1.6,1.3l-1.8,2.5c-0.1,0.2-0.2,0.4-0.4,0.6
		C466.2,31,465.9,31.1,465.5,31.1z M451.9,63.5c-1.5,0-2.6-0.3-3.3-0.9c-0.6-0.6-1-1.5-1-2.6c0-1.1,0.3-2.6,1-4.6
		c0.7-2,1.6-4.1,2.6-6.3c1.1-2.2,2.3-4.4,3.5-6.4c1.2-2,2.4-3.7,3.5-5c1.2-1.3,2.1-2,2.8-2c1,0,1.4,0.4,1.4,1.3c0,0.5-0.5,1.5-1.4,3
		c-0.9,1.5-1.9,3-3,4.6c-0.4,0.6-1,1.4-1.8,2.4s-1.5,2-2.2,2.9c-0.7,0.9-1.1,1.4-1.4,1.8c-0.5,0.8-1.1,2.1-1.7,3.9
		c-0.6,1.8-1,3.2-1,4.2c0,0.4,0.1,0.7,0.2,1c0.2,0.2,0.7,0.3,1.4,0.3c1.3,0,2.8-0.4,4.5-1.3c1.7-0.9,3.3-1.9,5-3.2
		c1.7-1.3,3.3-2.7,4.8-4.1c1.5-1.4,2.9-2.6,3.9-3.6c0.2-0.2,0.5-0.3,1-0.3c0.8,0,1.2,0.3,1.2,1c0,0.6-0.4,1.3-1.1,2
		c-1.4,1.4-2.8,2.7-4,3.8s-2.4,2.1-3.5,3c-1.8,1.3-3.7,2.5-5.8,3.5S453.8,63.5,451.9,63.5z M472.5,63.4c-0.6,0-1-0.2-1-0.7
		c-0.9-1.5-1.3-4.6-1.3-9.2c0-1.1,0.1-2.6,0.2-4.5c0.2-1.9,0.4-3.8,0.6-5.8c0.3-2,0.6-3.9,0.9-5.5c0.3-1.7,0.7-2.9,1-3.7
		c0.3-0.6,0.7-1,1.2-1c0.9,0,1.3,0.3,1.3,1c0,0.4-0.1,0.7-0.2,1.1c-0.1,0.3-0.2,0.7-0.3,1.2c-0.7,2.7-1.3,5.5-1.7,8.5
		c-0.4,3-0.6,6.1-0.6,9.2c0,1.4,0.1,2.7,0.2,3.8c0.2,1.1,0.3,2.1,0.5,2.9c1.5-0.6,3.1-1.7,5-3.4c1.8-1.8,3.6-3.7,5.3-5.8
		c1.4-1.8,2.6-3.5,3.8-5.4c1.2-1.8,2.1-3.5,2.7-5.1c0.7-1.6,1-2.9,1-3.9c0-0.7-0.1-1.2-0.2-1.4c-0.1-0.3-0.2-0.5-0.4-0.6
		c-0.2-0.2-0.2-0.5-0.2-0.9c0-0.8,0.4-1.2,1.2-1.2c0.5,0,1,0.4,1.4,1.2c0.4,0.8,0.6,1.8,0.6,3c0,3.8-2.6,9.1-7.9,15.9
		C480.3,60,475.9,63.4,472.5,63.4z M501.7,64.1c-2.2,0-4-0.8-5.3-2.3c-1.3-1.5-1.9-3.4-1.9-5.7c0-3.8,1.3-7.8,3.8-11.8
		c0.7-1.1,1.5-2.2,2.4-3.3c0.9-1.1,1.9-2.2,3-3.2c1.6-1.5,3.3-2.8,5-3.8c1.8-1,3.5-1.5,5.1-1.5c2.7,0,4.1,1.3,4.1,3.8
		c0,3.2-1.9,6.1-5.6,8.7c-3.5,2.3-6.9,3.5-10.2,3.5c-0.6,0-1.1,0-1.6-0.1c-0.4-0.1-0.8-0.2-1.2-0.3c-0.5,1-1,2.3-1.4,3.9
		c-0.4,1.6-0.6,3-0.6,4.2c0,3.5,1.5,5.3,4.6,5.3c2.5,0,4.9-0.4,7.1-1.3c2.2-0.9,4.9-2.6,8-5c1.9-1.5,3.4-2.7,4.3-3.6
		c1-0.9,2-1.9,3.1-2.9c0.3-0.2,0.6-0.3,0.9-0.3c0.3,0,0.5,0.1,0.8,0.2c0.3,0.2,0.4,0.4,0.4,0.7c0,0.6-0.5,1.4-1.6,2.5
		c-0.9,0.9-1.9,1.8-2.9,2.7c-1,0.9-2.6,2.2-4.8,3.8c-2.3,1.8-4.9,3.2-7.7,4.2C506.8,63.6,504.2,64.1,501.7,64.1z M501.7,45.9
		c1.7,0,3.3-0.3,4.9-0.8c1.5-0.5,3-1.3,4.4-2.3c3.1-2.3,4.6-4.5,4.6-6.5c0-0.9-0.6-1.4-1.7-1.4c-2.1,0-4.6,1.3-7.4,3.9
		c-1.4,1.3-2.5,2.5-3.4,3.5c-0.9,1-1.7,2.1-2.4,3.4C500.9,45.9,501.3,45.9,501.7,45.9z M544.3,70.5c-1,0-1.5-0.5-1.5-1.4
		c0-6.3,3.7-16.1,11-29.4c0.5-1,1.4-2.4,2.5-4.2c-1.8,0.2-3.3,0.6-4.6,1.2c-1.2,0.5-1.9,0.8-2.3,0.8c-1,0-1.4-0.5-1.4-1.4
		c0-1.4,3.3-2.6,9.9-3.6c0.9-1.5,2.1-3.5,3.4-5.8c1.4-2.3,3.1-5,5.1-8.1c1.4-2.3,2.7-4.3,3.7-6c1-1.8,1.8-3.4,2.5-4.8
		c0.2-0.5,0.6-0.8,1-0.8c1,0,1.5,0.5,1.5,1.6c0,0.4-0.6,1.6-1.9,3.8c-1.2,2.1-3.2,5.3-5.8,9.6l-6.3,10.2c2-0.2,4.2-0.4,6.4-0.5
		s4.5-0.2,6.9-0.2c4.7,0,13.3,0.4,25.8,1.2c1.1-2.3,2.2-4.5,3.4-6.7c1.2-2.2,2.5-4.5,3.8-6.6c1.9-3.3,3.6-5.8,5-7.6
		c1.4-1.9,2.5-3.1,3.2-3.6c0.7-0.5,1.3-0.8,1.7-0.8c0.8,0,1.2,0.4,1.2,1.3c0,0.4-0.2,0.8-0.7,1.1c-1,0.7-2.1,1.9-3.5,3.8
		c-1.4,1.8-2.9,4.2-4.6,7.1c-2.6,4.3-4.7,8.4-6.6,12.3c1.9,0,2.8,0.5,2.8,1.4c0,0.4-0.1,0.7-0.4,1c-0.3,0.3-0.7,0.4-1.2,0.3
		l-2.4-0.2c-5.4,12-8.1,20.2-8.1,24.6v1.8c0,0.6-0.5,1-1.4,1c-0.9,0-1.3-0.9-1.3-2.8c0-4.7,2.6-13,7.8-24.8
		c-6.5-0.4-11.9-0.6-16.1-0.8c-4.2-0.2-7.2-0.2-9-0.2c-5.2,0-10,0.2-14.3,0.7l-3.4,6c-2.6,4.6-4.7,8.8-6.2,12.5
		c-1.5,3.6-2.5,6.3-3,8.2c-0.5,2.1-0.9,3.7-1,4.8c-0.2,1.1-0.3,2.2-0.4,3.1C545.4,70.1,545,70.5,544.3,70.5z M606.8,89.1
		c-3.3,0-4.9-1.9-4.9-5.8c0-3.3,0.7-6.4,2.1-9.4c0.2-0.5,0.6-0.8,1-0.8c1,0,1.4,0.4,1.4,1.3c0,0.2-0.1,0.5-0.2,0.8
		c-0.1,0.4-0.2,0.8-0.4,1.2c-0.4,1-0.7,2.1-0.9,3.2c-0.2,1.1-0.3,2.3-0.3,3.5c0,1.4,0.2,2.3,0.6,2.8c0.4,0.5,0.9,0.7,1.4,0.7
		c1.4,0,3-0.6,4.9-1.9c1.9-1.3,3.9-3.3,5.9-6.1c1.4-2,2.9-4.3,4.5-7c1.5-2.7,3.2-5.8,5-9.4c2.3-4.6,4.5-9.4,6.5-14.2
		c-1.3,1.7-2.7,3.4-4.2,5c-1.4,1.6-3,3.1-4.6,4.5c-4.4,3.8-8.1,5.7-11,5.7c-3.5,0-5.3-2-5.3-6.1c0-1.4,0.3-3.2,0.8-5.2
		c0.6-2,1.4-4.3,2.4-7c0.2-0.4,0.2-0.8,0.2-1c0-0.3,0.1-0.6,0.2-1c0.9-1.9,2.3-3.9,4.2-6.2c0.4-0.5,0.8-0.7,1.1-0.7
		c0.8,0,1.2,0.6,1.2,1.8c-5.2,7.6-7.8,14.1-7.8,19.4c0,2.2,0.9,3.4,2.6,3.4c2,0,4.7-1.4,8.2-4.1c2.5-1.9,4.8-4.1,7-6.5
		c2.1-2.5,4.1-5,5.8-7.6c1.2-1.8,2.1-3.3,2.8-4.6c0.7-1.4,1.2-2.3,1.4-2.8c0.3-0.8,0.6-1.2,1.1-1.2c1,0,1.5,0.4,1.5,1.3
		c0,0.4-0.2,1.2-0.6,2.3c-0.4,1.1-0.9,2.3-1.4,3.8c-0.9,2.2-2.1,5.1-3.7,8.8c-1.6,3.7-3.6,8.1-6,13.1c-3,6.3-5.9,11.4-8.8,15.4
		c-2.1,3-4.5,5.6-7,7.6C611,88.1,608.8,89.1,606.8,89.1z M637.3,84.7c-2.5,0-3.8-1.8-3.8-5.4c0-4.7,2.1-12.2,6.2-22.4
		c0.7-1.7,1.5-3.5,2.5-5.4c1-1.9,2.1-3.8,3.4-5.9c1.3-2.2,2.6-4.2,3.8-5.8c1.2-1.7,2.3-3,3.2-4c0.3-0.3,0.6-0.5,0.8-0.6
		c0.3-0.1,0.5-0.2,0.6-0.2c1.4,0,3,0.4,4.7,1.2c1.8,0.8,3.3,1.8,4.7,3c1.3,1.1,2.3,2.3,3.1,3.8s1.2,3,1.2,4.6c0,1.2-0.2,2.4-0.7,3.6
		c-0.4,1.2-1,2.3-1.8,3.5c1.4-0.3,3.1-0.9,5-1.8c2-1,4.1-2.4,6.2-4.4c0.2-0.2,0.5-0.3,0.9-0.3c0.8,0,1.2,0.3,1.2,1
		c0,0.3-0.1,0.6-0.4,1c-0.2,0.4-0.6,0.9-1.2,1.4c-3.9,3.6-8.7,5.7-14.2,6.2c-0.8,0.9-1.7,1.7-2.6,2.5c-0.9,0.7-1.9,1.4-2.9,2.1
		c-3.1,1.9-5.7,2.8-7.9,2.8c-0.9,0-1.7-0.3-2.2-0.9c-0.6-0.6-0.9-1.3-0.9-2c0-2.5,2.1-4.3,6.4-5.6c1.5-0.4,3.1-0.8,4.6-1.1
		c1.5-0.3,3.1-0.7,4.6-1c1.1-1.7,1.8-3.1,2.3-4.3c0.5-1.2,0.8-2.3,0.8-3.1c0-2.8-2.1-5.5-6.3-8.1c-1.7-1-3-1.5-3.9-1.4
		c-4.4,4.8-8.5,11.5-12.4,20.2c-4.1,8.9-6.1,15.9-6.1,21c0,1.2,0.1,2.1,0.3,2.5c0.2,0.4,0.6,0.6,1.1,0.6c0.2,0,0.3,0,0.4-0.1
		c0.1,0,0.2,0,0.3,0c0.7,0,1,0.4,1,1.3C639.3,84.2,638.6,84.7,637.3,84.7z M649.8,62.8c2,0,4.8-1.5,8.6-4.6
		c-0.9,0.1-1.7,0.2-2.5,0.4c-0.7,0.2-1.8,0.5-3.3,0.9c-2.4,0.7-3.6,1.6-3.6,2.6C649,62.6,649.2,62.8,649.8,62.8z M682.1,64.1
		c-2.2,0-4-0.8-5.3-2.3c-1.3-1.5-1.9-3.4-1.9-5.7c0-3.8,1.3-7.8,3.8-11.8c0.7-1.1,1.5-2.2,2.4-3.3c0.9-1.1,1.9-2.2,3-3.2
		c1.6-1.5,3.3-2.8,5-3.8c1.8-1,3.5-1.5,5.1-1.5c2.7,0,4.1,1.3,4.1,3.8c0,3.2-1.9,6.1-5.6,8.7c-3.5,2.3-6.9,3.5-10.2,3.5
		c-0.6,0-1.1,0-1.6-0.1c-0.4-0.1-0.8-0.2-1.2-0.3c-0.5,1-1,2.3-1.4,3.9c-0.4,1.6-0.6,3-0.6,4.2c0,3.5,1.5,5.3,4.6,5.3
		c2.5,0,4.9-0.4,7.1-1.3c2.2-0.9,4.9-2.6,8-5c1.9-1.5,3.4-2.7,4.3-3.6c1-0.9,2-1.9,3.1-2.9c0.3-0.2,0.6-0.3,0.9-0.3
		c0.3,0,0.5,0.1,0.8,0.2c0.3,0.2,0.4,0.4,0.4,0.7c0,0.6-0.5,1.4-1.6,2.5c-0.9,0.9-1.9,1.8-2.9,2.7c-1,0.9-2.6,2.2-4.8,3.8
		c-2.3,1.8-4.9,3.2-7.7,4.2C687.2,63.6,684.6,64.1,682.1,64.1z M682,45.9c1.7,0,3.3-0.3,4.9-0.8c1.5-0.5,3-1.3,4.4-2.3
		c3.1-2.3,4.6-4.5,4.6-6.5c0-0.9-0.6-1.4-1.7-1.4c-2.1,0-4.6,1.3-7.4,3.9c-1.4,1.3-2.5,2.5-3.4,3.5c-0.9,1-1.7,2.1-2.4,3.4
		C681.3,45.9,681.7,45.9,682,45.9z M121.1,146.1c-4.4,0-8.2-0.9-11.6-2.6c-3.4-1.8-6-4.2-7.9-7.4c-1.9-3.3-2.9-7-2.9-11.3
		c0-4.5,0.9-8.7,2.7-12.4c1.8-3.7,4.4-7.1,7.8-10.2c9.7-8.8,21.3-13.2,34.6-13.2c2.8,0,5.5,0.5,8.1,1.5c2.6,1,4.7,2.4,6.4,4.3
		c1.7,1.9,2.5,4.1,2.5,6.8c0,2.2-0.7,4.1-2,5.6c-0.3,0.4-0.9,1-1.6,1.7c-0.7,0.6-1.3,1-1.8,1c-0.4,0-0.9-0.2-1.3-0.5
		c-0.4-0.4-0.6-0.7-0.6-1.1c0-0.3,0.2-0.6,0.6-0.9c0.4-0.4,0.9-0.9,1.7-1.6c1.4-1.4,2.2-3.1,2.2-4.9c0-2.2-0.8-4-2.3-5.4
		c-1.5-1.4-3.4-2.5-5.8-3.2c-2.3-0.7-4.8-1.1-7.4-1.1c-5.9,0-11.6,1.3-17.2,3.8c-5.5,2.5-10.5,5.8-14.7,10.1c-2.8,2.8-5,5.9-6.6,9.3
		c-1.5,3.3-2.2,7-2.2,11.1c0,3.4,0.6,6.3,1.8,8.6c1.3,2.3,2.9,4.2,4.9,5.6c2,1.4,4.2,2.5,6.6,3.2c2.4,0.6,4.7,1,6.9,1
		c2.6,0,5.3-0.3,8.2-1c2.9-0.7,5.8-1.6,8.6-2.8c2.8-1.2,5.4-2.6,7.6-4c1-0.6,1.7-1.2,2.3-1.7c0.6-0.5,1.1-0.9,1.4-1.1l2.4-4.1
		c0.6-1.1,1.4-2.4,2.3-4c0.9-1.6,1.9-3.5,3.1-5.6c-1.7,0-3.7,0.2-6.2,0.7c-2.5,0.5-5.1,1.1-7.8,1.8c-1.7,0.4-3.3,0.9-5,1.5
		c-1.6,0.5-2.6,0.8-3,0.8c-0.9,0-1.4-0.5-1.4-1.4c0-0.3,0.1-0.5,0.2-0.6c0.2-0.2,0.5-0.5,1-0.7c1.2-0.7,2.8-1.3,4.7-1.9
		c1.9-0.6,4.1-1.2,6.4-1.6c2.1-0.4,4.2-0.7,6.3-0.9c2.1-0.2,4.1-0.2,6.1-0.2l0.2-0.5c0.2-0.5,0.6-0.8,1.1-0.8c0.8,0,1.3,0.4,1.5,1.3
		c1.3,0.1,2.9,0.2,4.6,0.6c0.9,0.2,1.3,0.6,1.3,1.4s-0.4,1.2-1.2,1.2c-0.4,0-1.1-0.1-2.2-0.3c-1.1-0.2-2.2-0.3-3.5-0.3
		c-1.2,2.3-3.5,6.4-7,12.2c-0.7,1.2-1.3,2.2-1.8,3c-0.5,0.9-0.9,1.6-1.1,2.2c-1,1.9-1.7,3.7-2.2,5.4c-0.2,0.6-0.5,0.9-1,0.9
		c-1.1,0-1.6-0.5-1.6-1.4c0-0.6,0.4-1.9,1.1-3.9c-2.4,1.5-5.1,3-8.2,4.2c-3,1.2-6.1,2.2-9.3,3C126.8,145.7,123.9,146.1,121.1,146.1z
		 M183.8,111.1c-0.9,0-1.4-0.5-1.4-1.4c0-0.3,0.2-0.7,0.6-1.4c0.4-0.7,0.8-1.5,1.3-2.2c0.5-0.7,0.9-1.3,1.1-1.5
		c0.9-1,1.6-1.7,2.1-1.9c0.5-0.3,1-0.4,1.4-0.4c1.1,0,1.7,0.5,1.7,1.5c0,0.4-0.2,0.8-0.7,1.4c-0.4,0.5-0.9,0.9-1.5,1.4
		c-0.9,0.5-1.4,1-1.6,1.3l-1.8,2.5c-0.1,0.2-0.2,0.4-0.4,0.6C184.4,111,184.2,111.1,183.8,111.1z M170.2,143.5
		c-1.5,0-2.6-0.3-3.3-0.9c-0.6-0.6-1-1.5-1-2.6c0-1.1,0.3-2.6,1-4.6c0.7-2,1.6-4.1,2.6-6.3c1.1-2.2,2.3-4.4,3.5-6.4
		c1.2-2,2.4-3.7,3.5-5c1.2-1.3,2.1-2,2.8-2c1,0,1.4,0.4,1.4,1.3c0,0.5-0.5,1.5-1.4,3c-0.9,1.5-1.9,3-3,4.6c-0.4,0.6-1,1.4-1.8,2.4
		c-0.7,1-1.5,2-2.2,2.9c-0.7,0.9-1.1,1.4-1.4,1.8c-0.5,0.8-1.1,2.1-1.7,3.9c-0.6,1.8-1,3.2-1,4.2c0,0.4,0.1,0.7,0.2,1
		c0.2,0.2,0.7,0.3,1.4,0.3c1.3,0,2.8-0.4,4.5-1.3c1.7-0.9,3.3-1.9,5-3.2c1.7-1.3,3.3-2.7,4.8-4.1c1.5-1.4,2.9-2.6,3.9-3.6
		c0.2-0.2,0.5-0.3,1-0.3c0.8,0,1.2,0.3,1.2,1c0,0.6-0.4,1.3-1.1,2c-1.4,1.4-2.8,2.7-4,3.8c-1.2,1.1-2.4,2.1-3.5,3
		c-1.8,1.3-3.7,2.5-5.8,3.5C174,143,172,143.5,170.2,143.5z M183.3,144.6c-0.9,0-1.3-0.3-1.3-1c0-0.3,0.1-0.6,0.2-1
		c0.2-0.3,0.4-0.6,0.5-0.8l7.3-14.7c3.1-6.3,4.6-9.8,4.6-10.5c0-0.7,0.4-1.1,1.1-1.1c1,0,1.5,0.5,1.5,1.5c0,0.5-0.2,1.4-0.7,2.6
		c-0.5,1.2-1.1,2.5-1.8,4.1c-1.3,2.8-2.3,4.9-3.2,6.4c1.6-1.9,3.2-3.6,4.9-5.3c1.7-1.7,3.3-3.2,5-4.7c5.1-4.4,9-6.6,11.7-6.6
		c1.9,0,2.8,0.9,2.8,2.6c0,1.7-0.6,2.6-1.7,2.6c-0.5,0-0.9-0.5-1.2-1.4c-0.2-0.6-0.5-1-1.1-1c-0.9,0-2.7,1-5.3,3
		c-2.9,2.1-5.8,4.7-8.7,7.6c-2.9,2.9-5.9,6.7-9.2,11.2l-4,5.6c-0.2,0.3-0.4,0.5-0.6,0.6C184,144.5,183.7,144.6,183.3,144.6z
		 M220.5,144.8c-2.5,0-4.3-0.7-5.7-2.2c-1.3-1.5-1.9-3.6-1.9-6.1c0-1.8,0.3-4,1-6.6c1.1-4.3,3-9.3,5.7-15c2.1-4.3,4.3-8.6,6.7-12.7
		c2.4-4.2,5-8.3,7.9-12.4c4.6-6.5,7.8-9.8,9.6-9.8c1.2,0,1.8,0.3,1.8,1c0,0.9-1.5,3.2-4.5,6.8l-5.6,6.8c-4.9,5.9-8.8,11.9-11.9,18
		c-3,6.1-5.4,12.3-7.1,18.4c-0.5,1.8-0.7,3.4-0.7,5c0,4.1,1.7,6.1,5,6.1c1.2,0,2.4-0.3,3.6-1c1.2-0.6,1.9-1,2-1c0.6,0,1,0.5,1,1.4
		c0,0.8-0.3,1.4-0.9,1.8C224.6,144.3,222.6,144.8,220.5,144.8z M233.6,145.3c-3,0-4.5-1-4.5-3c0-1.2,0.4-2.5,1.3-3.7
		c0.9-1.2,2-2.3,3.2-3.4c1.2-1,2.4-1.8,3.4-2.3c0.3-0.2,0.7-0.3,1.3-0.5c0.6-0.2,1.1-0.2,1.4-0.2c0.4,0,0.6,0.2,0.6,0.5
		c0,0.3-0.3,0.6-0.9,0.9c-2.5,1.2-4.4,2.6-5.8,4.2c-1.3,1.6-2,2.9-2,3.9c0,1,0.8,1.4,2.5,1.4c1.4,0,2.9-0.3,4.5-1
		c1.7-0.7,3.2-1.6,4.6-2.7c1.5-1.1,2.7-2.3,3.7-3.6s1.4-2.5,1.4-3.7c0-0.8-0.3-1.5-0.8-2.2c-0.5-0.6-1.3-1.1-2.4-1.4L240,127
		c-1.3-0.4-2.3-1-2.9-1.7c-0.6-0.7-0.9-1.5-0.9-2.3c0-1.6,0.6-3,1.8-4.3c1.2-1.3,2.7-2.3,4.6-3c1.8-0.7,3.6-1.1,5.3-1.1
		c1.7,0,3.2,0.4,4.5,1.3c1.3,0.8,1.9,1.9,1.9,3.3c0,0.8-0.2,1.5-0.7,2.2c-0.4,0.7-0.9,1-1.5,1c-0.9,0-1.4-0.4-1.4-1.1
		c0-0.3,0.1-0.6,0.4-1c0.3-0.4,0.5-0.8,0.5-1.2c0-1.6-1.2-2.4-3.7-2.4c-1.3,0-2.7,0.3-4,0.9c-1.3,0.5-2.3,1.3-3.2,2.2
		c-0.9,0.9-1.3,1.9-1.3,3s1.1,1.9,3.2,2.6l5.1,1.6c1.5,0.5,2.6,1.1,3.2,2c0.6,0.8,0.9,1.7,0.9,2.7c0,2.4-1.5,4.9-4.4,7.4
		C242.7,143.2,238.1,145.3,233.6,145.3z M305.5,146.2c-4.9,0-9.1-0.9-12.7-2.6c-3.6-1.7-6.3-4.1-8.3-7.3c-2-3.3-3-7.1-3-11.7
		c0-4.3,0.8-8.2,2.4-11.8c1.7-3.6,4-6.9,7.1-9.9c4.7-4.5,10.2-8,16.4-10.5c6.3-2.5,12.8-3.7,19.4-3.7c3.3,0,6.2,0.6,8.7,1.8
		c2.5,1.1,4.5,2.6,5.9,4.6s2.2,4,2.2,6.3c0,1.5-0.3,2.9-1,4.2c-0.7,1.2-1.5,2.2-2.3,3c-0.9,0.7-1.5,1.1-2.1,1.1
		c-0.4,0-0.9-0.2-1.3-0.6c-0.4-0.4-0.6-0.8-0.6-1c0-0.3,0.4-0.8,1.1-1.4c0.7-0.6,1.5-1.4,2.2-2.3c0.7-1,1.1-2.2,1.1-3.7
		c0-1.9-0.7-3.6-2-5c-1.3-1.5-3.1-2.6-5.4-3.4c-2.3-0.9-4.9-1.3-7.9-1.3c-5.9,0-11.7,1.3-17.3,3.8c-5.6,2.5-10.5,5.8-14.7,9.9
		c-2.9,2.9-5.1,6-6.6,9.3c-1.5,3.3-2.2,7-2.2,11.3c0,4.1,1,7.5,2.9,10.3c2,2.7,4.6,4.8,7.9,6.2c3.3,1.3,7,2,11.1,2
		c4.7,0,9.7-0.7,15-2.2c3.1-0.9,5.7-1.8,7.8-2.9c2.1-1.1,3.7-2.2,4.8-3.1c1-0.9,1.8-1.6,2.2-2s0.9-0.6,1.2-0.6
		c0.4,0,0.6,0.2,0.6,0.7c0,0.5-0.3,1.2-1,2c-0.6,0.8-1.3,1.5-2,2.1c-1.9,1.4-4.2,2.7-7.1,3.9c-2.8,1.1-5.7,2.1-8.5,2.8
		c-2.5,0.6-4.9,1.1-7.2,1.4C309.9,146.1,307.7,146.2,305.5,146.2z M351.6,144.8c-2.5,0-4.3-0.7-5.7-2.2c-1.3-1.5-1.9-3.6-1.9-6.1
		c0-1.8,0.3-4,1-6.6c1.1-4.3,3-9.3,5.7-15c2.1-4.3,4.3-8.6,6.7-12.7c2.4-4.2,5-8.3,7.9-12.4c4.6-6.5,7.8-9.8,9.6-9.8
		c1.2,0,1.8,0.3,1.8,1c0,0.9-1.5,3.2-4.5,6.8l-5.6,6.8c-4.9,5.9-8.8,11.9-11.9,18c-3,6.1-5.4,12.3-7.1,18.4c-0.5,1.8-0.7,3.4-0.7,5
		c0,4.1,1.7,6.1,5,6.1c1.2,0,2.4-0.3,3.6-1c1.2-0.6,1.9-1,2-1c0.6,0,1,0.5,1,1.4c0,0.8-0.3,1.4-0.9,1.8
		C355.7,144.3,353.7,144.8,351.6,144.8z M385.5,145.4c-2.6,0-3.9-1.9-3.9-5.7c0-2,0.5-4.5,1.4-7.4c-6.5,7.5-11.5,11.3-15.2,11.3
		c-3,0-4.6-1.8-4.6-5.5c0-1.4,0.2-3,0.6-5c0.5-2,1.1-4,1.8-6.1c0.8-2.1,1.7-4,2.6-5.8c0.9-1.8,1.8-3.3,2.7-4.4
		c0.3-0.4,0.7-0.6,1.2-0.6c0.3,0,0.5,0.1,0.8,0.3c0.3,0.2,0.4,0.4,0.4,0.8c0,0.3-0.2,0.8-0.6,1.4c-2.4,3.9-4.1,7.4-5.1,10.3
		c-1.3,3.4-1.9,6.3-1.9,8.7c0,2.3,0.6,3.4,1.8,3.4c0.7,0,1.7-0.4,3-1.1c1.2-0.7,2.5-1.7,3.8-2.7c1.3-1.1,2.5-2.2,3.4-3.1
		c2.7-2.8,5.1-5.8,7.2-9c1-1.5,1.8-2.9,2.6-4.3c0.8-1.4,1.5-2.9,2.2-4.5c0.3-0.6,0.5-1,0.6-1.3c0.2-0.3,0.5-0.5,0.9-0.5
		c1.1,0,1.7,0.4,1.7,1.3c0,0.5-0.2,0.9-0.6,1.1c-5.4,11-8.2,18.6-8.2,22.8c0,1.1,0.1,1.9,0.3,2.4c0.2,0.4,0.6,0.6,1.1,0.6
		c0.7,0,1.9-0.5,3.4-1.4c1.6-1,3.5-2.4,5.6-4.4l8.4-7.7c0.4-0.4,0.8-0.6,1.2-0.6c0.9,0,1.3,0.4,1.3,1.2c0,0.7-1.7,2.6-5,5.6
		c-1.4,1.3-2.7,2.5-3.8,3.4c-1.1,0.9-2.2,1.7-3.1,2.4c-1.8,1.3-3.4,2.3-4.8,3C387.3,145,386.2,145.4,385.5,145.4z M405.9,147.4
		c-1.5,0-2.7-0.5-3.8-1.4c-1-0.9-1.4-2.1-1.4-3.5c0-0.5,0-0.9,0.1-1c-0.7,1.7-1.4,2.6-2.1,2.6c-0.9,0-1.3-0.5-1.3-1.5l6.2-16.3
		c1-2.6,2.1-5.2,3.3-7.9c1.2-2.8,2.5-5.4,3.7-7.9c1.3-2.6,2.5-4.9,3.5-6.9c1.1-2.1,2-3.7,2.7-5c1.7-2.9,3.3-5.2,4.9-6.8
		c1.6-1.7,2.9-2.5,3.8-2.5c1,0,1.5,0.6,1.5,1.7c0,0.6-0.3,1-1,1c-1.4,0-3.8,2.9-7.1,8.7c-1.1,1.8-2.1,3.6-3,5.4
		c-0.9,1.8-1.8,3.5-2.6,5.3c-1.2,2.5-2.4,5.2-3.7,8.1s-2.6,5.9-4,9.1c1.8-2.6,3.7-4.9,5.8-7c1.9-1.9,3.8-3.4,5.8-4.5
		c2-1.2,4-1.8,6-1.8c2.2,0,3.9,0.5,5.2,1.4s1.9,2.6,1.9,5.1c0,2.1-0.6,4.3-1.8,6.6c-1.2,2.3-2.7,4.6-4.6,6.9
		c-1.9,2.2-3.9,4.3-6.2,6.2c-2.2,1.8-4.3,3.3-6.4,4.3C409.2,146.8,407.4,147.4,405.9,147.4z M405.7,144.7c1.6,0,3.4-0.6,5.3-1.7
		c1.9-1.1,3.8-2.5,5.8-4.2c1.9-1.8,3.7-3.7,5.3-5.7c1.6-2.1,2.9-4.1,3.8-6.1c1-2,1.4-3.8,1.4-5.4c0-2.4-1.2-3.6-3.6-3.6
		c-2.1,0-4.2,0.6-6.2,1.9c-2,1.3-4,3-5.9,5.1c-1.9,2.1-3.6,4.5-5.3,7c-1.7,2.6-3.2,5.1-4.6,7.8c0.5-0.5,0.9-0.7,1.4-0.7
		c0.7,0,1.1,0.3,1.1,1c0,0.3-0.1,0.7-0.4,1c-0.1,0.2-0.2,0.3-0.3,0.6c-0.1,0.2-0.2,0.5-0.2,1C403.3,144.1,404.1,144.7,405.7,144.7z
		 M452.2,146.8c-0.4,0-0.9-0.2-1.3-0.6c-0.4-0.4-0.6-0.7-0.6-1.1c0-0.4,0.1-0.8,0.2-1.3c0.2-0.4,0.3-0.9,0.6-1.5
		c3.2-9.8,7.4-19,12.7-27.6c6.6-10.8,11.8-17.8,15.5-21c1-0.9,1.7-1.4,2-1.6c0.4-0.3,0.7-0.4,1-0.4c1.3,0,1.9,0.6,1.9,1.7
		c0,0.6,0,1.7-0.1,3.3c-0.1,1.5-0.1,3.4-0.1,5.6c0,4.6,0.5,10.1,1.4,16.6c0.9,6.5,2.3,13.3,4.2,20.6c3.6-5,6.8-9.5,9.5-13.5
		c2.7-4.1,5.1-8,7.1-11.7c1.5-2.7,3-5.4,4.6-8.3c1.6-2.9,3.1-5.7,4.4-8.4c1.4-2.7,2.5-5,3.3-7.1c0.9-2.1,1.3-3.7,1.3-4.8
		c0-0.7,0.3-1.1,1-1.1c1.1,0,1.6,0.5,1.6,1.5c0,1.5-0.5,3.4-1.4,5.7c-0.9,2.2-2.2,5-4.1,8.5c-1.9,3.5-4.3,7.9-7.3,13.3
		c-2.4,4.4-4.5,8.1-6.4,11.1c-1.8,3-3.7,5.9-5.8,8.8c-0.9,1.1-1.9,2.6-3,4.3c-1.2,1.7-2.5,3.7-4.1,6.1c-0.4,0.6-0.9,1-1.4,1
		c-0.4,0-0.7-0.1-1-0.4c-0.2-0.3-0.4-0.7-0.6-1.4c-0.9-2.9-1.8-6.2-2.6-9.7c-0.7-3.6-1.4-7.2-2-11c-0.6-3.7-1-7.4-1.4-10.9
		c-0.3-3.6-0.5-6.9-0.5-9.8V96c-4.3,4.2-9.3,10.9-14.8,20.2c-3,5-5.6,9.9-7.6,14.6c-2,4.6-3.7,9.3-5.1,14.1
		C453.1,146.1,452.7,146.8,452.2,146.8z M522.6,142.2c-4.3,0-6.5-2.4-6.5-7.3c0-2.2,0.5-4.6,1.6-7c1.1-2.5,2.5-4.7,4.2-6.8
		c1.8-2.1,3.7-3.9,5.8-5.2c2.2-1.3,4.4-2,6.6-2c2,0,3.4,0.7,4.3,2.2c0.9,1.5,1.4,3.1,1.4,5c0,2.4-0.5,4.9-1.4,7.4
		c-1,2.5-2.3,4.7-3.9,6.8c-1.7,2.1-3.5,3.8-5.6,5C527.1,141.6,524.9,142.2,522.6,142.2z M522.5,139.7c0.3,0,0.5,0,0.6-0.1
		c2.1-0.3,4-1,5.8-2.2c1.8-1.2,3.3-2.7,4.6-4.6c1.3-1.9,2.3-3.9,3-6c0.7-2.1,1-4.2,1-6.3c0-1.2-0.3-2.2-1-2.9c-0.7-0.7-1.6-1-2.6-1
		c-1.5,0-3.2,0.6-5,1.9c-1.7,1.3-3.3,2.9-4.9,4.9c-1.5,2-2.7,4.1-3.7,6.2c-1,2.1-1.4,4.1-1.4,5.8
		C518.8,138.2,520.1,139.7,522.5,139.7z M571.1,144.2c-1.3,0-2.4-0.5-3.1-1.6c-0.7-1.1-1.1-2.4-1.1-4c0-0.4,0-1.1,0.1-1.9
		c0.1-0.9,0.1-1.8,0.2-2.8c0.1-1,0.2-1.9,0.2-2.6c0.1-0.8,0.1-1.3,0.2-1.4l-0.1-0.3c-0.5,0.7-1.1,1.6-2,2.7
		c-0.8,1.1-1.7,2.3-2.6,3.4c-0.9,1.1-1.6,2.1-2.3,3c-1.1,1.3-2.3,2.4-3.7,3.1s-2.6,1.1-3.7,1.1c-1.3,0-2.5-0.7-3.4-2
		c-0.9-1.4-1.4-3.4-1.4-5.9c0-2.5,0.4-5.2,1.2-8.2l-2.5,2.9c-0.4,0.4-0.7,0.7-1,1c-0.3,0.2-0.5,0.3-0.8,0.3c-0.3,0-0.5-0.1-0.8-0.3
		c-0.2-0.3-0.3-0.6-0.3-1c0-0.4,0.1-0.7,0.4-1c0.5-0.6,1.1-1.3,1.8-2.2c0.7-1,1.6-2.1,2.6-3.3c0.8-1.1,2.1-3.2,4-6.2
		c0.3-0.5,0.7-0.8,1.3-0.8c0.9,0,1.4,0.4,1.4,1.3c0,0.3-0.1,0.6-0.4,1.1c-0.3,0.4-0.6,1.3-1.1,2.5c-1,2.5-1.7,5-2.2,7.4
		c-0.5,2.4-0.8,4.8-0.8,7.1c0,2,0.1,3.4,0.4,4c0.3,0.6,0.7,0.9,1.2,0.9c1.7,0,3.8-1.3,6.2-3.8c0.7-0.7,1.7-2,3.1-3.8
		c1.4-1.8,2.8-3.9,4.3-6.3c1.5-2.5,2.7-5,3.5-7.5l1.2-3.5c0.2-0.5,0.5-0.7,1-0.7c1,0,1.4,0.5,1.4,1.4c0,0.3-0.3,1.2-0.9,2.6
		c-0.6,1.3-1.2,3.4-1.8,6.3c-0.4,1.8-0.7,3.7-1,5.8c-0.3,2-0.4,4-0.4,5.8c0,3.6,0.6,5.4,1.8,5.4c1,0,2.2-0.5,3.7-1.5
		c1.5-1,3.1-2.3,4.7-3.8s3.1-3.1,4.5-4.8c1.2-1.4,2.5-3.1,3.8-5c1.3-1.9,2.3-3.7,3.2-5.6c0.9-1.9,1.4-3.6,1.4-5
		c0-1.4-0.4-2.3-1.1-2.7c-0.1-0.1-0.8-0.2-2.2-0.3c-0.7-0.1-1.1-0.5-1.1-1.3c0-0.9,0.4-1.3,1.3-1.3c1.7,0,3.1,0.5,4.1,1.4
		c1.1,1,1.6,2.3,1.6,3.9c0,4.5-3,10.3-9,17.4C580,140.6,575,144.2,571.1,144.2z M599.9,131.9c-0.9,0-1.3-0.4-1.3-1.3
		c0-1.4,1.4-4.2,4.1-8.4l5.5-8.2l4.6-6.6c1-1.5,1.8-2.9,2.4-4c0.6-1.2,0.9-2.1,1-2.9l0.3-2.1c0.3-0.9,0.7-1.4,1.3-1.4
		c0.9,0,1.4,0.5,1.4,1.4c0,1.8-1.2,4.7-3.5,8.7c-0.3,0.5-0.8,1.3-1.5,2.4c-0.7,1.1-1.8,2.8-3.4,5.1c-1.5,2.2-3.7,5.4-6.4,9.4
		c-0.3,0.4-0.6,0.9-1,1.4c-0.3,0.6-0.7,1.3-1.1,2c-0.2,0.5-0.4,1-0.6,1.4c-0.2,0.5-0.3,0.9-0.5,1.4
		C601,131.4,600.6,131.9,599.9,131.9z M597.1,143.3c-1.4,0-2.1-0.7-2.1-2c0-1.4,0.7-2.2,2-2.2c1.4,0,2.1,0.7,2.1,2
		C599.1,142.6,598.4,143.3,597.1,143.3z"/>
</g>
</svg>
