<?xml version="1.0" encoding="utf-8"?>
<!-- Generator: Adobe Illustrator 23.0.3, SVG Export Plug-In . SVG Version: 6.00 Build 0)  -->
<svg version="1.1" id="Layer_1" xmlns="http://www.w3.org/2000/svg" xmlns:xlink="http://www.w3.org/1999/xlink" x="0px" y="0px"
	 viewBox="0 0 223 80" style="enable-background:new 0 0 223 80;" xml:space="preserve">
<style type="text/css">
	.st0{fill:url(#SVGID_1_);}
</style>
<g>
	
		<linearGradient id="SVGID_1_" gradientUnits="userSpaceOnUse" x1="111.2647" y1="64.8062" x2="111.2647" y2="-9" gradientTransform="matrix(1 0 0 -1 0 82)">
		<stop  offset="0" style="stop-color:#FF68D5"/>
		<stop  offset="0.5099" style="stop-color:#F3A7FF"/>
		<stop  offset="1" style="stop-color:#FF33AD"/>
	</linearGradient>
	<path class="st0" d="M6,75.2c-1.3,0-2-0.6-2-1.9c0-0.3,0.1-0.8,0.4-1.5c0.3-0.6,0.8-1.4,1.4-2.5l5.6-10.4c3-5.4,5.6-10.4,7.8-14.9
		c2.3-4.6,4.2-8.7,5.9-12.2c4.9-11.2,7.4-19.6,7.4-25.4c0-0.4,0.3-0.8,0.8-1.4c0.6-0.5,1.1-0.8,1.7-0.8c0.8,0,1.2,0.8,1.2,2.3
		c0,4.2-1.5,10.7-4.6,19.3c-1.2,3.3-2.5,6.4-3.8,9.5c-1.3,3.1-2.7,6-4.1,8.9c2.8-3.4,5.7-6.7,8.7-9.9c3-3.2,6.1-6.3,9.4-9.3
		c9.7-9.1,16.7-13.6,21.2-13.6c2.8,0,4.2,1.8,4.2,5.5c0,3.9-1.9,11-5.8,21.2c-5,12.8-7.7,20.2-8.2,22.1C67.9,42.1,83,29,98.3,20.8
		c2.1-1.1,4.3-2.2,6.6-3.2c2.4-1.1,4.1-1.7,5.4-1.7c1.8,0,2.7,1.1,2.7,3.3c0,1.1-0.2,2.4-0.6,4s-1,3.3-2,5.2l-9,19.1
		c-0.8,1.8-1.8,3.9-2.8,6.1c-1,2.2-1.9,4.4-2.8,6.7c-0.8,2.2-1.6,4.1-2.2,5.9c-0.6,1.7-0.9,3-0.9,3.9c0,1,0.4,1.6,1.3,1.6
		c1.3,0,2.9-0.8,4.9-2.4c2-1.6,4.2-3.6,6.5-6c0.3-0.4,0.8-0.8,1.3-1.4c0.6-0.5,1.1-0.8,1.6-0.8c1,0,1.6,0.6,1.6,1.8
		c0,0.2-0.1,0.4-0.2,0.7c-0.1,0.2-0.4,0.5-0.9,1c-0.8,0.8-1.7,1.7-2.5,2.5c-0.8,0.8-1.6,1.6-2.4,2.3c-1.7,1.4-3.5,2.7-5.4,3.8
		c-1.8,1.2-3.6,1.8-5.3,1.8c-2.7,0-4-1.5-4-4.5c0-1.8,0.7-4.7,2-8.5c1.3-3.9,3.3-8.7,6-14.6L107.3,25c0.7-1.5,1.2-2.5,1.4-3.1
		c0.2-0.7,0.3-1.1,0.3-1.4c0-0.4-0.2-0.6-0.5-0.6c-0.1,0-0.5,0.1-1.1,0.3c-0.5,0.1-1.5,0.5-2.8,1.2c-4,1.8-8.4,4.3-13.1,7.3
		c-4.8,3.1-9.2,6.4-13.3,10c-3.3,2.9-6.3,5.6-8.9,8.2c-2.6,2.6-5.2,5.3-7.6,8.1c-2.5,2.8-5.2,6-8.2,9.6c-0.8,1-1.4,1.7-1.8,2.1
		c-0.3,0.3-0.8,0.5-1.6,0.5c-1.1,0-1.7-0.6-1.7-1.8c0-1.2,0.3-2.9,0.8-4.9c0.5-2,1.2-4.1,2-6.2L58.3,35c1.8-4.8,3.1-8.7,3.9-11.9
		c0.8-3.1,1.3-5.5,1.3-7.1c0-1.3-0.6-2-1.7-2c-2.2,0-7,3.5-14.6,10.4c-2.6,2.4-5.1,4.7-7.3,7c-2.3,2.2-4.4,4.4-6.3,6.5
		c-2.5,2.7-4.9,5.4-7,7.8c-2.1,2.5-4.1,5.1-6.1,7.7c-1.9,2.6-3.9,5.5-5.9,8.7c-2,3.2-4.2,6.9-6.6,11.2C7.5,74.6,6.8,75.2,6,75.2z
		 M140.8,31.4c-1.1,0-1.7-0.6-1.7-1.7c0-0.3,0.2-0.9,0.7-1.8c0.5-0.9,1-1.8,1.6-2.7c0.6-0.9,1-1.5,1.4-1.9c1.1-1.2,2-2,2.5-2.4
		c0.7-0.3,1.2-0.5,1.8-0.5c1.4,0,2.1,0.6,2.1,1.9c0,0.5-0.3,1-0.9,1.7c-0.5,0.6-1.1,1.1-1.9,1.7c-1,0.7-1.7,1.2-2,1.6l-2.2,3
		c-0.1,0.3-0.2,0.5-0.5,0.8C141.6,31.3,141.3,31.4,140.8,31.4z M124.2,71.1c-1.8,0-3.2-0.4-4-1.1c-0.8-0.7-1.2-1.8-1.2-3.2
		c0-1.4,0.4-3.2,1.3-5.6c0.8-2.4,1.9-5,3.2-7.7c1.4-2.7,2.8-5.4,4.3-7.8c1.5-2.5,2.9-4.5,4.3-6.1c1.4-1.6,2.6-2.5,3.4-2.5
		c1.2,0,1.8,0.5,1.8,1.6c0,0.7-0.6,1.9-1.7,3.7c-1.1,1.8-2.3,3.7-3.6,5.7c-0.5,0.7-1.2,1.7-2.2,2.9c-0.9,1.2-1.8,2.4-2.6,3.5
		c-0.8,1-1.4,1.8-1.7,2.2c-0.7,1-1.3,2.6-2.1,4.8c-0.8,2.2-1.2,3.9-1.2,5.1c0,0.5,0.1,0.9,0.3,1.2c0.3,0.3,0.8,0.4,1.7,0.4
		c1.6,0,3.5-0.5,5.5-1.6c2-1,4.1-2.4,6.2-3.9c2.1-1.6,4.1-3.3,5.9-5c1.9-1.7,3.5-3.2,4.8-4.4c0.3-0.3,0.7-0.4,1.2-0.4
		c1,0,1.5,0.4,1.5,1.2c0,0.7-0.5,1.5-1.4,2.4c-1.8,1.8-3.4,3.3-4.9,4.7c-1.5,1.4-2.9,2.6-4.3,3.6c-2.2,1.6-4.5,3-7.2,4.3
		C128.9,70.4,126.4,71.1,124.2,71.1z M140.2,72.4c-1,0-1.6-0.4-1.6-1.3c0-0.3,0.1-0.7,0.4-1.2c0.3-0.5,0.5-0.9,0.7-1.3l8.8-17.7
		c3.8-7.7,5.7-12,5.7-12.8c0-0.9,0.5-1.4,1.4-1.4c1.2,0,1.9,0.7,1.9,2c0,0.5-0.3,1.4-0.9,2.9s-1.3,3.2-2.3,5.1
		c-1.6,3.4-2.9,6-3.9,7.8c2-2.3,4-4.4,6-6.5s4.1-4,6.2-5.8c6.2-5.4,11-8.1,14.3-8.1c2.3,0,3.4,1.1,3.4,3.2c0,2-1.7,6.4-5,13.2
		c-3.3,6.9-5,11.3-5,13.1c0,0.8,0.3,1.3,0.9,1.3c0.2,0,0.5-0.1,0.9-0.2c0.5-0.2,0.9-0.3,1.4-0.3c1.1,0,1.7,0.5,1.7,1.6
		c0,1.3-1.4,2-4.2,2c-1.3,0-2.3-0.3-2.8-0.9c-0.6-0.7-0.9-1.5-0.9-2.5c0-3.1,1.6-7.9,4.8-14.3c3.2-6.3,4.8-10.2,4.8-11.5
		c0-0.8-0.3-1.2-0.9-1.2c-1.4,0-3.8,1.2-7,3.6c-3.5,2.6-6.9,5.6-10.4,9c-3.5,3.4-6.8,7.3-9.9,11.7l-6.9,9.5
		C141.4,72.2,140.9,72.4,140.2,72.4z M182.7,76.8c-1.2,0-1.9-1-1.9-2.9c0-2.9,1.6-7.9,4.8-15.1c3.3-7.2,8.1-16.6,14.5-28.2
		c-2.5,0-4.8,0.3-7.1,1c-2.2,0.6-3.3,1.3-3.4,2.3c-0.1,0.3-0.2,0.5-0.5,0.8c-0.2,0.2-0.5,0.3-1,0.3c-1,0-1.6-0.5-1.6-1.6
		c0-1.7,1.3-3.1,4-4.2c2.7-1.1,6.4-1.7,11.3-1.7l6.8-11.2c0.5-0.7,0.9-1.5,1.5-2.4c0.5-0.9,1.1-1.9,1.8-2.9c0.7-0.9,1.4-1.4,2.3-1.4
		c0.5,0,0.9,0.2,1.2,0.5c0.3,0.3,0.4,0.6,0.4,0.9c0,1-1.4,3.6-4.3,7.8c-3.6,5.3-5.5,8.2-5.8,8.6c1,0,2.5,0.1,4.4,0.3
		c2,0.1,4.3,0.4,7,0.7c1,0.1,1.5,0.6,1.5,1.5c0,1-0.6,1.6-1.8,1.6c-0.5,0-1.4-0.1-2.7-0.2c-1.4-0.2-2.8-0.4-4.4-0.5
		c-1.6-0.1-2.9-0.2-4-0.1l-1.5,0.1c-13.3,23.3-19.9,37.8-19.8,43.5l0.1,0.8v0.2C184.4,76.2,183.8,76.8,182.7,76.8z"/>
</g>
</svg>
