<svg width="30" height="31" viewBox="0 0 30 31" fill="none" xmlns="http://www.w3.org/2000/svg">
<path fill-rule="evenodd" clip-rule="evenodd" d="M30 15.5234C30 23.8072 23.2838 30.5234 15 30.5234C6.7162 30.5234 0 23.8072 0 15.5234C0 7.23964 6.7162 0.523438 15 0.523438C23.2855 0.523438 30 7.23964 30 15.5234ZM7.40037 16.0274L7.4651 15.9257L11.3672 9.8214C11.4242 9.732 11.5583 9.74127 11.6014 9.83834C12.2533 11.2993 12.8158 13.1163 12.5523 14.2475C12.4398 14.7129 12.1316 15.3432 11.7848 15.9257C11.7401 16.0105 11.6908 16.0937 11.6384 16.1739C11.6138 16.2108 11.5722 16.2324 11.5275 16.2324H7.5144C7.40653 16.2324 7.34337 16.1153 7.40037 16.0274ZM24.7933 18.128V17.1617C24.7933 17.0723 24.707 17.0076 24.6223 17.0323L20.059 18.3515C20.0344 18.3576 20.0128 18.3715 19.9959 18.39C19.507 18.93 19.0916 19.2923 18.9816 19.3882L18.9741 19.3948C18.6905 19.6352 18.3392 19.7662 17.9693 19.7662H16.3172V18.0818H17.6303C17.6642 18.0818 17.6965 18.0694 17.7212 18.0479L17.8907 17.8922C17.9631 17.8259 18.0494 17.7458 18.1527 17.6425C18.1614 17.6338 18.1702 17.6251 18.1791 17.6162C18.2334 17.5621 18.2915 17.5042 18.3484 17.4407C18.4162 17.3744 18.4825 17.3004 18.5441 17.228C18.6474 17.117 18.746 17.0014 18.8493 16.8797C18.9232 16.7996 18.9911 16.7086 19.0573 16.6177C19.1313 16.5314 19.2037 16.4343 19.2715 16.3419C19.2967 16.305 19.3234 16.2677 19.3507 16.2296C19.377 16.1928 19.4038 16.1554 19.4303 16.1168C19.4796 16.0429 19.5289 15.9643 19.5705 15.8903C19.7 15.69 19.8094 15.4757 19.9019 15.2615C19.9442 15.1699 19.9781 15.0735 20.0111 14.9797C20.0152 14.9678 20.0194 14.9559 20.0236 14.9441C20.0606 14.8346 20.0914 14.7314 20.1145 14.622C20.17 14.3646 20.1823 14.1088 20.1577 13.853C20.1515 13.7728 20.1453 13.6942 20.1269 13.6202V13.6079C20.1207 13.5555 20.1084 13.497 20.0914 13.443C20.0359 13.1934 19.9496 12.9437 19.8402 12.6987C19.8032 12.6077 19.7601 12.5153 19.7185 12.4305C19.6198 12.2471 19.5166 12.0637 19.3995 11.8865C19.3759 11.849 19.3499 11.8111 19.324 11.7732C19.304 11.744 19.2841 11.715 19.2654 11.6862C19.1911 11.5716 19.1076 11.4612 19.0267 11.3541C19.0085 11.3301 18.9904 11.3062 18.9726 11.2824C18.9248 11.2196 18.8724 11.1569 18.8198 11.0937C18.791 11.0591 18.762 11.0245 18.7337 10.9896C18.6536 10.8925 18.575 10.8 18.4948 10.7091C18.2082 10.3855 17.9077 10.0926 17.6395 9.843C17.5902 9.79367 17.5362 9.74437 17.4808 9.69657C17.2727 9.50704 17.0832 9.34214 16.9244 9.2142C16.8766 9.17742 16.8337 9.14118 16.7938 9.10745C16.7668 9.08467 16.7412 9.06303 16.7164 9.04314C16.6675 9.00672 16.6251 8.97446 16.5897 8.94748C16.5682 8.9311 16.5493 8.91667 16.533 8.90444C16.5207 8.8952 16.5068 8.88904 16.4929 8.8844L16.3172 8.8351V7.3803C16.3172 7.14297 16.2217 6.9303 16.0691 6.77464C15.9165 6.61897 15.7039 6.52344 15.4696 6.52344C15.0011 6.52344 14.622 6.90717 14.622 7.3803V8.36044L14.5342 8.33577L14.2953 8.26797L14.078 8.20787C14.0774 8.20787 14.0767 8.20761 14.076 8.2073C14.0749 8.20686 14.0736 8.20634 14.0718 8.20634H14.0672L12.4182 7.7594C12.3458 7.73937 12.2841 7.81797 12.3211 7.88424L12.5847 8.37124C12.5996 8.40872 12.6186 8.44621 12.6382 8.48473C12.6507 8.50955 12.6635 8.53481 12.6756 8.56077C12.7187 8.6471 12.7619 8.738 12.8035 8.82894C12.8405 8.90907 12.8775 8.98767 12.9206 9.07397C12.9388 9.11463 12.9573 9.15578 12.9761 9.19752C13.045 9.35039 13.1173 9.51114 13.1888 9.68427L13.1894 9.68574C13.2508 9.83165 13.3122 9.97758 13.366 10.1296C13.5139 10.5134 13.6542 10.9233 13.7759 11.344C13.8062 11.4381 13.8304 11.5291 13.8549 11.6213C13.8654 11.6606 13.8759 11.7001 13.8869 11.7401L13.9038 11.8141C13.9532 12.0098 13.9963 12.204 14.0271 12.3997C14.0518 12.5338 14.0749 12.6617 14.0872 12.7911L14.0872 12.7912C14.1057 12.9376 14.1242 13.0839 14.1304 13.2303C14.1427 13.3644 14.1489 13.5047 14.1489 13.6387C14.1489 13.9809 14.1181 14.3107 14.0456 14.622C14.0411 14.6386 14.0366 14.6555 14.0321 14.6724C14.0117 14.7483 13.9907 14.8269 13.9655 14.9025C13.9427 14.9835 13.9131 15.0646 13.8823 15.1488C13.8716 15.1782 13.8607 15.2081 13.8499 15.2384L13.8446 15.2527C13.8217 15.3145 13.7984 15.3773 13.7698 15.4388C13.6172 15.8055 13.4276 16.1708 13.2319 16.5129C12.9453 17.0199 12.6571 17.4653 12.4552 17.752C12.4429 17.7704 12.4309 17.7879 12.4194 17.8048C12.4049 17.826 12.391 17.8463 12.3782 17.866C12.315 17.9554 12.3797 18.0818 12.4891 18.0818H14.622V19.7662H12.4645C11.885 19.7662 11.3487 19.4379 11.0898 18.9124C10.9557 18.6489 10.9033 18.3592 10.9341 18.0756C10.9418 17.9908 10.8786 17.9107 10.7923 17.9107H6.4341C6.3601 17.9107 6.3 17.9708 6.3 18.0448V18.1342C6.3 20.9143 8.5454 23.1674 11.3163 23.1674H19.1344C20.5999 23.1674 21.432 21.832 22.2499 20.5194C22.4779 20.1535 22.7048 19.7894 22.944 19.4564C23.374 18.8585 24.4081 18.3838 24.7101 18.2544C24.7594 18.2328 24.7933 18.1835 24.7933 18.128Z" fill="white"/>
</svg>
