<svg width="27" height="31" viewBox="0 0 27 31" fill="none" xmlns="http://www.w3.org/2000/svg">
<path d="M2.61917 1.01573L25.8243 14.5528C25.9906 14.6502 26.1286 14.7893 26.2244 14.9565C26.3202 15.1237 26.3707 15.313 26.3707 15.5057C26.3707 15.6984 26.3202 15.8877 26.2244 16.0549C26.1286 16.2221 25.9906 16.3613 25.8243 16.4586L2.61917 29.9957C2.45105 30.0938 2.25997 30.1457 2.06531 30.1462C1.87066 30.1467 1.67933 30.0957 1.51074 29.9984C1.34214 29.9011 1.20227 29.7609 1.10529 29.5921C1.00831 29.4233 0.957669 29.2319 0.958506 29.0373V1.96973C0.958449 1.77545 1.00965 1.58459 1.10695 1.41642C1.20425 1.24826 1.3442 1.10875 1.51266 1.01197C1.68112 0.915195 1.87214 0.864581 2.06642 0.865241C2.2607 0.8659 2.45137 0.91781 2.61917 1.01573Z" fill="#6F0B2F"/>
</svg>
