<?xml version="1.0" encoding="utf-8"?>
<!-- Generator: Adobe Illustrator 23.0.3, SVG Export Plug-In . SVG Version: 6.00 Build 0)  -->
<svg version="1.1" id="Layer_1" xmlns="http://www.w3.org/2000/svg" xmlns:xlink="http://www.w3.org/1999/xlink" x="0px" y="0px"
	 viewBox="0 0 357 104" style="enable-background:new 0 0 357 104;" xml:space="preserve">
<style type="text/css">
	.st0{fill:url(#SVGID_1_);}
</style>
<g>
	
		<linearGradient id="SVGID_1_" gradientUnits="userSpaceOnUse" x1="178.0261" y1="89.8062" x2="178.0261" y2="16" gradientTransform="matrix(1 0 0 -1 0 110)">
		<stop  offset="0" style="stop-color:#FF68D5"/>
		<stop  offset="0.5099" style="stop-color:#F3A7FF"/>
		<stop  offset="1" style="stop-color:#FF33AD"/>
	</linearGradient>
	<path class="st0" d="M6.5,75.8c-1.3,0-2-0.6-2-1.7c0-0.9,1.7-4.9,5.2-12c2.9-5.8,5-10,6.5-12.6c-0.7-0.3-1-0.8-1-1.6
		c0-0.6,0.3-1,1-1.4c0.7-0.3,1.3-0.6,1.9-0.9c2.5-4.2,4.8-8,6.9-11.4c2.1-3.4,4-6.3,5.6-8.8c3.2-4.9,5.9-8.8,8.1-11.8
		c2.2-2.9,4-4.9,5.3-5.9c1-0.3,3.5-0.4,7.6-0.4c7.2,0,12.8,1.1,17,3.3c4.1,2.2,6.2,5,6.2,8.5c0,5.8-4.4,11.1-13.1,15.8
		c-5.7,3.1-12.8,5.7-21.1,7.6c2.9,0.4,5.5,1.1,7.7,2.3c2.4,1,4.2,2.5,5.6,4.3c1.4,1.8,2.2,4,2.2,6.6c0,1.8-0.4,3.7-1.2,5.9
		C54.1,63.9,53.2,66,52,68c-1.2,2-2.4,3.7-3.7,5.2c-0.5,0.7-1.2,1-2.1,1c-1.1,0-1.7-0.4-1.7-1.1c0-0.3,0.2-0.6,0.6-1
		c0.4-0.5,0.8-1,1.3-1.7c0.6-0.8,1.3-2.1,2.2-3.7c0.9-1.6,1.6-3.4,2.3-5.3c0.7-1.9,1.1-3.7,1.1-5.3c0-2.6-0.8-4.7-2.4-6.4
		c-1.5-1.6-3.5-2.8-5.9-3.5c-2.4-0.8-5-1.2-7.6-1.2c-4.6,0-9.7,1-15.1,2.9c-1.6,3-3.2,6-4.8,8.9c-1.5,2.9-2.9,5.9-4.2,8.8
		c-0.5,1-1,2.4-1.7,3.9c-0.7,1.5-1.4,3.3-2.4,5.3C7.7,75.5,7.2,75.8,6.5,75.8z M23,44.3c2.2-0.7,4.1-1.1,5.5-1.3
		c1.5-0.3,3.2-0.5,5-0.7c0.3-0.1,1.2-0.3,2.7-0.8c1.6-0.5,3.8-1.2,6.6-2.1c3.3-1,6.2-2.1,8.9-3.2c2.7-1.1,5.1-2.2,7.2-3.3
		c7.8-4.2,11.8-8.8,11.8-13.5c0-1.6-0.7-2.9-2-4c-1.2-1.1-2.9-2-4.9-2.6c-2-0.7-4.1-1.2-6.4-1.6c-2.3-0.3-4.4-0.5-6.4-0.5
		c-1,0-2,0.1-2.8,0.2c-0.8,0.1-1.6,0.2-2.4,0.3c-3.4,4-6.8,8.3-10.1,13c-3.3,4.6-6.1,9.1-8.6,13.3c-1.2,2-2,3.5-2.5,4.4
		C24.1,42.8,23.5,43.6,23,44.3z M78.9,72.5c-5.3,0-7.9-3-7.9-8.9c0-2.7,0.7-5.6,2-8.6c1.3-3,3-5.8,5.2-8.3c2.2-2.6,4.5-4.7,7.2-6.4
		c2.7-1.6,5.4-2.4,8.1-2.4c2.4,0,4.2,0.9,5.3,2.7c1.1,1.8,1.7,3.9,1.7,6.1c0,2.9-0.6,5.9-1.8,9c-1.2,3-2.8,5.8-4.8,8.3
		c-2,2.5-4.3,4.6-6.9,6.2C84.4,71.7,81.7,72.5,78.9,72.5z M78.8,69.4c0.4,0,0.6,0,0.7-0.1c2.5-0.3,4.9-1.2,7.1-2.7
		c2.2-1.5,4-3.4,5.6-5.6c1.6-2.3,2.9-4.7,3.7-7.4c0.9-2.6,1.3-5.2,1.3-7.7c0-1.5-0.4-2.7-1.3-3.5c-0.8-0.8-1.9-1.3-3.2-1.3
		c-1.9,0-3.9,0.8-6.1,2.4c-2.1,1.6-4.1,3.6-6,6c-1.8,2.4-3.3,5-4.5,7.6c-1.2,2.6-1.8,5-1.8,7.1C74.3,67.6,75.8,69.4,78.8,69.4z
		 M107.8,74c-3.8,0-5.7-1.8-5.7-5.4c0-2.4,0.6-4.9,1.7-7.5c1.2-2.7,2.7-5.4,4.7-7.9c2-2.6,4.1-5,6.6-7.1c2.4-2.2,4.9-3.9,7.4-5.1
		c2.5-1.3,5-2,7.4-2c4.2,0,6.3,2.1,6.3,6.2c0,2.7-0.7,4-2,4c-1.2,0-1.8-0.6-1.8-1.7c0-0.5,0.1-0.9,0.3-1.4c0.3-0.5,0.4-1.1,0.4-1.7
		c0-1.8-1.2-2.7-3.7-2.7c-4,0-9,3-15,9.1c-1.4,1.5-2.8,3.3-4.2,5.3c-1.4,2-2.5,4.1-3.4,6.2c-0.8,2-1.3,4-1.3,5.8
		c0,1.8,1,2.6,2.9,2.6c1.7,0,3.5-0.5,5.4-1.6c2-1,3.7-2.1,5.1-3.2c2.9-2.2,5.8-5.1,8.8-8.8c0.5-0.5,1-1.2,1.8-2.1
		c0.7-0.8,1.5-1.8,2.4-2.8c0.3-0.3,0.7-0.5,1.2-0.5c1,0,1.6,0.5,1.6,1.6l-3.7,5.6c-2.5,3.7-3.7,6.7-3.7,9c0,1.7,0.8,2.5,2.5,2.5
		c1.4,0,2.9-0.4,4.5-1.1c1.6-0.7,3-1.4,4-2.2c2.1-1.4,4.3-3.1,6.6-5.1c2.3-2.1,4.5-4.2,6.6-6.3c0.3-0.3,0.7-0.4,1.2-0.4
		c1,0,1.5,0.4,1.5,1.2c0,0.7-0.5,1.5-1.4,2.4c-2.6,2.6-5,4.9-7.1,6.8c-2.1,1.8-4.1,3.3-6,4.5c-1.2,0.7-2.8,1.5-4.6,2.3
		s-3.9,1.2-6.3,1.2c-3.2,0-4.8-1.7-4.8-5.1c0-1.3,0.2-2.4,0.5-3.2C118.4,71.1,112.9,74,107.8,74z M179.7,81.7c-0.5,0-1.2-0.3-2-0.8
		c-0.7-0.5-1.3-0.9-1.7-1.4c-0.8-1-1.3-2.2-1.6-3.5c-0.3-1.4-0.4-2.9-0.4-4.5c0-1.4,0-2.8,0.1-4.4c0.1-1.6,0.3-3.4,0.6-5.2
		c-1.7,2-3.6,3.9-5.8,5.8c-2.1,1.8-4.2,3.3-6.5,4.5c-2.2,1.2-4.2,1.8-6.2,1.8c-4.9,0-7.3-2.6-7.3-7.8c0-5.4,1.9-10.6,5.7-15.7
		c1.9-2.5,4.1-4.9,6.5-7.2s5-4.1,7.6-5.6c2.7-1.4,5.3-2.2,7.9-2.2c2,0,3.7,0.8,5.2,2.3c0.1-0.3,0.3-0.7,0.5-1.3
		c0.3-0.6,0.6-1.3,1.1-2.3c1.6-3.4,3.3-6.9,5.2-10.6c1.9-3.7,3.6-6.8,5.1-9.2c1.7-2.7,3.3-4,4.8-4c1,0,1.6,0.8,1.6,2.5
		c0,2.8-2.6,9.4-7.9,19.7c-0.3,0.6-0.9,1.7-1.8,3.2c-0.8,1.5-1.7,3.3-2.8,5.3c-1,2-2.1,3.9-3.2,5.9s-2.1,3.7-3,5.3
		c-0.8,1.5-1.5,2.5-1.9,3.1c-0.7,2.9-1.3,5.7-1.7,8.4c-0.4,2.6-0.6,5.3-0.6,8.1c0,1,0,2,0.1,2.8c0.1,0.9,0.4,1.6,0.8,2.2
		c0.3,0.4,0.7,0.7,1.1,0.9c0.4,0.3,0.8,0.5,1.4,0.7c0.8,0.2,1.2,0.7,1.2,1.4C181.8,81.1,181.1,81.7,179.7,81.7z M184.4,40.8
		c2.5-4.2,4.7-8.2,6.6-11.9c1.9-3.7,3.4-7.2,4.6-10.5c-2.6,3.4-4.8,7-6.6,10.8S185.7,36.8,184.4,40.8z M155.7,71
		c1.9,0,3.9-0.6,6-1.9c2.2-1.3,4.2-2.8,6.1-4.6c1.7-1.6,3.3-3.2,4.7-4.8c1.4-1.7,2.8-3.4,4-5.2c0.5-2.3,1.1-4.5,1.8-6.8
		c0.7-2.2,1.5-4.4,2.4-6.7c-1-1.6-2.5-2.5-4.4-2.5c-2,0-4.1,0.8-6.6,2.3c-2.4,1.4-4.6,3.2-6.9,5.4c-2.2,2.2-4,4.2-5.6,6.2
		c-3.3,4.4-4.9,9-4.9,13.9C152.3,69.5,153.4,71,155.7,71z M185.7,76.3c-1.1,0-1.7-0.5-1.7-1.6c0-0.1,0.4-0.9,1.2-2.5
		c0.8-1.6,1.9-3.9,3.3-7l5-10.5c2-4.2,3.5-7.6,4.3-10.1c0.9-2.5,1.4-4.1,1.4-4.8c0-1,0.5-1.6,1.6-1.6c1,0,1.6,0.5,1.6,1.6
		c0,0.8-0.3,2.2-0.9,4c-0.5,1.8-1.4,4.1-2.6,6.9l-5,11.4c13.7-17.2,23.9-25.9,30.9-25.9c1.3,0,2.3,0.6,3,1.7c0.7,1,1.1,2.2,1.1,3.5
		c0,3.1-2.3,8.6-6.8,16.4c3.5-3.5,7-7.1,10.5-10.6c3.6-3.6,7.2-7.1,10.8-10.6c0.9-0.8,1.7-1.3,2.3-1.3c0.8,0,1.4,0.4,2,1.2
		c0.5,0.7,0.8,1.5,0.8,2.4c0,0.7-0.3,1.5-0.9,2.4c-0.8,1.4-1.6,3.2-2.4,5.2c-0.7,2-1.5,4.2-2.4,6.7c-1,2.8-1.8,5.3-2.3,7.3
		c-0.5,2.1-0.7,3.8-0.7,5.1c0,1.6,0.4,2.8,1.2,3.6c0.8,0.7,1.6,1.1,2.4,1.1c1.4,0,2.9-0.4,4.5-1.1c1.6-0.7,3-1.4,4-2.2
		c2.1-1.4,4.3-3.1,6.6-5.1c2.3-2.1,4.5-4.2,6.6-6.3c0.3-0.3,0.7-0.4,1.2-0.4c1,0,1.5,0.4,1.5,1.2c0,0.7-0.5,1.5-1.4,2.4
		c-2.6,2.6-5,4.9-7.1,6.8c-2.1,1.8-4.1,3.3-6,4.5c-1.2,0.7-2.7,1.5-4.5,2.3c-1.8,0.8-3.7,1.2-5.7,1.2c-1.9,0-3.5-0.6-4.8-1.8
		c-1.2-1.2-1.9-3.7-1.9-7.5c0-1.5,0.3-3.3,0.8-5.3c0.5-2.1,1.3-4.4,2.4-7l5.2-12.3l-14,14.1c-1.6,1.6-3,3-4,4.1
		c-1,1.1-1.9,2-2.5,2.7c-1.2,1.3-2.4,2.6-3.3,3.8c-0.9,1.2-1.7,2.3-2.4,3.2c-0.5,0.7-1,1.1-1.6,1.1c-1.1,0-1.7-0.5-1.7-1.4
		c0-2,1.8-6.7,5.5-14c3.7-7.3,5.5-11.7,5.5-13.1c0-0.7-0.7-1-2.2-1c-5.8,0-16.2,9.5-31.1,28.5c-1.2,1.8-3.3,4.4-6.2,7.9
		C186.5,76.2,186.2,76.3,185.7,76.3z M265.9,74c-3.8,0-5.7-1.8-5.7-5.4c0-2.4,0.6-4.9,1.7-7.5c1.2-2.7,2.7-5.4,4.7-7.9
		c2-2.6,4.1-5,6.6-7.1c2.4-2.2,4.9-3.9,7.4-5.1c2.5-1.3,5-2,7.4-2c4.2,0,6.3,2.1,6.3,6.2c0,2.7-0.7,4-2,4c-1.2,0-1.8-0.6-1.8-1.7
		c0-0.5,0.1-0.9,0.3-1.4c0.3-0.5,0.4-1.1,0.4-1.7c0-1.8-1.2-2.7-3.7-2.7c-4,0-9,3-15,9.1c-1.4,1.5-2.8,3.3-4.2,5.3
		c-1.4,2-2.5,4.1-3.4,6.2c-0.8,2-1.3,4-1.3,5.8c0,1.8,1,2.6,2.9,2.6c1.7,0,3.5-0.5,5.4-1.6c2-1,3.7-2.1,5.1-3.2
		c2.9-2.2,5.8-5.1,8.8-8.8c0.5-0.5,1-1.2,1.8-2.1c0.7-0.8,1.5-1.8,2.4-2.8c0.3-0.3,0.7-0.5,1.2-0.5c1,0,1.6,0.5,1.6,1.6l-3.7,5.6
		c-2.5,3.7-3.7,6.7-3.7,9c0,1.7,0.8,2.5,2.4,2.5c1.4,0,2.9-0.4,4.5-1.1c1.6-0.7,3-1.4,4-2.2c2.1-1.4,4.3-3.1,6.6-5.1
		c2.3-2.1,4.5-4.2,6.6-6.3c0.3-0.3,0.7-0.4,1.2-0.4c1,0,1.5,0.4,1.5,1.2c0,0.7-0.5,1.5-1.4,2.4c-2.6,2.6-5,4.9-7.1,6.8
		c-2.1,1.8-4.1,3.3-6,4.5c-1.2,0.7-2.8,1.5-4.6,2.3c-1.8,0.8-3.9,1.2-6.3,1.2c-3.2,0-4.8-1.7-4.8-5.1c0-1.3,0.2-2.4,0.5-3.2
		C276.5,71.1,271,74,265.9,74z M301,100c-3.1,0-4.6-2.2-4.6-6.6c0-5.7,2.5-14.9,7.5-27.4c0.8-2.1,1.9-4.3,3-6.6
		c1.2-2.3,2.5-4.7,4.1-7.3c1.6-2.7,3.2-5.1,4.6-7.2c1.5-2,2.8-3.7,3.9-4.9c0.4-0.4,0.7-0.7,1-0.8c0.3-0.1,0.6-0.2,0.8-0.2
		c1.7,0,3.6,0.5,5.8,1.5c2.2,1,4.1,2.2,5.8,3.7c1.6,1.3,2.8,2.9,3.8,4.7c1,1.8,1.5,3.7,1.5,5.7c0,1.4-0.3,2.9-0.9,4.4
		c-0.5,1.4-1.2,2.9-2.2,4.3c1.7-0.3,3.8-1.1,6.2-2.3c2.5-1.2,5-3,7.5-5.4c0.3-0.3,0.6-0.4,1.1-0.4c1,0,1.5,0.4,1.5,1.2
		c0,0.3-0.2,0.8-0.5,1.3c-0.3,0.5-0.8,1-1.5,1.8c-4.8,4.4-10.6,7-17.4,7.6c-1,1-2.1,2.1-3.2,3c-1.1,0.9-2.3,1.8-3.5,2.5
		c-3.8,2.3-7,3.4-9.7,3.4c-1.1,0-2-0.4-2.7-1.1c-0.7-0.7-1.1-1.5-1.1-2.4c0-3,2.6-5.3,7.8-6.9c1.9-0.5,3.8-1,5.7-1.4
		c1.9-0.4,3.8-0.8,5.6-1.3c1.3-2,2.3-3.8,2.8-5.3c0.7-1.5,1-2.8,1-3.8c0-3.5-2.6-6.8-7.7-9.9c-2-1.2-3.6-1.8-4.8-1.8
		c-5.4,5.9-10.4,14.1-15.2,24.7c-5,10.9-7.4,19.5-7.4,25.8c0,1.5,0.1,2.5,0.4,3c0.3,0.5,0.7,0.8,1.4,0.8c0.2,0,0.4,0,0.5-0.1
		c0.1,0,0.3,0,0.4,0c0.8,0,1.3,0.5,1.3,1.6C303.4,99.5,302.6,100,301,100z M316.3,73.2c2.4,0,5.9-1.9,10.5-5.7c-1,0.1-2.1,0.3-3,0.5
		c-0.9,0.2-2.3,0.6-4,1.1c-2.9,0.8-4.4,1.9-4.4,3.2C315.3,72.9,315.6,73.2,316.3,73.2z"/>
</g>
</svg>
