<?xml version="1.0" encoding="utf-8"?>
<!-- Generator: Adobe Illustrator 23.0.3, SVG Export Plug-In . SVG Version: 6.00 Build 0)  -->
<svg version="1.1" id="Layer_1" xmlns="http://www.w3.org/2000/svg" xmlns:xlink="http://www.w3.org/1999/xlink" x="0px" y="0px"
	 viewBox="0 0 1019 126" style="enable-background:new 0 0 1019 126;" xml:space="preserve">
<style type="text/css">
	.st0{fill:url(#SVGID_1_);}
</style>
<g>
	
		<linearGradient id="SVGID_1_" gradientUnits="userSpaceOnUse" x1="508.1148" y1="97.806" x2="508.1148" y2="24" gradientTransform="matrix(1 0 0 -1 0 132)">
		<stop  offset="0" style="stop-color:#FF68D5"/>
		<stop  offset="0.5099" style="stop-color:#F3A7FF"/>
		<stop  offset="1" style="stop-color:#FF33AD"/>
	</linearGradient>
	<path class="st0" d="M9.2,93.8c-1.8,0-2.7-0.7-2.7-2c0-0.7,0.8-4.3,2.4-11.1c0.7-2.9,1.6-6.4,2.5-10.7c1-4.3,2.1-9.3,3.4-15.1
		c0.5-2.6,0.9-5.3,1.2-8c0.3-2.7,0.5-5.6,0.5-8.6c0-2.7-0.1-4.8-0.3-6.5c-0.1-1.6-0.5-2.9-1.2-3.7c-0.6-0.8-0.9-1.4-0.9-1.8
		c0-1,0.5-1.6,1.6-1.6c1.1,0,2.1,0.7,3,2.2c0.4,0.6,0.7,1.8,1,3.5c0.3,1.8,0.4,4.1,0.4,7.1c0,3.1-0.2,6.2-0.5,9.2
		c-0.3,2.9-0.7,5.8-1.4,8.7c-0.7,3.6-1.7,8.1-2.9,13.5c-1.2,5.4-2.8,11.6-4.6,18.8c1.5-1.4,3.2-3.2,5-5.3c1.8-2.2,3.7-4.4,5.6-6.7
		c2-2.3,3.8-4.5,5.4-6.7c1.7-2.2,3.1-4,4.3-5.6c1.2-1.6,2.1-2.7,2.5-3.3c4.9-6.9,9.1-12.5,12.6-16.9c3.5-4.4,6.4-7.8,8.7-10.3
		c2.3-2.5,4-4.5,5-5.9c0.4-0.5,0.8-1,1.3-1.6c0.5-0.5,1-0.8,1.8-0.8c1.2,0,1.9,0.7,1.9,2c0,0.5-0.1,1-0.3,1.4
		c-0.2,0.4-0.4,0.9-0.7,1.7c-0.8,2-1.8,4.8-2.9,8.2c-4.6,14-6.9,29.9-6.9,47.6c1.3-1,3-2.7,5.1-5.1c2.2-2.4,4.7-5.5,7.5-9.1
		c1.8-2.4,4.1-5.4,7-8.8c2.8-3.5,6.1-7.6,9.9-12.2c4.1-4.8,7.7-9,10.9-12.3c3.1-3.5,5.8-6.2,7.9-8.3c9.9-9.8,17.2-14.7,22-14.7
		c1.5,0,2.3,0.6,2.3,1.8c0,0.5-0.2,0.9-0.5,1.2c-0.3,0.2-0.6,0.3-0.9,0.3c-0.3,0-0.5,0-0.8-0.1c-0.2-0.1-0.4-0.1-0.7-0.1
		c-3.5,0-10.2,5-20.1,14.9c-3.2,3.2-6.4,6.5-9.5,9.9c-3.1,3.3-5.8,6.6-8.3,9.7c-3.1,3.9-6.2,7.9-9.3,12c-3.1,4-6.4,8.3-10.1,12.9
		c-2.5,3.3-4.6,5.7-6.1,7.4c-1.5,1.7-2.6,2.9-3.2,3.5c-0.6,0.6-1.1,1-1.6,1.4c-0.4,0.4-0.8,0.6-1.1,0.6c-0.7,0-1.4-0.3-2.3-1
		c-0.9-0.6-1.3-1.2-1.3-1.8c0-20.6,2.7-38.6,8-54.1c-2.4,2.4-5.3,5.6-8.5,9.6c-3.2,3.9-6.9,8.6-11.1,14.1c-3.3,4.4-6.2,8.2-8.7,11.4
		c-2.4,3.2-4.4,5.8-5.9,7.8c-3.2,4.1-5.9,7.5-8.2,10.2c-2.2,2.6-3.9,4.5-5.1,5.7c-0.4,0.5-0.8,0.8-1.1,1C10,93.6,9.6,93.8,9.2,93.8z
		 M96.9,88.8c-2.7,0-4.9-0.9-6.5-2.8C88.8,84,88,81.7,88,79c0-4.7,1.6-9.5,4.7-14.5c0.8-1.4,1.8-2.7,2.9-4c1.1-1.4,2.3-2.7,3.6-3.9
		c2-1.9,4-3.5,6.2-4.7c2.2-1.2,4.2-1.9,6.3-1.9c3.3,0,5,1.6,5,4.7c0,3.9-2.3,7.5-6.9,10.7c-4.2,2.9-8.4,4.3-12.5,4.3
		c-0.7,0-1.4,0-2-0.1c-0.5-0.1-1-0.3-1.5-0.4c-0.7,1.2-1.2,2.8-1.8,4.8c-0.5,2-0.8,3.7-0.8,5.1c0,4.3,1.9,6.5,5.7,6.5
		c3.1,0,6-0.5,8.7-1.6c2.7-1.1,6-3.2,9.8-6.2c2.4-1.8,4.1-3.3,5.3-4.4c1.2-1.1,2.4-2.3,3.8-3.5c0.4-0.3,0.8-0.4,1.1-0.4
		c0.3,0,0.7,0.1,1,0.3c0.3,0.2,0.5,0.5,0.5,0.9c0,0.7-0.7,1.7-2,3c-1.1,1-2.3,2.2-3.5,3.3c-1.2,1.1-3.2,2.7-5.9,4.7
		c-2.9,2.2-6,4-9.4,5.2C103.1,88.1,99.9,88.8,96.9,88.8z M96.8,66.5c2.1,0,4.1-0.3,6-1c1.9-0.7,3.7-1.6,5.4-2.8
		c3.8-2.8,5.7-5.5,5.7-7.9c0-1.1-0.7-1.7-2.1-1.7c-2.6,0-5.7,1.6-9.1,4.8c-1.7,1.6-3.1,3-4.2,4.3c-1,1.2-2,2.6-2.9,4.1
		C95.9,66.5,96.3,66.5,96.8,66.5z M132.2,89.6c-3,0-5.3-0.9-7-2.7c-1.6-1.9-2.4-4.4-2.4-7.4c0-2.2,0.4-4.9,1.2-8
		c1.4-5.3,3.7-11.4,7-18.4c2.5-5.3,5.3-10.5,8.2-15.6c2.9-5.2,6.2-10.2,9.7-15.2c5.6-8,9.5-12,11.8-12c1.4,0,2.2,0.4,2.2,1.2
		c0,1.1-1.8,3.9-5.5,8.3l-6.9,8.3c-5.9,7.2-10.8,14.5-14.6,22.1c-3.7,7.5-6.6,15-8.7,22.5c-0.6,2.2-0.9,4.2-0.9,6.1
		c0,5,2,7.4,6.1,7.4c1.4,0,2.9-0.4,4.4-1.3c1.5-0.8,2.3-1.2,2.4-1.2c0.8,0,1.2,0.6,1.2,1.7c0,1-0.4,1.7-1.1,2.3
		C137.1,89,134.7,89.6,132.2,89.6z M157.4,88.4c-3.5,0-6.2-1-8.1-3c-2-2-2.9-4.7-2.9-8.1c0-5.9,2.8-12.3,8.3-19.2
		c2.9-3.5,5.8-6.2,8.7-8c3-1.9,5.8-2.8,8.4-2.8c2.3,0,4.1,0.8,5.3,2.4c1.2,1.6,1.9,3.5,1.9,5.9c0,1.4-0.2,2.9-0.6,4.4
		c-0.3,1-0.8,1.6-1.6,1.6c-1.2,0-1.9-0.7-1.9-2.1c0-0.6,0.1-1.3,0.3-2.3c0.3-1,0.4-1.9,0.4-2.8c0-2.6-1.3-3.9-3.8-3.9
		c-1.4,0-3,0.5-5,1.5c-1.9,1-3.8,2.3-5.7,3.9c-1.9,1.6-3.6,3.4-5,5.4c-4.4,5.9-6.6,11.3-6.6,16c0,5.4,2.4,8.1,7.4,8.1
		c3.1,0,6-0.5,8.8-1.4c2.8-1,6.1-3,9.9-6c2.4-1.8,4.1-3.3,5.3-4.4c1.2-1.1,2.5-2.3,3.8-3.5c0.4-0.3,0.8-0.4,1.1-0.4s0.7,0.1,1,0.3
		s0.5,0.5,0.5,0.9c0,0.7-0.7,1.7-2,3c-1.1,1-2.3,2.2-3.5,3.3c-1.2,1.1-3.2,2.7-5.9,4.7c-2.9,2.2-5.9,3.9-9.2,5
		C163.5,87.8,160.4,88.4,157.4,88.4z M191.5,86.5c-5.3,0-7.9-3-7.9-8.9c0-2.7,0.7-5.6,2-8.6c1.3-3,3-5.8,5.2-8.3
		c2.2-2.6,4.5-4.7,7.2-6.4c2.7-1.6,5.4-2.4,8.1-2.4c2.4,0,4.2,0.9,5.3,2.7c1.1,1.8,1.7,3.9,1.7,6.1c0,2.9-0.6,5.9-1.8,9
		c-1.2,3-2.8,5.8-4.8,8.3c-2,2.5-4.3,4.6-6.9,6.2C197,85.7,194.3,86.5,191.5,86.5z M191.4,83.4c0.4,0,0.6,0,0.7-0.1
		c2.5-0.3,4.9-1.2,7.1-2.7c2.2-1.5,4-3.4,5.6-5.6c1.6-2.3,2.9-4.7,3.7-7.4c0.8-2.6,1.3-5.2,1.3-7.7c0-1.5-0.4-2.7-1.3-3.5
		c-0.9-0.8-1.9-1.3-3.2-1.3c-1.9,0-3.9,0.8-6.1,2.4c-2.1,1.6-4.1,3.6-6,6c-1.8,2.4-3.3,5-4.5,7.6c-1.2,2.6-1.8,5-1.8,7.1
		C186.9,81.6,188.4,83.4,191.4,83.4z M212.8,90.3c-1.1,0-1.7-0.5-1.7-1.6c0-0.1,0.4-0.9,1.2-2.5c0.8-1.6,1.9-3.9,3.3-7l5-10.5
		c2-4.2,3.5-7.6,4.3-10.1c0.9-2.5,1.4-4.1,1.4-4.8c0-1,0.5-1.6,1.6-1.6c1,0,1.6,0.5,1.6,1.6c0,0.8-0.3,2.2-0.9,4
		c-0.5,1.8-1.4,4.1-2.6,6.9l-5,11.4c13.7-17.2,23.9-25.9,30.9-25.9c1.3,0,2.3,0.6,3,1.7c0.7,1,1.1,2.2,1.1,3.5
		c0,3.1-2.3,8.6-6.8,16.4c3.5-3.5,7-7.1,10.5-10.6c3.6-3.6,7.2-7.1,10.8-10.6c0.9-0.8,1.7-1.3,2.3-1.3c0.8,0,1.4,0.4,2,1.2
		c0.5,0.7,0.8,1.5,0.8,2.4c0,0.7-0.3,1.5-0.9,2.4c-0.8,1.4-1.6,3.2-2.4,5.2c-0.7,2-1.5,4.2-2.5,6.7c-1,2.8-1.8,5.3-2.3,7.3
		c-0.5,2.1-0.7,3.8-0.7,5.1c0,1.6,0.4,2.8,1.2,3.6c0.8,0.7,1.6,1.1,2.4,1.1c1.4,0,2.9-0.4,4.5-1.1c1.6-0.7,3-1.4,4-2.2
		c2.1-1.4,4.3-3.1,6.6-5.1c2.3-2.1,4.5-4.2,6.6-6.3c0.3-0.3,0.7-0.4,1.2-0.4c1,0,1.5,0.4,1.5,1.2c0,0.7-0.5,1.5-1.4,2.4
		c-2.6,2.6-5,4.9-7.1,6.8c-2.1,1.8-4.1,3.3-6,4.5c-1.2,0.7-2.7,1.5-4.5,2.3c-1.8,0.8-3.7,1.2-5.7,1.2c-1.9,0-3.5-0.6-4.8-1.8
		c-1.2-1.2-1.9-3.7-1.9-7.5c0-1.5,0.3-3.3,0.8-5.3c0.5-2.1,1.3-4.4,2.4-7l5.2-12.3l-14,14.1c-1.6,1.6-3,3-4,4.1
		c-1,1.1-1.9,2-2.5,2.7c-1.2,1.3-2.4,2.6-3.3,3.8c-0.9,1.2-1.7,2.3-2.4,3.2c-0.5,0.7-1,1.1-1.6,1.1c-1.1,0-1.7-0.5-1.7-1.4
		c0-2,1.8-6.7,5.5-14c3.7-7.3,5.5-11.7,5.5-13.1c0-0.7-0.7-1-2.2-1c-5.8,0-16.2,9.5-31.1,28.5c-1.2,1.8-3.3,4.4-6.2,7.9
		C213.6,90.2,213.3,90.3,212.8,90.3z M298.6,88.8c-2.7,0-4.9-0.9-6.5-2.8c-1.6-1.9-2.4-4.2-2.4-7c0-4.7,1.6-9.5,4.7-14.5
		c0.8-1.4,1.8-2.7,2.9-4c1.1-1.4,2.3-2.7,3.6-3.9c2-1.9,4-3.5,6.2-4.7s4.2-1.9,6.3-1.9c3.3,0,5,1.6,5,4.7c0,3.9-2.3,7.5-6.9,10.7
		c-4.2,2.9-8.4,4.3-12.5,4.3c-0.7,0-1.4,0-2-0.1c-0.5-0.1-1-0.3-1.5-0.4c-0.7,1.2-1.2,2.8-1.8,4.8c-0.5,2-0.8,3.7-0.8,5.1
		c0,4.3,1.9,6.5,5.7,6.5c3.1,0,6-0.5,8.7-1.6c2.7-1.1,6-3.2,9.8-6.2c2.4-1.8,4.1-3.3,5.3-4.4c1.2-1.1,2.4-2.3,3.8-3.5
		c0.4-0.3,0.8-0.4,1.1-0.4s0.7,0.1,1,0.3c0.3,0.2,0.5,0.5,0.5,0.9c0,0.7-0.7,1.7-2,3c-1.1,1-2.3,2.2-3.5,3.3
		c-1.2,1.1-3.2,2.7-5.9,4.7c-2.9,2.2-6,4-9.4,5.2C304.8,88.1,301.6,88.8,298.6,88.8z M298.5,66.5c2.1,0,4.1-0.3,6-1s3.7-1.6,5.4-2.8
		c3.8-2.8,5.7-5.5,5.7-7.9c0-1.1-0.7-1.7-2.1-1.7c-2.6,0-5.7,1.6-9.1,4.8c-1.7,1.6-3.1,3-4.2,4.3c-1,1.2-2,2.6-2.9,4.1
		C297.6,66.5,298,66.5,298.5,66.5z M351.2,93.8c-1.2,0-1.9-1-1.9-2.9c0-2.9,1.6-7.9,4.8-15.1c3.3-7.2,8.1-16.6,14.5-28.2
		c-2.5,0-4.8,0.3-7.1,1c-2.2,0.6-3.3,1.3-3.4,2.3c-0.1,0.3-0.2,0.5-0.5,0.8c-0.2,0.2-0.5,0.3-1,0.3c-1,0-1.6-0.5-1.6-1.6
		c0-1.7,1.3-3.1,4-4.2c2.7-1.1,6.4-1.7,11.3-1.7l6.8-11.2c0.5-0.7,0.9-1.5,1.5-2.4c0.5-0.9,1.1-1.9,1.8-2.9c0.7-0.9,1.4-1.4,2.3-1.4
		c0.5,0,0.9,0.2,1.2,0.5c0.3,0.3,0.4,0.6,0.4,0.9c0,1-1.4,3.6-4.3,7.8c-3.6,5.3-5.5,8.2-5.8,8.6c1,0,2.5,0.1,4.4,0.3
		c2,0.1,4.3,0.4,7,0.7c1,0.1,1.5,0.6,1.5,1.5c0,1-0.6,1.6-1.8,1.6c-0.5,0-1.4-0.1-2.7-0.2c-1.4-0.2-2.8-0.4-4.4-0.5
		c-1.6-0.1-2.9-0.2-4-0.1l-1.5,0.1c-13.3,23.3-19.9,37.8-19.8,43.5l0.1,0.8v0.2C352.9,93.2,352.3,93.8,351.2,93.8z M381.4,86.5
		c-5.3,0-7.9-3-7.9-8.9c0-2.7,0.7-5.6,2-8.6c1.3-3,3-5.8,5.2-8.3c2.2-2.6,4.5-4.7,7.2-6.4c2.7-1.6,5.4-2.4,8.1-2.4
		c2.4,0,4.2,0.9,5.3,2.7c1.1,1.8,1.7,3.9,1.7,6.1c0,2.9-0.6,5.9-1.8,9c-1.2,3-2.8,5.8-4.8,8.3c-2,2.5-4.3,4.6-6.9,6.2
		C386.9,85.7,384.2,86.5,381.4,86.5z M381.3,83.4c0.4,0,0.6,0,0.7-0.1c2.5-0.3,4.9-1.2,7.1-2.7c2.2-1.5,4-3.4,5.6-5.6
		c1.6-2.3,2.9-4.7,3.7-7.4c0.9-2.6,1.3-5.2,1.3-7.7c0-1.5-0.4-2.7-1.3-3.5c-0.8-0.8-1.9-1.3-3.2-1.3c-1.9,0-3.9,0.8-6.1,2.4
		c-2.1,1.6-4.1,3.6-6,6c-1.8,2.4-3.3,5-4.5,7.6c-1.2,2.6-1.8,5-1.8,7.1C376.8,81.6,378.3,83.4,381.3,83.4z M460.9,91.2
		c-4.1,0-7.9-0.8-11.6-2.4c-3.6-1.6-6.5-3.9-8.8-7.1c-2.3-3.2-3.4-7.2-3.4-12c0-2.5,0.6-5.4,1.7-8.6c1.1-3.3,2.5-6.6,4.2-9.8
		c1.7-3.3,3.5-6,5.3-8.3c2-2.5,4.4-5,7.2-7.3c2.8-2.3,5.8-4.3,8.9-6.1c3.1-1.8,6.3-3.1,9.5-4.1c3.2-1,6.2-1.6,9.1-1.6
		c3.5,0,6.9,0.7,10.2,2.1c3.3,1.4,6.3,3.3,8.9,5.7c2.6,2.4,4.7,5.2,6.2,8.4c1.6,3.1,2.4,6.5,2.4,10c0,3.4-0.8,6.8-2.3,10.1
		c-1.5,3.3-3.5,6.5-6,9.5c-2.4,2.9-5.1,5.7-8.1,8.1c-4.8,3.9-10.1,7.1-15.9,9.5C472.6,90,466.8,91.2,460.9,91.2L460.9,91.2z
		 M460.3,88c5.6,0,11-1.1,16.4-3.4c5.4-2.4,10.3-5.3,14.7-8.9c2.9-2.4,5.5-4.9,7.8-7.7c2.4-2.9,4.2-5.8,5.7-8.9
		c1.4-3.1,2.2-6.2,2.2-9.2c0-2.9-0.7-5.7-2.1-8.4c-1.3-2.7-3.1-5.1-5.4-7.2c-2.2-2.1-4.8-3.7-7.6-4.9c-2.9-1.2-5.8-1.9-8.9-1.9
		c-2.7,0-5.7,0.5-8.7,1.5c-3,1-6,2.3-8.9,4c-2.9,1.6-5.7,3.6-8.3,5.8c-2.5,2.2-4.7,4.4-6.6,6.8c-1.7,2.2-3.3,4.9-4.9,7.9
		s-2.8,6.1-3.8,9.2c-0.9,3.1-1.4,5.7-1.4,8c0,3.7,0.8,6.8,2.5,9.4c1.8,2.5,4.1,4.5,7.2,5.9C453.2,87.3,456.6,88,460.3,88z
		 M541.8,90.3c-3.2,0-4.8-2.3-4.8-7c0-2.5,0.6-5.5,1.8-9c-7.9,9.2-14.1,13.8-18.6,13.8c-3.7,0-5.6-2.3-5.6-6.8
		c0-1.7,0.3-3.7,0.8-6.1c0.6-2.4,1.3-4.9,2.3-7.4c1-2.5,2-4.9,3.1-7.2c1.1-2.2,2.2-4,3.3-5.4c0.4-0.5,0.9-0.7,1.5-0.7
		c0.3,0,0.7,0.1,1,0.4c0.3,0.2,0.5,0.5,0.5,1c0,0.4-0.2,0.9-0.7,1.7c-2.9,4.8-5,9-6.3,12.6c-1.6,4.1-2.4,7.7-2.4,10.7
		c0,2.8,0.7,4.2,2.2,4.2c0.9,0,2.1-0.5,3.6-1.4c1.5-0.9,3-2,4.6-3.3c1.6-1.4,3-2.6,4.2-3.8c3.3-3.5,6.2-7.2,8.8-11.1
		c1.2-1.8,2.2-3.6,3.1-5.3c1-1.8,1.9-3.6,2.6-5.5c0.3-0.7,0.6-1.2,0.8-1.6c0.3-0.4,0.6-0.6,1.1-0.6c1.4,0,2.1,0.5,2.1,1.6
		c0,0.7-0.2,1.1-0.7,1.4c-6.7,13.5-10,22.8-10,27.9c0,1.4,0.1,2.4,0.4,2.9c0.3,0.5,0.7,0.8,1.4,0.8c0.9,0,2.3-0.6,4.2-1.8
		c2-1.2,4.2-3,6.9-5.4l10.3-9.4c0.5-0.5,1-0.8,1.5-0.8c1,0,1.6,0.5,1.6,1.5c0,0.8-2.1,3.1-6.2,6.9c-1.8,1.6-3.3,3-4.7,4.1
		c-1.4,1.1-2.6,2.1-3.8,2.9c-2.2,1.6-4.2,2.8-5.9,3.6C544,89.9,542.7,90.3,541.8,90.3z M557,89.4c-1,0-1.6-0.4-1.6-1.3
		c0-0.4,0.1-0.8,0.3-1.2c0.3-0.4,0.5-0.7,0.6-1l8.9-18c3.8-7.7,5.7-12,5.7-12.8c0-0.9,0.5-1.4,1.4-1.4c1.2,0,1.9,0.6,1.9,1.9
		c0,0.7-0.3,1.7-0.9,3.1s-1.3,3.1-2.3,5c-1.6,3.4-2.9,6-3.9,7.8c2-2.3,4-4.4,6-6.5c2-2,4.1-4,6.2-5.8c6.2-5.4,11-8.1,14.3-8.1
		c2.3,0,3.4,1.1,3.4,3.2c0,2.1-0.7,3.1-2.1,3.1c-0.7,0-1.1-0.6-1.5-1.7c-0.2-0.8-0.7-1.2-1.4-1.2c-1.1,0-3.3,1.2-6.5,3.6
		c-3.5,2.6-7.1,5.7-10.7,9.3c-3.5,3.6-7.3,8.2-11.3,13.7l-4.9,6.9c-0.3,0.3-0.5,0.6-0.8,0.8C557.8,89.3,557.4,89.4,557,89.4z
		 M638.8,91.2c-4.2,0-8.1-0.7-11.9-2.1c-3.7-1.4-6.6-3.3-8.9-5.9c-2.3-2.5-3.4-5.6-3.4-9c0-1.1,0.2-2.3,0.6-3.5
		c0.5-1.7,1.1-2.5,1.8-2.5c1,0,1.5,0.6,1.5,1.7c0,0.5-0.1,1.1-0.4,1.9c-0.3,0.8-0.4,1.5-0.4,2.3c0,2.9,1,5.4,2.9,7.5
		c2,2.1,4.5,3.7,7.5,4.8c3.1,1.1,6.4,1.7,9.8,1.7c7.4,0,13.7-1.8,18.8-5.3c2.7-1.8,4.9-4,6.7-6.6c1.8-2.6,2.6-5.4,2.6-8.3
		c0-2.7-0.7-4.9-2.1-6.7c-1.3-1.8-3.1-3.3-5.5-4.5c-2.4-1.3-5.1-2.5-8.1-3.5c-8.8-3.1-13.1-6.8-13.1-11.2c0-2.4,0.9-4.6,2.6-6.8
		c1.8-2.2,3.9-4.1,6.5-5.7c2.5-1.7,5-3,7.4-3.8c3.5-1.3,6.7-2.2,9.6-2.6c3-0.5,5.8-0.8,8.3-0.8c3.5,0,5.9,0.8,7.4,2.4
		c1.4,1.6,2.2,3.5,2.2,5.9c0,1.8-0.5,3.6-1.4,5.3c-0.8,1.7-2,3.2-3.5,4.4c-1.7,1.4-3.1,2.2-4.1,2.2c-1.1,0-1.7-0.5-1.7-1.6
		c0-0.6,0.3-1,0.9-1.3c4.4-2.2,6.6-5.3,6.6-9.1c0-1.7-0.5-2.9-1.5-3.7c-0.9-0.8-2.5-1.3-4.8-1.3c-2.1,0-4.4,0.2-7.1,0.7
		c-2.5,0.5-5.2,1.1-7.8,2.1c-2.4,0.8-4.7,2-7.2,3.4c-2.4,1.4-4.4,3-6.1,4.7c-1.6,1.7-2.4,3.4-2.4,5.1c0,3.6,3.5,6.5,10.4,8.6
		c12,3.8,17.9,9.6,17.9,17.4c0,2.4-0.6,4.7-1.7,7c-1,2.3-2.5,4.4-4.2,6.3c-1.7,1.9-3.5,3.5-5.5,4.9c-2.8,2-5.9,3.4-9.2,4.2
		C645.6,90.8,642.2,91.2,638.8,91.2z M685.5,88.8c-2.7,0-4.9-0.9-6.5-2.8s-2.4-4.2-2.4-7c0-4.7,1.6-9.5,4.7-14.5
		c0.8-1.4,1.8-2.7,2.9-4c1.1-1.4,2.3-2.7,3.6-3.9c2-1.9,4-3.5,6.2-4.7s4.2-1.9,6.3-1.9c3.3,0,5,1.6,5,4.7c0,3.9-2.3,7.5-6.9,10.7
		c-4.2,2.9-8.4,4.3-12.5,4.3c-0.7,0-1.4,0-2-0.1c-0.5-0.1-1-0.3-1.5-0.4c-0.7,1.2-1.2,2.8-1.8,4.8c-0.5,2-0.8,3.7-0.8,5.1
		c0,4.3,1.9,6.5,5.7,6.5c3.1,0,6-0.5,8.7-1.6c2.7-1.1,6-3.2,9.8-6.2c2.4-1.8,4.1-3.3,5.3-4.4c1.2-1.1,2.5-2.3,3.8-3.5
		c0.4-0.3,0.8-0.4,1.1-0.4c0.3,0,0.7,0.1,1,0.3c0.3,0.2,0.5,0.5,0.5,0.9c0,0.7-0.7,1.7-2,3c-1.1,1-2.3,2.2-3.5,3.3
		c-1.2,1.1-3.2,2.7-5.9,4.7c-2.9,2.2-6,4-9.4,5.2C691.7,88.1,688.5,88.8,685.5,88.8z M685.4,66.5c2.1,0,4.1-0.3,6-1
		c1.9-0.7,3.7-1.6,5.4-2.8c3.8-2.8,5.7-5.5,5.7-7.9c0-1.1-0.7-1.7-2.1-1.7c-2.6,0-5.7,1.6-9.1,4.8c-1.7,1.6-3.1,3-4.2,4.3
		c-1,1.2-2,2.6-2.9,4.1C684.5,66.5,685,66.5,685.4,66.5z M704.1,89.4c-1.1,0-1.7-0.5-1.7-1.6c0-0.5,0.8-1.6,2.4-3.3
		c1.6-1.8,4.1-4.1,7.4-6.9l11.8-10c-0.5-1.8-0.9-3.3-1.3-4.7c-0.3-1.4-0.7-2.5-1-3.4c-1.2-3.8-2.4-6.2-3.3-7.2
		c-0.4-0.4-0.6-0.8-0.6-1.3c0-1,0.5-1.5,1.5-1.5c1.5,0,3.1,2.3,4.7,6.9c0.5,1.5,1,3,1.5,4.5c0.5,1.5,0.9,3,1.4,4.5
		c7.1-5.9,11.8-9.9,13.9-12.2c0.5-0.5,0.9-0.9,1.1-1.2c0.2-0.3,0.3-0.5,0.4-0.7c0.3-0.7,0.9-1.1,1.7-1.1c1,0,1.6,0.5,1.6,1.5
		c0,2-5.9,7.5-17.6,16.8c0.8,2.7,1.6,5.3,2.5,7.7c0.8,2.4,1.8,4.4,2.9,6c1.2,1.5,2.5,2.3,3.9,2.3c1.4,0,2.8-0.4,4.3-1.1
		c1.6-0.7,3.1-1.6,4.7-2.6c1.6-1.1,3-2.2,4.2-3.1c2.4-1.8,4.1-3.3,5.3-4.4c1.2-1.1,2.5-2.3,3.8-3.5c0.4-0.3,0.8-0.4,1.1-0.4
		c0.3,0,0.7,0.1,1,0.3c0.3,0.2,0.5,0.5,0.5,0.9c0,0.7-0.7,1.7-2,3c-1.1,1-2.3,2.2-3.5,3.3c-1.2,1.1-3.2,2.7-5.9,4.7
		c-1.2,0.9-2.6,1.8-4.2,2.7c-1.6,0.9-3.2,1.7-4.8,2.3c-1.6,0.6-3,0.9-4.3,0.9c-2.2,0-4.1-0.8-5.7-2.4c-1.5-1.6-2.8-3.7-3.8-6.3
		c-1-2.5-2-5.2-2.8-8l-10.1,8.6c-2,1.7-3.8,3.3-5.4,4.9c-1.6,1.6-2.9,3-4.1,4.4C705.1,89.3,704.7,89.4,704.1,89.4z M754.7,119.4
		c-4,0-6-2.4-6-7.1c0-4,0.8-7.8,2.5-11.6c0.3-0.7,0.7-1,1.3-1c1.2,0,1.8,0.5,1.8,1.6c0,0.3-0.1,0.6-0.3,1c-0.1,0.5-0.3,0.9-0.5,1.5
		c-0.5,1.2-0.8,2.5-1.1,3.9c-0.3,1.4-0.4,2.8-0.4,4.3c0,1.7,0.2,2.8,0.7,3.4c0.5,0.6,1,0.9,1.8,0.9c1.7,0,3.7-0.8,6-2.4
		c2.4-1.6,4.8-4.1,7.3-7.4c1.8-2.4,3.6-5.3,5.5-8.6c1.9-3.3,3.9-7.2,6.1-11.5c2.9-5.7,5.5-11.5,7.9-17.3c-1.6,2.1-3.3,4.1-5.1,6.1
		c-1.8,2-3.7,3.8-5.7,5.5c-5.4,4.6-9.9,7-13.5,7c-4.3,0-6.5-2.5-6.5-7.4c0-1.8,0.3-3.9,1-6.4c0.7-2.5,1.7-5.3,2.9-8.5
		c0.2-0.5,0.3-0.9,0.3-1.3c0-0.4,0.1-0.8,0.3-1.2c1-2.3,2.8-4.8,5.2-7.6c0.5-0.6,1-0.9,1.4-0.9c1,0,1.5,0.7,1.5,2.2
		c-6.3,9.3-9.5,17.2-9.5,23.7c0,2.7,1.1,4.1,3.2,4.1c2.4,0,5.8-1.7,10.1-5c3.1-2.4,5.9-5,8.5-7.9c2.6-3,5-6.1,7.1-9.3
		c1.4-2.2,2.6-4.1,3.4-5.7c0.9-1.7,1.5-2.8,1.7-3.4c0.3-1,0.8-1.5,1.4-1.5c1.2,0,1.9,0.5,1.9,1.6c0,0.5-0.3,1.5-0.8,2.8
		c-0.5,1.3-1,2.9-1.8,4.7c-1,2.7-2.5,6.3-4.5,10.8c-2,4.5-4.4,9.9-7.4,16.1c-3.7,7.7-7.3,14-10.8,18.9c-2.6,3.7-5.5,6.8-8.6,9.3
		C759.9,118.2,757.2,119.4,754.7,119.4z M856.9,91.4c-5.9,0-11.1-1-15.6-3.1c-4.4-2-7.8-5-10.2-8.9c-2.4-4-3.6-8.8-3.6-14.3
		c0-5.2,1-10,2.9-14.4c2-4.4,4.9-8.4,8.7-12.2c5.8-5.6,12.4-9.8,20.1-12.8c7.7-3,15.6-4.5,23.8-4.5c4.1,0,7.6,0.7,10.7,2.2
		c3.1,1.4,5.5,3.2,7.3,5.6c1.8,2.4,2.6,4.9,2.6,7.7c0,1.8-0.4,3.5-1.3,5.1c-0.8,1.5-1.8,2.7-2.8,3.6c-1,0.9-1.9,1.4-2.5,1.4
		c-0.5,0-1-0.2-1.6-0.7c-0.5-0.5-0.8-0.9-0.8-1.3c0-0.4,0.5-0.9,1.4-1.7c0.9-0.7,1.8-1.7,2.6-2.8c0.9-1.2,1.4-2.7,1.4-4.5
		c0-2.4-0.8-4.4-2.5-6.2c-1.6-1.8-3.8-3.2-6.7-4.2c-2.8-1-6-1.6-9.7-1.6c-7.3,0-14.3,1.5-21.2,4.6c-6.9,3-12.9,7.1-18,12.2
		c-3.6,3.6-6.3,7.4-8.1,11.4c-1.8,4-2.7,8.6-2.7,13.8c0,5,1.2,9.2,3.5,12.6c2.4,3.3,5.7,5.8,9.7,7.5c4.1,1.6,8.6,2.4,13.6,2.4
		c5.8,0,11.9-0.9,18.3-2.7c3.8-1,7-2.2,9.6-3.5c2.6-1.4,4.6-2.6,5.9-3.8c1.2-1.1,2.2-1.9,2.7-2.4c0.6-0.5,1.1-0.8,1.5-0.8
		c0.5,0,0.7,0.3,0.7,0.9c0,0.7-0.4,1.5-1.2,2.5c-0.7,1-1.5,1.8-2.4,2.5c-2.3,1.8-5.2,3.4-8.7,4.8c-3.5,1.4-6.9,2.5-10.4,3.4
		c-3.1,0.8-6,1.3-8.8,1.7C862.3,91.2,859.5,91.4,856.9,91.4z M913.4,89.6c-3,0-5.3-0.9-7-2.7c-1.6-1.9-2.4-4.4-2.4-7.4
		c0-2.2,0.4-4.9,1.2-8c1.4-5.3,3.7-11.4,7-18.4c2.5-5.3,5.3-10.5,8.2-15.6c2.9-5.2,6.2-10.2,9.7-15.2c5.6-8,9.5-12,11.8-12
		c1.4,0,2.2,0.4,2.2,1.2c0,1.1-1.8,3.9-5.5,8.3l-6.9,8.3c-5.9,7.2-10.8,14.5-14.6,22.1c-3.7,7.5-6.6,15-8.7,22.5
		c-0.6,2.2-0.9,4.2-0.9,6.1c0,5,2,7.4,6.1,7.4c1.4,0,2.9-0.4,4.4-1.3c1.5-0.8,2.3-1.2,2.5-1.2c0.8,0,1.2,0.6,1.2,1.7
		c0,1-0.4,1.7-1.1,2.3C918.3,89,916,89.6,913.4,89.6z M954.9,90.3c-3.2,0-4.8-2.3-4.8-7c0-2.5,0.6-5.5,1.8-9
		c-7.9,9.2-14.1,13.8-18.6,13.8c-3.7,0-5.6-2.3-5.6-6.8c0-1.7,0.3-3.7,0.8-6.1c0.6-2.4,1.3-4.9,2.3-7.4c1-2.5,2-4.9,3.1-7.2
		c1.1-2.2,2.2-4,3.3-5.4c0.4-0.5,0.9-0.7,1.5-0.7c0.3,0,0.7,0.1,1,0.4c0.3,0.2,0.5,0.5,0.5,1c0,0.4-0.2,0.9-0.7,1.7
		c-2.9,4.8-5,9-6.3,12.6c-1.6,4.1-2.3,7.7-2.3,10.7c0,2.8,0.7,4.2,2.1,4.2c0.9,0,2.1-0.5,3.6-1.4c1.5-0.9,3-2,4.6-3.3
		c1.6-1.4,3-2.6,4.2-3.8c3.3-3.5,6.2-7.2,8.8-11.1c1.2-1.8,2.2-3.6,3.1-5.3c1-1.8,1.9-3.6,2.6-5.5c0.3-0.7,0.6-1.2,0.8-1.6
		c0.3-0.4,0.6-0.6,1.1-0.6c1.4,0,2.1,0.5,2.1,1.6c0,0.7-0.2,1.1-0.7,1.4c-6.7,13.5-10,22.8-10,27.9c0,1.4,0.1,2.4,0.4,2.9
		c0.3,0.5,0.7,0.8,1.4,0.8c0.9,0,2.3-0.6,4.2-1.8c2-1.2,4.2-3,6.9-5.4l10.3-9.4c0.5-0.5,1-0.8,1.5-0.8c1,0,1.6,0.5,1.6,1.5
		c0,0.8-2,3.1-6.2,6.9c-1.8,1.6-3.3,3-4.7,4.1c-1.4,1.1-2.7,2.1-3.8,2.9c-2.2,1.6-4.2,2.8-5.9,3.6C957.1,89.9,955.8,90.3,954.9,90.3
		z M979.9,92.8c-1.8,0-3.4-0.6-4.6-1.7c-1.2-1.1-1.8-2.5-1.8-4.3c0-0.7,0-1.1,0.1-1.3c-0.9,2.1-1.8,3.1-2.6,3.1
		c-1,0-1.6-0.6-1.6-1.9l7.6-20c1.2-3.1,2.5-6.4,4-9.7c1.5-3.4,3-6.6,4.5-9.7c1.6-3.1,3-5.9,4.3-8.4c1.4-2.5,2.5-4.6,3.3-6.1
		c2.1-3.6,4.1-6.4,6-8.3c2-2,3.5-3,4.6-3c1.2,0,1.9,0.7,1.9,2.1c0,0.8-0.4,1.2-1.2,1.2c-1.7,0-4.6,3.6-8.7,10.7
		c-1.3,2.2-2.6,4.4-3.7,6.7c-1.1,2.2-2.2,4.3-3.2,6.5c-1.4,3.1-2.9,6.4-4.5,9.9c-1.6,3.5-3.2,7.3-4.9,11.2c2.1-3.1,4.5-6,7.1-8.6
		c2.3-2.3,4.6-4.1,7.1-5.5c2.5-1.4,4.9-2.2,7.3-2.2c2.7,0,4.8,0.6,6.4,1.7c1.6,1.1,2.3,3.2,2.3,6.3c0,2.5-0.8,5.3-2.3,8.1
		c-1.4,2.9-3.3,5.7-5.7,8.4c-2.3,2.7-4.8,5.3-7.6,7.5c-2.7,2.2-5.3,4-7.8,5.3C983.9,92.1,981.8,92.8,979.9,92.8z M979.6,89.5
		c2,0,4.1-0.7,6.5-2.1c2.3-1.3,4.7-3,7.1-5.2c2.3-2.2,4.5-4.5,6.5-7c2-2.5,3.5-5,4.7-7.4c1.2-2.5,1.8-4.7,1.8-6.6
		c0-2.9-1.5-4.4-4.4-4.4c-2.6,0-5.2,0.8-7.6,2.4c-2.5,1.6-4.9,3.7-7.2,6.3c-2.3,2.6-4.5,5.5-6.5,8.6c-2,3.1-3.9,6.3-5.6,9.5
		c0.6-0.6,1.2-0.9,1.7-0.9c0.9,0,1.4,0.4,1.4,1.3c0,0.4-0.2,0.8-0.5,1.3c-0.1,0.2-0.3,0.4-0.4,0.7s-0.2,0.7-0.2,1.2
		C976.7,88.8,977.7,89.5,979.6,89.5z"/>
</g>
</svg>
