<?xml version="1.0" encoding="utf-8"?>
<!-- Generator: Adobe Illustrator 23.0.3, SVG Export Plug-In . SVG Version: 6.00 Build 0)  -->
<svg version="1.1" id="Layer_1" xmlns="http://www.w3.org/2000/svg" xmlns:xlink="http://www.w3.org/1999/xlink" x="0px" y="0px"
	 viewBox="0 0 591 121" style="enable-background:new 0 0 591 121;" xml:space="preserve">
<style type="text/css">
	.st0{fill:url(#SVGID_1_);}
</style>
<g>
	
		<linearGradient id="SVGID_1_" gradientUnits="userSpaceOnUse" x1="294.4253" y1="93.301" x2="294.4253" y2="19.495" gradientTransform="matrix(1 0 0 -1 0 124)">
		<stop  offset="0" style="stop-color:#FF68D5"/>
		<stop  offset="0.5099" style="stop-color:#F3A7FF"/>
		<stop  offset="1" style="stop-color:#FF33AD"/>
	</linearGradient>
	<path class="st0" d="M9.1,90.3c-1.8,0-2.7-0.7-2.7-2c0-0.7,0.8-4.3,2.4-11.1c0.7-2.9,1.6-6.4,2.5-10.7c1-4.3,2.1-9.3,3.4-15.1
		c0.5-2.6,0.9-5.3,1.2-8c0.3-2.7,0.5-5.6,0.5-8.6c0-2.7-0.1-4.8-0.3-6.5c-0.1-1.6-0.5-2.9-1.2-3.7c-0.6-0.8-0.9-1.4-0.9-1.8
		c0-1,0.5-1.6,1.6-1.6c1.1,0,2.1,0.7,3,2.2c0.4,0.6,0.7,1.8,1,3.5c0.3,1.8,0.4,4.1,0.4,7.1c0,3.1-0.2,6.2-0.5,9.2
		c-0.3,2.9-0.7,5.8-1.4,8.7c-0.7,3.6-1.7,8.1-2.9,13.5c-1.2,5.4-2.8,11.6-4.6,18.8c1.5-1.4,3.2-3.2,5-5.3c1.8-2.2,3.7-4.4,5.6-6.7
		c2-2.3,3.8-4.5,5.4-6.7c1.7-2.2,3.1-4,4.3-5.6c1.2-1.6,2.1-2.7,2.5-3.3c4.9-6.9,9.1-12.5,12.6-16.9c3.5-4.4,6.4-7.8,8.7-10.3
		c2.3-2.5,4-4.5,5-5.9c0.4-0.5,0.8-1,1.3-1.6c0.5-0.5,1-0.8,1.8-0.8c1.2,0,1.9,0.7,1.9,2c0,0.5-0.1,1-0.3,1.4s-0.4,0.9-0.7,1.7
		c-0.8,2-1.8,4.8-2.9,8.2c-4.6,14-6.9,29.9-6.9,47.6c1.3-1,3-2.7,5.1-5.1c2.2-2.4,4.7-5.5,7.5-9.1c1.8-2.4,4.1-5.4,7-8.8
		c2.8-3.5,6.1-7.6,9.9-12.3c4.1-4.8,7.7-9,10.9-12.3c3.1-3.5,5.8-6.2,7.9-8.3c9.9-9.8,17.2-14.7,22-14.7c1.5,0,2.3,0.6,2.3,1.8
		c0,0.5-0.2,0.9-0.5,1.2c-0.3,0.2-0.6,0.3-0.9,0.3c-0.3,0-0.5,0-0.8-0.1c-0.2-0.1-0.4-0.1-0.7-0.1c-3.5,0-10.2,5-20.1,14.9
		c-3.2,3.2-6.4,6.5-9.5,9.9c-3.1,3.3-5.8,6.6-8.3,9.7c-3.1,3.9-6.2,7.9-9.3,12c-3.1,4-6.4,8.3-10.1,12.9c-2.5,3.3-4.6,5.7-6.1,7.4
		c-1.5,1.7-2.6,2.9-3.2,3.5c-0.6,0.6-1.1,1-1.6,1.4c-0.4,0.4-0.8,0.6-1.1,0.6c-0.7,0-1.4-0.3-2.3-1c-0.9-0.6-1.3-1.2-1.3-1.8
		c0-20.6,2.7-38.6,8-54.1c-2.4,2.4-5.3,5.6-8.5,9.6c-3.2,3.9-6.9,8.6-11.1,14.1c-3.3,4.4-6.2,8.2-8.7,11.4C28,68.4,26.1,71,24.6,73
		c-3.2,4.1-5.9,7.5-8.2,10.2c-2.2,2.6-3.9,4.5-5.1,5.7c-0.4,0.5-0.8,0.8-1.1,1C9.9,90.1,9.5,90.3,9.1,90.3z M114.4,44.9
		c-1.1,0-1.7-0.6-1.7-1.7c0-0.3,0.2-0.9,0.7-1.8c0.5-0.9,1-1.8,1.6-2.7c0.6-0.9,1-1.5,1.4-1.9c1.1-1.2,2-2,2.5-2.4
		c0.7-0.3,1.2-0.5,1.8-0.5c1.4,0,2.1,0.6,2.1,1.9c0,0.5-0.3,1-0.9,1.7c-0.5,0.6-1.1,1.1-1.9,1.7c-1,0.7-1.7,1.2-2,1.6l-2.2,3
		c-0.1,0.3-0.2,0.5-0.5,0.8C115.1,44.8,114.8,44.9,114.4,44.9z M97.7,84.6c-1.8,0-3.2-0.4-4-1.1c-0.8-0.7-1.2-1.8-1.2-3.2
		c0-1.4,0.4-3.2,1.3-5.6c0.8-2.4,1.9-5,3.2-7.7c1.4-2.7,2.8-5.4,4.3-7.8c1.5-2.5,2.9-4.5,4.3-6.1c1.4-1.6,2.6-2.4,3.4-2.4
		c1.2,0,1.8,0.5,1.8,1.6c0,0.7-0.6,1.9-1.7,3.7c-1.1,1.8-2.3,3.7-3.6,5.7c-0.5,0.7-1.2,1.7-2.2,2.9c-0.9,1.2-1.8,2.4-2.6,3.5
		c-0.8,1-1.4,1.8-1.7,2.2c-0.7,1-1.3,2.6-2.1,4.8c-0.8,2.2-1.2,3.9-1.2,5.1c0,0.5,0.1,0.9,0.3,1.2c0.3,0.3,0.8,0.4,1.7,0.4
		c1.6,0,3.5-0.5,5.5-1.6c2-1,4.1-2.4,6.2-3.9c2.1-1.6,4.1-3.3,5.9-5c1.9-1.7,3.5-3.2,4.8-4.4c0.3-0.3,0.7-0.4,1.2-0.4
		c1,0,1.5,0.4,1.5,1.2c0,0.7-0.5,1.5-1.4,2.4c-1.8,1.8-3.4,3.3-4.9,4.7c-1.5,1.4-2.9,2.6-4.3,3.6c-2.2,1.6-4.5,3-7.2,4.3
		C102.4,83.9,100,84.6,97.7,84.6z M113.8,86c-1,0-1.6-0.4-1.6-1.3c0-0.3,0.1-0.7,0.4-1.2c0.3-0.5,0.5-0.9,0.7-1.3l8.8-17.7
		c3.8-7.7,5.7-12,5.7-12.8c0-0.9,0.5-1.4,1.4-1.4c1.2,0,1.9,0.7,1.9,2c0,0.5-0.3,1.4-0.9,2.9s-1.3,3.2-2.3,5.1
		c-1.6,3.4-2.9,6-3.9,7.8c2-2.3,4-4.4,6-6.5s4.1-4,6.2-5.8c6.2-5.4,11-8.1,14.3-8.1c2.3,0,3.4,1.1,3.4,3.2c0,2-1.7,6.4-5,13.2
		c-3.3,6.9-5,11.3-5,13.1c0,0.8,0.3,1.3,0.9,1.3c0.2,0,0.5-0.1,0.9-0.2c0.5-0.2,0.9-0.3,1.4-0.3c1.1,0,1.7,0.5,1.7,1.6
		c0,1.3-1.4,2-4.2,2c-1.3,0-2.3-0.3-2.8-0.9c-0.6-0.7-0.9-1.5-0.9-2.5c0-3.1,1.6-7.9,4.8-14.3c3.2-6.3,4.8-10.2,4.8-11.5
		c0-0.8-0.3-1.2-0.9-1.2c-1.4,0-3.8,1.2-7,3.6c-3.5,2.6-6.9,5.6-10.4,9c-3.5,3.4-6.8,7.3-9.9,11.7l-6.9,9.5
		C115,85.7,114.4,86,113.8,86z M158,115.7c-2.7,0-4.8-1-6.2-3.1c-1.4-2-2.1-4.3-2.1-7c0-2,0.1-3.9,0.3-5.8c0.1-1.8,0.4-3.7,0.7-5.5
		c0.2-1,0.7-1.6,1.4-1.6c1.3,0,2,0.7,2,2.1c0,0.4-0.1,1-0.3,1.8c-0.2,0.7-0.3,1.1-0.3,1.5c-0.1,1-0.2,2.1-0.3,3.2
		c-0.1,1.2-0.1,2.4-0.1,3.5c0,5.2,1.9,7.7,5.7,7.7c1.1,0,2.4-0.8,3.8-2.3c1.5-1.5,2.8-3.1,4-4.9c2.7-4.1,5.7-10.6,8.7-19.5l3.2-9.3
		c-5.3,6.3-10.1,9.5-14.3,9.5c-2.6,0-4.6-1-6.1-2.9c-1.4-2-2.2-4.3-2.2-7.2c0-5.6,2.5-11.8,7.4-18.6c5.4-7.3,10.7-10.9,16-10.9
		c4.1,0,6.8,2.4,8.1,7.3c2.5-6,4.8-9,6.9-9c0.8,0,1.2,0.7,1.2,2c0,2.6-1.2,6.1-3.6,10.5c-0.5,0.8-1.2,1.9-2,3.1
		c-0.7,1.2-1.5,2.7-2.4,4.4l-3.3,8.1c-0.7,1.6-1.5,3.6-2.5,6c-1,2.4-2.1,5.1-3.3,8.3c-1.4,3.9-2.8,7.3-4,10.1
		c-1.2,2.9-2.3,5.2-3.2,7.1c-4.2,7.6-8.5,11.4-12.8,11.4H158z M164.3,82.7c4.1,0,10.2-5.5,18.2-16.6l2.8-7.3c-0.5-0.3-0.8-1-1-2.1
		c-0.6-2.8-1.3-4.7-2.1-5.6c-0.8-0.9-1.8-1.4-3.1-1.4c-1.5,0-3.2,0.7-5.2,2.1c-2,1.4-3.8,3.1-5.6,5.1c-1.8,2-3.2,3.9-4.2,5.8
		c-3.1,5.4-4.7,10-4.7,13.8C159.5,80.7,161.1,82.7,164.3,82.7z M196.6,86.7c-3.7,0-5.5-1.2-5.5-3.6c0-1.5,0.5-3,1.6-4.5
		c1.1-1.5,2.4-2.9,3.9-4.1c1.5-1.2,2.9-2.2,4.2-2.8c0.4-0.2,0.9-0.4,1.6-0.6c0.7-0.2,1.3-0.3,1.8-0.3c0.5,0,0.8,0.2,0.8,0.6
		c0,0.3-0.4,0.7-1.1,1.1c-3,1.4-5.4,3.2-7.1,5.2c-1.6,2-2.5,3.6-2.5,4.8c0,1.2,1,1.8,3,1.8c1.7,0,3.5-0.4,5.5-1.3
		c2-0.8,3.9-2,5.7-3.3c1.8-1.4,3.3-2.8,4.5-4.4c1.2-1.6,1.8-3.1,1.8-4.5c0-1-0.3-1.9-1-2.6c-0.6-0.8-1.6-1.4-2.9-1.8l-6.5-2
		c-1.6-0.5-2.8-1.2-3.5-2.1c-0.7-0.8-1.1-1.8-1.1-2.8c0-2,0.7-3.7,2.2-5.3c1.5-1.6,3.4-2.8,5.6-3.7c2.2-0.9,4.4-1.4,6.5-1.4
		c2.1,0,3.9,0.5,5.5,1.6c1.6,1,2.4,2.3,2.4,4c0,1-0.3,1.9-0.9,2.7c-0.5,0.8-1.1,1.3-1.9,1.3c-1.1,0-1.7-0.5-1.7-1.4
		c0-0.3,0.2-0.7,0.5-1.2c0.4-0.5,0.6-1,0.6-1.5c0-2-1.5-2.9-4.5-2.9c-1.6,0-3.3,0.4-4.9,1.1c-1.6,0.7-2.9,1.5-3.9,2.6
		c-1,1.1-1.6,2.3-1.6,3.6c0,1.3,1.3,2.4,3.9,3.1l6.3,2c1.9,0.6,3.2,1.4,3.9,2.4c0.7,1,1.1,2.1,1.1,3.3c0,2.9-1.8,6-5.4,9.1
		C207.6,84.2,202,86.7,196.6,86.7z M260.8,83c-5.3,0-7.9-3-7.9-8.9c0-2.7,0.7-5.6,2-8.6c1.3-3,3-5.8,5.2-8.3
		c2.2-2.6,4.5-4.7,7.2-6.4c2.7-1.6,5.4-2.5,8.1-2.5c2.4,0,4.2,0.9,5.3,2.7c1.1,1.8,1.7,3.9,1.7,6.1c0,2.9-0.6,5.9-1.8,9
		c-1.2,3-2.8,5.8-4.8,8.3c-2,2.5-4.3,4.6-6.9,6.2C266.3,82.2,263.6,83,260.8,83z M260.7,79.9c0.4,0,0.6,0,0.7-0.1
		c2.5-0.3,4.9-1.2,7.1-2.7c2.2-1.5,4-3.4,5.6-5.6c1.6-2.3,2.9-4.7,3.7-7.4c0.9-2.6,1.3-5.2,1.3-7.7c0-1.5-0.4-2.7-1.3-3.5
		c-0.8-0.8-1.9-1.3-3.2-1.3c-1.9,0-3.9,0.8-6.1,2.4c-2.1,1.6-4.1,3.6-6,6c-1.8,2.4-3.3,5-4.5,7.6c-1.2,2.6-1.8,5-1.8,7.1
		C256.2,78.1,257.7,79.9,260.7,79.9z M279.3,115.8c-2.1,0-3.6-0.7-4.4-2.2c-0.9-1.4-1.4-3.2-1.4-5.6c0-5.4,2.5-13.6,7.5-24.8
		c-0.3-0.3-0.4-0.6-0.4-1c0-0.7,0.6-1.3,1.8-2c3.5-7,6.7-13.2,9.6-18.5c3-5.4,5.7-10,8.1-13.8c8.1-12.4,15.4-21,21.9-25.8
		c0.8-0.7,1.7-1.2,2.5-1.6c0.8-0.4,1.6-0.6,2.4-0.6c1,0,1.6,0.4,1.6,1.3c0,0.5-0.2,0.9-0.6,1.5c-0.3,0.5-0.9,1.2-1.8,2.3
		c-1,1.1-2.1,2.4-3.4,3.9c-1.3,1.4-2.7,2.9-4.1,4.5c-1.4,1.6-2.6,3-3.8,4.3c-1.2,1.2-2.1,2.2-2.8,2.9l-9,9.3l-3.1,5
		c-0.8,1.3-1.9,3.1-3.1,5.4c-1.2,2.2-2.6,4.9-4.2,7.9c-0.7,1.2-1.5,2.8-2.5,4.8c-1,2-2.1,4.3-3.4,7c0.5,0.1,1,0.2,1.4,0.4
		c0.5,0.1,0.9,0.3,1.3,0.5c9-2.7,17.4-7.6,25.4-14.5c0.5-0.3,0.8-0.5,1.2-0.5c1.1,0,1.7,0.5,1.7,1.5c0,0.3-0.1,0.5-0.3,0.8
		c-0.1,0.3-0.3,0.5-0.5,0.8c-1,1-2.4,2.3-4.2,3.6c-1.8,1.4-4.1,2.8-6.9,4.4c-2.4,1.3-4.6,2.5-6.9,3.6c-2.2,1-4.2,1.9-6.3,2.6
		c1.8,2.2,2.7,5.1,2.7,8.5c0,4.8-1.4,9.7-4.2,14.9C287.5,112.8,283.7,115.8,279.3,115.8z M278.7,112.9c1.9,0,3.7-0.8,5.4-2.4
		c1.8-1.6,3.3-3.6,4.5-6.1c0.9-1.8,1.7-3.9,2.3-6.4c0.7-2.4,1-4.5,1-6.4c0-3.7-1.1-6.1-3.3-7.4c-0.8,0.1-1.6,0.2-2.4,0.3
		c-0.7,0.1-1.4,0.2-2.1,0.1v0.1c-5.5,12.2-8.2,20.6-8.2,25.1c0,1,0.3,1.7,0.8,2.2C277.2,112.6,277.9,112.9,278.7,112.9z M364.9,87.7
		c-4.2,0-8.1-0.7-11.9-2.1c-3.7-1.4-6.6-3.3-8.9-5.9c-2.3-2.5-3.4-5.6-3.4-9c0-1.1,0.2-2.3,0.6-3.5c0.5-1.7,1.1-2.5,1.8-2.5
		c1,0,1.5,0.6,1.5,1.7c0,0.5-0.1,1.1-0.4,1.9c-0.3,0.8-0.4,1.5-0.4,2.3c0,2.9,1,5.4,2.9,7.5c2,2.1,4.5,3.7,7.5,4.8
		c3.1,1.1,6.4,1.7,9.8,1.7c7.4,0,13.7-1.8,18.8-5.3c2.7-1.8,4.9-4,6.7-6.6c1.8-2.6,2.6-5.4,2.6-8.3c0-2.7-0.7-4.9-2.1-6.7
		c-1.3-1.8-3.1-3.3-5.5-4.5c-2.4-1.3-5.1-2.5-8.1-3.5c-8.8-3.1-13.1-6.8-13.1-11.2c0-2.4,0.9-4.6,2.6-6.8c1.8-2.2,3.9-4.1,6.5-5.7
		c2.5-1.7,5-3,7.4-3.8c3.5-1.3,6.7-2.2,9.6-2.6c3-0.5,5.8-0.8,8.3-0.8c3.5,0,5.9,0.8,7.4,2.5c1.4,1.6,2.2,3.5,2.2,5.9
		c0,1.8-0.5,3.6-1.4,5.3c-0.9,1.7-2,3.2-3.5,4.4c-1.7,1.4-3.1,2.2-4.1,2.2c-1.1,0-1.7-0.5-1.7-1.6c0-0.6,0.3-1,0.9-1.3
		c4.4-2.2,6.6-5.3,6.6-9.1c0-1.7-0.5-2.9-1.5-3.7c-0.9-0.8-2.5-1.3-4.8-1.3c-2.1,0-4.4,0.2-7.1,0.7c-2.5,0.5-5.2,1.1-7.8,2.1
		c-2.4,0.8-4.7,2-7.2,3.4c-2.4,1.4-4.4,3-6.1,4.7c-1.6,1.7-2.4,3.4-2.4,5.1c0,3.6,3.5,6.5,10.4,8.6c12,3.8,17.9,9.6,17.9,17.4
		c0,2.4-0.6,4.7-1.7,7c-1,2.3-2.5,4.4-4.2,6.3c-1.7,1.9-3.5,3.5-5.5,4.9c-2.8,2-5.9,3.4-9.2,4.2C371.7,87.3,368.3,87.7,364.9,87.7z
		 M423.5,44.9c-1.1,0-1.7-0.6-1.7-1.7c0-0.3,0.2-0.9,0.7-1.8c0.5-0.9,1-1.8,1.6-2.7c0.6-0.9,1-1.5,1.4-1.9c1.1-1.2,2-2,2.5-2.4
		c0.7-0.3,1.2-0.5,1.8-0.5c1.4,0,2.1,0.6,2.1,1.9c0,0.5-0.3,1-0.9,1.7c-0.5,0.6-1.1,1.1-1.9,1.7c-1,0.7-1.7,1.2-2,1.6l-2.2,3
		c-0.1,0.3-0.2,0.5-0.5,0.8C424.3,44.8,423.9,44.9,423.5,44.9z M406.8,84.6c-1.8,0-3.2-0.4-4-1.1c-0.8-0.7-1.2-1.8-1.2-3.2
		c0-1.4,0.4-3.2,1.3-5.6c0.9-2.4,1.9-5,3.2-7.7c1.4-2.7,2.8-5.4,4.3-7.8c1.5-2.5,2.9-4.5,4.3-6.1c1.4-1.6,2.6-2.4,3.4-2.4
		c1.2,0,1.8,0.5,1.8,1.6c0,0.7-0.6,1.9-1.7,3.7c-1.1,1.8-2.3,3.7-3.6,5.7c-0.5,0.7-1.2,1.7-2.2,2.9c-0.9,1.2-1.8,2.4-2.6,3.5
		c-0.8,1-1.4,1.8-1.7,2.2c-0.7,1-1.3,2.6-2.1,4.8c-0.8,2.2-1.2,3.9-1.2,5.1c0,0.5,0.1,0.9,0.3,1.2c0.3,0.3,0.8,0.4,1.7,0.4
		c1.6,0,3.5-0.5,5.5-1.6c2-1,4.1-2.4,6.2-3.9c2.1-1.6,4.1-3.3,5.9-5c1.9-1.7,3.5-3.2,4.8-4.4c0.3-0.3,0.7-0.4,1.2-0.4
		c1,0,1.5,0.4,1.5,1.2c0,0.7-0.5,1.5-1.4,2.4c-1.8,1.8-3.4,3.3-4.9,4.7c-1.5,1.4-2.9,2.6-4.3,3.6c-2.2,1.6-4.5,3-7.2,4.3
		C411.6,83.9,409.1,84.6,406.8,84.6z M437,86.2c-3,0-5.3-0.9-7-2.7c-1.6-1.9-2.4-4.4-2.4-7.4c0-2.2,0.4-4.9,1.2-8
		c1.4-5.3,3.7-11.4,7-18.4c2.5-5.3,5.3-10.5,8.2-15.6c2.9-5.2,6.2-10.2,9.7-15.2c5.6-8,9.5-12,11.8-12c1.4,0,2.2,0.4,2.2,1.2
		c0,1.1-1.8,3.9-5.5,8.3l-6.9,8.3c-5.9,7.2-10.8,14.5-14.6,22c-3.7,7.5-6.6,15-8.7,22.5c-0.6,2.2-0.9,4.2-0.9,6.1c0,5,2,7.4,6.1,7.4
		c1.4,0,2.9-0.4,4.4-1.3c1.5-0.8,2.3-1.2,2.5-1.2c0.8,0,1.2,0.6,1.2,1.7c0,1-0.4,1.7-1.1,2.3C442,85.5,439.6,86.2,437,86.2z
		 M472.2,44.9c-1.1,0-1.7-0.6-1.7-1.7c0-0.3,0.2-0.9,0.7-1.8c0.5-0.9,1-1.8,1.6-2.7c0.6-0.9,1-1.5,1.4-1.9c1.1-1.2,2-2,2.5-2.4
		c0.7-0.3,1.2-0.5,1.8-0.5c1.4,0,2.1,0.6,2.1,1.9c0,0.5-0.3,1-0.9,1.7c-0.5,0.6-1.1,1.1-1.9,1.7c-1,0.7-1.7,1.2-2,1.6l-2.2,3
		c-0.1,0.3-0.2,0.5-0.5,0.8C473,44.8,472.7,44.9,472.2,44.9z M455.5,84.6c-1.8,0-3.2-0.4-4-1.1c-0.8-0.7-1.2-1.8-1.2-3.2
		c0-1.4,0.4-3.2,1.3-5.6c0.8-2.4,1.9-5,3.2-7.7c1.4-2.7,2.8-5.4,4.3-7.8s2.9-4.5,4.3-6.1c1.4-1.6,2.6-2.4,3.4-2.4
		c1.2,0,1.8,0.5,1.8,1.6c0,0.7-0.6,1.9-1.7,3.7c-1.1,1.8-2.3,3.7-3.6,5.7c-0.5,0.7-1.2,1.7-2.2,2.9s-1.8,2.4-2.6,3.5
		c-0.8,1-1.4,1.8-1.7,2.2c-0.7,1-1.3,2.6-2.1,4.8c-0.8,2.2-1.2,3.9-1.2,5.1c0,0.5,0.1,0.9,0.3,1.2c0.3,0.3,0.8,0.4,1.7,0.4
		c1.6,0,3.5-0.5,5.5-1.6c2-1,4.1-2.4,6.2-3.9c2.1-1.6,4.1-3.3,5.9-5c1.9-1.7,3.5-3.2,4.8-4.4c0.3-0.3,0.7-0.4,1.2-0.4
		c1,0,1.5,0.4,1.5,1.2c0,0.7-0.5,1.5-1.4,2.4c-1.8,1.8-3.4,3.3-4.9,4.7c-1.5,1.4-2.9,2.6-4.3,3.6c-2.2,1.6-4.5,3-7.2,4.3
		C460.3,83.9,457.8,84.6,455.5,84.6z M487.1,84.9c-3.5,0-6.2-1-8.1-3c-2-2-2.9-4.7-2.9-8.1c0-5.9,2.8-12.3,8.3-19.2
		c2.9-3.5,5.8-6.2,8.7-8c3-1.9,5.8-2.8,8.4-2.8c2.3,0,4.1,0.8,5.3,2.4c1.2,1.6,1.9,3.5,1.9,5.9c0,1.4-0.2,2.9-0.6,4.4
		c-0.3,1-0.8,1.6-1.6,1.6c-1.2,0-1.9-0.7-1.9-2.1c0-0.6,0.1-1.3,0.3-2.3c0.3-1,0.4-1.9,0.4-2.8c0-2.6-1.3-3.9-3.8-3.9
		c-1.4,0-3,0.5-5,1.5c-1.9,1-3.8,2.3-5.7,3.9c-1.9,1.6-3.6,3.4-5,5.4c-4.4,5.9-6.6,11.3-6.6,16c0,5.4,2.5,8.1,7.3,8.1
		c3.1,0,6-0.5,8.8-1.4c2.8-1,6.1-3,9.9-6c2.4-1.8,4.1-3.3,5.3-4.4c1.2-1.1,2.5-2.3,3.8-3.5c0.4-0.3,0.8-0.4,1.1-0.4
		c0.3,0,0.7,0.1,1,0.3c0.3,0.2,0.5,0.5,0.5,0.9c0,0.7-0.7,1.7-2,3c-1.1,1-2.3,2.2-3.5,3.3c-1.2,1.1-3.2,2.7-5.9,4.7
		c-2.9,2.2-5.9,3.9-9.2,5C493.2,84.3,490.1,84.9,487.1,84.9z M521.2,83c-5.3,0-7.9-3-7.9-8.9c0-2.7,0.7-5.6,2-8.6
		c1.3-3,3-5.8,5.2-8.3c2.2-2.6,4.5-4.7,7.2-6.4c2.7-1.6,5.4-2.5,8.1-2.5c2.4,0,4.2,0.9,5.3,2.7c1.1,1.8,1.7,3.9,1.7,6.1
		c0,2.9-0.6,5.9-1.8,9c-1.2,3-2.8,5.8-4.8,8.3c-2,2.5-4.3,4.6-6.9,6.2C526.7,82.2,524,83,521.2,83z M521.1,79.9c0.4,0,0.6,0,0.7-0.1
		c2.5-0.3,4.9-1.2,7.1-2.7c2.2-1.5,4-3.4,5.6-5.6c1.6-2.3,2.9-4.7,3.7-7.4c0.9-2.6,1.3-5.2,1.3-7.7c0-1.5-0.4-2.7-1.3-3.5
		c-0.8-0.8-1.9-1.3-3.2-1.3c-1.9,0-3.9,0.8-6.1,2.4c-2.1,1.6-4.1,3.6-6,6c-1.8,2.4-3.3,5-4.5,7.6c-1.2,2.6-1.8,5-1.8,7.1
		C516.6,78.1,518.1,79.9,521.1,79.9z M542.4,86c-1,0-1.6-0.4-1.6-1.3c0-0.3,0.1-0.7,0.4-1.2c0.3-0.5,0.5-0.9,0.7-1.3l8.8-17.7
		c3.8-7.7,5.7-12,5.7-12.8c0-0.9,0.5-1.4,1.4-1.4c1.2,0,1.9,0.7,1.9,2c0,0.5-0.3,1.4-0.9,2.9s-1.3,3.2-2.3,5.1
		c-1.6,3.4-2.9,6-3.9,7.8c2-2.3,4-4.4,6-6.5c2-2,4.1-4,6.2-5.8c6.2-5.4,11-8.1,14.3-8.1c2.3,0,3.4,1.1,3.4,3.2c0,2-1.7,6.4-5,13.2
		c-3.3,6.9-5,11.3-5,13.1c0,0.8,0.3,1.3,0.9,1.3c0.2,0,0.5-0.1,0.9-0.2c0.5-0.2,0.9-0.3,1.4-0.3c1.1,0,1.7,0.5,1.7,1.6
		c0,1.3-1.4,2-4.2,2c-1.3,0-2.3-0.3-2.8-0.9c-0.6-0.7-0.9-1.5-0.9-2.5c0-3.1,1.6-7.9,4.8-14.3c3.2-6.3,4.8-10.2,4.8-11.5
		c0-0.8-0.3-1.2-0.9-1.2c-1.4,0-3.8,1.2-7,3.6c-3.5,2.6-6.9,5.6-10.4,9c-3.5,3.4-6.8,7.3-9.9,11.7l-6.9,9.5
		C543.6,85.7,543.1,86,542.4,86z"/>
</g>
</svg>
