<?xml version="1.0" encoding="utf-8"?>
<!-- Generator: Adobe Illustrator 23.0.3, SVG Export Plug-In . SVG Version: 6.00 Build 0)  -->
<svg version="1.1" id="Layer_1" xmlns="http://www.w3.org/2000/svg" xmlns:xlink="http://www.w3.org/1999/xlink" x="0px" y="0px"
	 viewBox="0 0 468 108" style="enable-background:new 0 0 468 108;" xml:space="preserve">
<style type="text/css">
	.st0{fill:url(#SVGID_1_);}
</style>
<g>
	
		<linearGradient id="SVGID_1_" gradientUnits="userSpaceOnUse" x1="232.1333" y1="92.8062" x2="232.1333" y2="19" gradientTransform="matrix(1 0 0 -1 0 110)">
		<stop  offset="0" style="stop-color:#FF68D5"/>
		<stop  offset="0.5099" style="stop-color:#F3A7FF"/>
		<stop  offset="1" style="stop-color:#FF33AD"/>
	</linearGradient>
	<path class="st0" d="M30,74.2c-4.2,0-8.1-0.7-11.9-2.1c-3.7-1.4-6.6-3.3-8.9-5.9c-2.3-2.5-3.4-5.6-3.4-9c0-1.1,0.2-2.3,0.6-3.5
		c0.5-1.7,1.1-2.5,1.8-2.5c1,0,1.5,0.6,1.5,1.7c0,0.5-0.1,1.1-0.4,1.9C9,55.5,8.8,56.2,8.8,57c0,2.9,1,5.4,2.9,7.5
		c2,2.1,4.5,3.7,7.5,4.8c3.1,1.1,6.4,1.7,9.8,1.7c7.4,0,13.7-1.8,18.8-5.3c2.7-1.8,4.9-4,6.7-6.6c1.8-2.6,2.6-5.4,2.6-8.3
		c0-2.7-0.7-4.9-2.1-6.7c-1.3-1.8-3.1-3.3-5.5-4.5c-2.4-1.3-5.1-2.5-8.1-3.5c-8.8-3.1-13.1-6.8-13.1-11.2c0-2.4,0.9-4.6,2.6-6.8
		c1.8-2.2,3.9-4.1,6.5-5.7c2.5-1.7,5-3,7.3-3.8c3.5-1.3,6.7-2.2,9.6-2.6c3-0.5,5.8-0.8,8.3-0.8c3.5,0,5.9,0.8,7.3,2.4
		c1.4,1.6,2.2,3.5,2.2,5.9c0,1.8-0.5,3.6-1.4,5.3c-0.8,1.7-2,3.2-3.5,4.4c-1.7,1.4-3.1,2.2-4.1,2.2c-1.1,0-1.7-0.5-1.7-1.6
		c0-0.6,0.3-1,0.9-1.3c4.4-2.2,6.6-5.3,6.6-9.1c0-1.7-0.5-2.9-1.5-3.7c-0.9-0.8-2.5-1.3-4.8-1.3c-2.1,0-4.4,0.2-7.1,0.7
		c-2.5,0.5-5.2,1.1-7.8,2.1c-2.4,0.8-4.7,2-7.2,3.4c-2.4,1.4-4.4,3-6.1,4.7c-1.6,1.7-2.4,3.4-2.4,5.1c0,3.6,3.5,6.5,10.4,8.6
		c12,3.8,17.9,9.6,17.9,17.4c0,2.4-0.6,4.7-1.7,7c-1,2.3-2.4,4.4-4.2,6.3c-1.7,1.9-3.5,3.5-5.5,4.9c-2.8,2-5.9,3.4-9.2,4.2
		C36.8,73.8,33.5,74.2,30,74.2z M65.7,97c-3.1,0-4.6-2.2-4.6-6.6c0-5.7,2.5-14.9,7.5-27.4c0.8-2.1,1.9-4.3,3-6.6
		c1.2-2.3,2.5-4.7,4.1-7.3c1.6-2.7,3.2-5.1,4.6-7.2c1.5-2,2.8-3.7,3.9-4.9c0.4-0.4,0.7-0.7,1-0.8c0.3-0.1,0.6-0.2,0.8-0.2
		c1.7,0,3.6,0.5,5.8,1.5c2.2,1,4.1,2.2,5.8,3.7c1.6,1.3,2.8,2.9,3.8,4.7c1,1.8,1.5,3.7,1.5,5.7c0,1.4-0.3,2.9-0.9,4.4
		c-0.5,1.4-1.2,2.9-2.2,4.3c1.7-0.3,3.8-1.1,6.2-2.3c2.5-1.2,5-3,7.5-5.4c0.3-0.3,0.6-0.4,1.1-0.4c1,0,1.5,0.4,1.5,1.2
		c0,0.3-0.2,0.8-0.5,1.3c-0.3,0.5-0.8,1-1.5,1.8c-4.8,4.4-10.6,7-17.4,7.6c-1,1-2.1,2.1-3.2,3c-1.1,0.9-2.3,1.8-3.5,2.5
		c-3.8,2.3-7,3.4-9.7,3.4c-1.1,0-2-0.4-2.7-1.1c-0.7-0.7-1.1-1.5-1.1-2.4c0-3,2.6-5.3,7.8-6.9c1.9-0.5,3.8-1,5.7-1.4
		c1.9-0.4,3.8-0.8,5.6-1.3c1.3-2,2.3-3.8,2.8-5.3c0.7-1.5,1-2.8,1-3.8c0-3.5-2.6-6.8-7.7-9.9c-2-1.2-3.6-1.8-4.8-1.8
		c-5.4,5.9-10.4,14.1-15.2,24.7c-5,10.9-7.4,19.5-7.4,25.8c0,1.5,0.1,2.5,0.4,3c0.3,0.5,0.7,0.8,1.4,0.8c0.2,0,0.4,0,0.5-0.1
		c0.1,0,0.3,0,0.4,0c0.8,0,1.3,0.5,1.3,1.6C68.1,96.5,67.3,97,65.7,97z M81,70.2c2.4,0,5.9-1.9,10.5-5.7c-1,0.1-2.1,0.3-3,0.5
		c-0.9,0.2-2.3,0.6-4,1.1C81.5,66.9,80,68,80,69.3C80,69.9,80.3,70.2,81,70.2z M120.6,71.8c-2.7,0-4.9-0.9-6.5-2.8
		c-1.6-1.9-2.4-4.2-2.4-7c0-4.7,1.6-9.5,4.7-14.5c0.8-1.4,1.8-2.7,2.9-4c1.1-1.4,2.3-2.7,3.6-3.9c2-1.9,4-3.5,6.2-4.7
		s4.2-1.9,6.3-1.9c3.3,0,5,1.6,5,4.7c0,3.9-2.3,7.5-6.9,10.7c-4.2,2.9-8.4,4.3-12.5,4.3c-0.7,0-1.4,0-2-0.1c-0.5-0.1-1-0.3-1.5-0.4
		c-0.7,1.2-1.2,2.8-1.8,4.8c-0.5,2-0.8,3.7-0.8,5.1c0,4.3,1.9,6.5,5.7,6.5c3.1,0,6-0.5,8.7-1.6c2.7-1.1,6-3.2,9.8-6.2
		c2.4-1.8,4.1-3.3,5.3-4.4c1.2-1.1,2.4-2.3,3.8-3.5c0.4-0.3,0.8-0.4,1.1-0.4s0.7,0.1,1,0.3c0.3,0.2,0.5,0.5,0.5,0.9
		c0,0.7-0.7,1.7-2,3c-1.1,1-2.3,2.2-3.5,3.3c-1.2,1.1-3.2,2.7-5.9,4.7c-2.9,2.2-6,4-9.4,5.2C126.8,71.1,123.6,71.8,120.6,71.8z
		 M120.5,49.5c2.1,0,4.1-0.3,6-1s3.7-1.6,5.4-2.8c3.8-2.8,5.7-5.5,5.7-7.9c0-1.1-0.7-1.7-2.1-1.7c-2.6,0-5.7,1.6-9.1,4.8
		c-1.7,1.6-3.1,3-4.2,4.3c-1,1.2-2,2.6-2.9,4.1C119.6,49.5,120,49.5,120.5,49.5z M157.3,71.4c-3.5,0-6.2-1-8.1-3
		c-2-2-2.9-4.7-2.9-8.1c0-5.9,2.8-12.3,8.3-19.2c2.9-3.5,5.8-6.2,8.7-8c3-1.9,5.8-2.8,8.4-2.8c2.3,0,4.1,0.8,5.3,2.4
		c1.2,1.6,1.9,3.5,1.9,5.9c0,1.4-0.2,2.9-0.6,4.4c-0.3,1-0.8,1.6-1.6,1.6c-1.2,0-1.9-0.7-1.9-2.1c0-0.6,0.1-1.3,0.3-2.3
		c0.3-1,0.4-1.9,0.4-2.8c0-2.6-1.3-3.9-3.8-3.9c-1.4,0-3,0.5-5,1.5c-1.9,1-3.8,2.3-5.7,3.9c-1.9,1.6-3.6,3.4-5,5.4
		c-4.4,5.9-6.6,11.3-6.6,16c0,5.4,2.4,8.1,7.4,8.1c3.1,0,6-0.5,8.8-1.4c2.8-1,6.1-3,9.9-6c2.4-1.8,4.1-3.3,5.3-4.4
		c1.2-1.1,2.5-2.3,3.8-3.5c0.4-0.3,0.8-0.4,1.1-0.4s0.7,0.1,1,0.3s0.5,0.5,0.5,0.9c0,0.7-0.7,1.7-2,3c-1.1,1-2.3,2.2-3.5,3.3
		c-1.2,1.1-3.2,2.7-5.9,4.7c-2.9,2.2-5.9,3.9-9.2,5C163.4,70.8,160.3,71.4,157.3,71.4z M202.7,31.4c-1.1,0-1.7-0.6-1.7-1.7
		c0-0.3,0.2-0.9,0.7-1.8c0.5-0.9,1-1.8,1.6-2.7c0.6-0.9,1-1.5,1.4-1.9c1.1-1.2,2-2,2.5-2.4c0.7-0.3,1.2-0.5,1.8-0.5
		c1.4,0,2.1,0.6,2.1,1.9c0,0.5-0.3,1-0.9,1.7c-0.5,0.6-1.1,1.1-1.9,1.7c-1,0.7-1.7,1.2-2,1.6l-2.2,3c-0.1,0.3-0.2,0.5-0.5,0.8
		C203.5,31.3,203.1,31.4,202.7,31.4z M186,71.1c-1.8,0-3.2-0.4-4-1.1c-0.8-0.7-1.2-1.8-1.2-3.2c0-1.4,0.4-3.2,1.3-5.6
		c0.9-2.4,1.9-5,3.2-7.7c1.4-2.7,2.8-5.4,4.3-7.8c1.5-2.5,2.9-4.5,4.3-6.1c1.4-1.6,2.6-2.5,3.4-2.5c1.2,0,1.8,0.5,1.8,1.6
		c0,0.7-0.6,1.9-1.7,3.7c-1.1,1.8-2.3,3.7-3.6,5.7c-0.5,0.7-1.2,1.7-2.2,2.9c-0.9,1.2-1.8,2.4-2.6,3.5c-0.8,1-1.4,1.8-1.7,2.2
		c-0.7,1-1.3,2.6-2.1,4.8c-0.8,2.2-1.2,3.9-1.2,5.1c0,0.5,0.1,0.9,0.3,1.2c0.3,0.3,0.8,0.4,1.7,0.4c1.6,0,3.5-0.5,5.5-1.6
		c2-1,4.1-2.4,6.2-3.9c2.1-1.6,4.1-3.3,5.9-5c1.9-1.7,3.5-3.2,4.8-4.4c0.3-0.3,0.7-0.4,1.2-0.4c1,0,1.5,0.4,1.5,1.2
		c0,0.7-0.5,1.5-1.4,2.4c-1.8,1.8-3.4,3.3-4.9,4.7c-1.5,1.4-2.9,2.6-4.3,3.6c-2.2,1.6-4.5,3-7.2,4.3C190.8,70.4,188.3,71.1,186,71.1
		z M199.4,102.3c-2.1,0-3.6-0.7-4.4-2.2c-0.9-1.4-1.4-3.2-1.4-5.6c0-5.4,2.5-13.6,7.5-24.8c-0.3-0.3-0.4-0.6-0.4-1
		c0-0.7,0.6-1.3,1.8-2c3.5-7,6.7-13.2,9.6-18.5c3-5.4,5.7-10,8.1-13.8c8.1-12.4,15.4-21,21.9-25.8c0.8-0.7,1.7-1.2,2.4-1.6
		s1.6-0.6,2.4-0.6c1,0,1.6,0.4,1.6,1.3c0,0.5-0.2,0.9-0.6,1.5c-0.3,0.5-0.9,1.2-1.8,2.3c-1,1.1-2.1,2.4-3.4,3.9
		c-1.3,1.4-2.7,2.9-4.1,4.5c-1.4,1.6-2.6,3-3.8,4.3c-1.2,1.2-2.1,2.2-2.8,2.9l-9,9.3l-3.1,5c-0.8,1.3-1.9,3.1-3.1,5.4
		c-1.2,2.2-2.6,4.9-4.2,7.9c-0.7,1.2-1.5,2.8-2.5,4.8c-1,2-2.1,4.3-3.4,7c0.5,0.1,1,0.2,1.4,0.4c0.5,0.1,0.9,0.3,1.3,0.5
		c9-2.7,17.4-7.6,25.4-14.5c0.5-0.3,0.8-0.5,1.2-0.5c1.1,0,1.7,0.5,1.7,1.5c0,0.3-0.1,0.5-0.3,0.8c-0.1,0.3-0.3,0.5-0.5,0.8
		c-1,1-2.4,2.3-4.2,3.6c-1.8,1.4-4.1,2.8-6.9,4.4c-2.4,1.3-4.6,2.5-6.9,3.6c-2.2,1-4.2,1.9-6.3,2.6c1.8,2.2,2.7,5.1,2.7,8.5
		c0,4.8-1.4,9.7-4.2,14.9C207.6,99.3,203.7,102.3,199.4,102.3z M198.8,99.4c1.9,0,3.7-0.8,5.4-2.4c1.8-1.6,3.3-3.6,4.5-6.1
		c0.9-1.8,1.7-3.9,2.3-6.4c0.7-2.4,1-4.5,1-6.4c0-3.7-1.1-6.1-3.3-7.3c-0.8,0.1-1.6,0.2-2.4,0.3c-0.7,0.1-1.4,0.2-2.1,0.1v0.1
		c-5.5,12.2-8.2,20.6-8.2,25.1c0,1,0.3,1.7,0.8,2.2C197.2,99.1,197.9,99.4,198.8,99.4z M259.1,31.4c-1.1,0-1.7-0.6-1.7-1.7
		c0-0.3,0.2-0.9,0.7-1.8c0.5-0.9,1-1.8,1.6-2.7c0.6-0.9,1-1.5,1.4-1.9c1.1-1.2,2-2,2.5-2.4c0.7-0.3,1.2-0.5,1.8-0.5
		c1.4,0,2.1,0.6,2.1,1.9c0,0.5-0.3,1-0.9,1.7c-0.5,0.6-1.1,1.1-1.9,1.7c-1,0.7-1.7,1.2-2,1.6l-2.2,3c-0.1,0.3-0.2,0.5-0.5,0.8
		C259.9,31.3,259.6,31.4,259.1,31.4z M242.5,71.1c-1.8,0-3.2-0.4-4-1.1c-0.8-0.7-1.2-1.8-1.2-3.2c0-1.4,0.4-3.2,1.3-5.6
		c0.8-2.4,1.9-5,3.2-7.7c1.4-2.7,2.8-5.4,4.3-7.8c1.5-2.5,2.9-4.5,4.3-6.1c1.4-1.6,2.6-2.5,3.4-2.5c1.2,0,1.8,0.5,1.8,1.6
		c0,0.7-0.6,1.9-1.7,3.7c-1.1,1.8-2.3,3.7-3.6,5.7c-0.5,0.7-1.2,1.7-2.2,2.9c-0.9,1.2-1.8,2.4-2.6,3.5c-0.8,1-1.4,1.8-1.7,2.2
		c-0.7,1-1.3,2.6-2.1,4.8c-0.8,2.2-1.2,3.9-1.2,5.1c0,0.5,0.1,0.9,0.3,1.2c0.3,0.3,0.8,0.4,1.7,0.4c1.6,0,3.5-0.5,5.5-1.6
		c2-1,4.1-2.4,6.2-3.9c2.1-1.6,4.1-3.3,5.9-5c1.9-1.7,3.5-3.2,4.8-4.4c0.3-0.3,0.7-0.4,1.2-0.4c1,0,1.5,0.4,1.5,1.2
		c0,0.7-0.5,1.5-1.4,2.4c-1.8,1.8-3.4,3.3-4.9,4.7c-1.5,1.4-2.9,2.6-4.3,3.6c-2.2,1.6-4.5,3-7.2,4.3
		C247.2,70.4,244.8,71.1,242.5,71.1z M274.1,71.4c-3.5,0-6.2-1-8.1-3s-2.9-4.7-2.9-8.1c0-5.9,2.8-12.3,8.3-19.2
		c2.9-3.5,5.8-6.2,8.7-8c3-1.9,5.8-2.8,8.4-2.8c2.3,0,4.1,0.8,5.3,2.4c1.2,1.6,1.9,3.5,1.9,5.9c0,1.4-0.2,2.9-0.6,4.4
		c-0.3,1-0.8,1.6-1.6,1.6c-1.2,0-1.9-0.7-1.9-2.1c0-0.6,0.1-1.3,0.3-2.3c0.3-1,0.4-1.9,0.4-2.8c0-2.6-1.3-3.9-3.8-3.9
		c-1.4,0-3,0.5-5,1.5c-1.9,1-3.8,2.3-5.7,3.9c-1.9,1.6-3.6,3.4-5,5.4c-4.4,5.9-6.6,11.3-6.6,16c0,5.4,2.4,8.1,7.4,8.1
		c3.1,0,6-0.5,8.8-1.4c2.8-1,6.1-3,9.9-6c2.4-1.8,4.1-3.3,5.3-4.4c1.2-1.1,2.5-2.3,3.8-3.5c0.4-0.3,0.8-0.4,1.1-0.4
		c0.3,0,0.7,0.1,1,0.3s0.5,0.5,0.5,0.9c0,0.7-0.7,1.7-2,3c-1.1,1-2.3,2.2-3.5,3.3c-1.2,1.1-3.2,2.7-5.9,4.7c-2.9,2.2-5.9,3.9-9.2,5
		C280.2,70.8,277.1,71.4,274.1,71.4z M302.6,71c-3.8,0-5.7-1.8-5.7-5.4c0-2.4,0.6-4.9,1.7-7.5c1.2-2.7,2.7-5.4,4.7-7.9
		c2-2.6,4.1-5,6.6-7.1c2.4-2.2,4.9-3.9,7.4-5.1c2.5-1.3,5-2,7.4-2c4.2,0,6.3,2.1,6.3,6.2c0,2.7-0.7,4-2,4c-1.2,0-1.8-0.6-1.8-1.7
		c0-0.5,0.1-0.9,0.3-1.4c0.3-0.5,0.4-1.1,0.4-1.7c0-1.8-1.2-2.7-3.7-2.7c-4,0-9,3-15,9.1c-1.4,1.5-2.8,3.3-4.2,5.3
		c-1.4,2-2.5,4.1-3.4,6.2c-0.8,2-1.3,4-1.3,5.8c0,1.8,1,2.6,2.9,2.6c1.7,0,3.5-0.5,5.4-1.6c2-1,3.7-2.1,5.1-3.2
		c2.9-2.2,5.8-5.1,8.8-8.8c0.5-0.5,1-1.2,1.8-2.1s1.5-1.8,2.5-2.8c0.3-0.3,0.7-0.5,1.2-0.5c1,0,1.6,0.5,1.6,1.6l-3.7,5.6
		c-2.5,3.7-3.7,6.7-3.7,9c0,1.7,0.8,2.5,2.4,2.5c1.4,0,2.9-0.4,4.5-1.1c1.6-0.7,3-1.4,4-2.2c2.1-1.4,4.3-3.1,6.6-5.1
		c2.3-2.1,4.5-4.2,6.6-6.3c0.3-0.3,0.7-0.4,1.2-0.4c1,0,1.5,0.4,1.5,1.2c0,0.7-0.5,1.5-1.4,2.4c-2.6,2.6-5,4.9-7.1,6.8
		c-2.1,1.8-4.1,3.3-6,4.5c-1.2,0.7-2.8,1.5-4.6,2.3c-1.8,0.8-3.9,1.2-6.3,1.2c-3.2,0-4.8-1.7-4.8-5.1c0-1.3,0.2-2.4,0.5-3.2
		C313.2,68.1,307.7,71,302.6,71z M343,76.8c-1.2,0-1.9-1-1.9-2.9c0-2.9,1.6-7.9,4.8-15.1c3.3-7.2,8.1-16.6,14.5-28.2
		c-2.5,0-4.8,0.3-7.1,1c-2.2,0.6-3.3,1.3-3.4,2.3c-0.1,0.3-0.2,0.5-0.5,0.8c-0.2,0.2-0.5,0.3-1,0.3c-1,0-1.6-0.5-1.6-1.6
		c0-1.7,1.3-3.1,4-4.2c2.7-1.1,6.4-1.7,11.3-1.7l6.8-11.2c0.5-0.7,0.9-1.5,1.5-2.4c0.5-0.9,1.1-1.9,1.8-2.9c0.7-0.9,1.4-1.4,2.3-1.4
		c0.5,0,0.9,0.2,1.2,0.5c0.3,0.3,0.4,0.6,0.4,0.9c0,1-1.4,3.6-4.3,7.8c-3.6,5.3-5.5,8.2-5.8,8.6c1,0,2.4,0.1,4.4,0.3
		c2,0.1,4.3,0.4,7,0.7c1,0.1,1.5,0.6,1.5,1.5c0,1-0.6,1.6-1.8,1.6c-0.5,0-1.4-0.1-2.7-0.2c-1.4-0.2-2.8-0.4-4.4-0.5
		c-1.6-0.1-2.9-0.2-4-0.1l-1.5,0.1c-13.3,23.3-19.9,37.8-19.8,43.5l0.1,0.8v0.2C344.6,76.2,344.1,76.8,343,76.8z M386.3,31.4
		c-1.1,0-1.7-0.6-1.7-1.7c0-0.3,0.2-0.9,0.7-1.8c0.5-0.9,1-1.8,1.6-2.7c0.6-0.9,1-1.5,1.4-1.9c1.1-1.2,2-2,2.5-2.4
		c0.7-0.3,1.2-0.5,1.8-0.5c1.4,0,2.1,0.6,2.1,1.9c0,0.5-0.3,1-0.9,1.7c-0.5,0.6-1.1,1.1-1.9,1.7c-1,0.7-1.7,1.2-2,1.6l-2.2,3
		c-0.1,0.3-0.2,0.5-0.5,0.8C387.1,31.3,386.8,31.4,386.3,31.4z M369.7,71.1c-1.8,0-3.2-0.4-4-1.1c-0.8-0.7-1.2-1.8-1.2-3.2
		c0-1.4,0.4-3.2,1.3-5.6c0.8-2.4,1.9-5,3.2-7.7c1.4-2.7,2.8-5.4,4.3-7.8c1.5-2.5,2.9-4.5,4.3-6.1c1.4-1.6,2.6-2.5,3.4-2.5
		c1.2,0,1.8,0.5,1.8,1.6c0,0.7-0.6,1.9-1.7,3.7c-1.1,1.8-2.3,3.7-3.6,5.7c-0.5,0.7-1.2,1.7-2.2,2.9c-0.9,1.2-1.8,2.4-2.6,3.5
		c-0.9,1-1.4,1.8-1.7,2.2c-0.7,1-1.3,2.6-2.1,4.8c-0.8,2.2-1.2,3.9-1.2,5.1c0,0.5,0.1,0.9,0.3,1.2c0.3,0.3,0.8,0.4,1.7,0.4
		c1.6,0,3.5-0.5,5.5-1.6c2-1,4.1-2.4,6.2-3.9c2.1-1.6,4-3.3,5.9-5c1.9-1.7,3.5-3.2,4.8-4.4c0.3-0.3,0.7-0.4,1.2-0.4
		c1,0,1.5,0.4,1.5,1.2c0,0.7-0.5,1.5-1.4,2.4c-1.8,1.8-3.4,3.3-4.9,4.7c-1.5,1.4-2.9,2.6-4.3,3.6c-2.2,1.6-4.5,3-7.2,4.3
		C374.4,70.4,372,71.1,369.7,71.1z M397.1,69.5c-5.3,0-7.9-3-7.9-8.9c0-2.7,0.7-5.6,2-8.6c1.3-3,3-5.8,5.2-8.3
		c2.2-2.6,4.5-4.7,7.2-6.4c2.7-1.6,5.4-2.4,8.1-2.4c2.4,0,4.2,0.9,5.3,2.7c1.1,1.8,1.7,3.9,1.7,6.1c0,2.9-0.6,5.9-1.8,9
		c-1.2,3-2.8,5.8-4.8,8.3c-2,2.5-4.3,4.6-6.9,6.2C402.6,68.7,399.9,69.5,397.1,69.5z M397,66.4c0.4,0,0.6,0,0.7-0.1
		c2.5-0.3,4.9-1.2,7.1-2.7c2.2-1.5,4-3.4,5.6-5.6c1.6-2.3,2.9-4.7,3.7-7.4c0.8-2.6,1.3-5.2,1.3-7.7c0-1.5-0.4-2.7-1.3-3.5
		c-0.8-0.8-1.9-1.3-3.2-1.3c-1.9,0-3.9,0.8-6.1,2.4c-2.1,1.6-4.1,3.6-6,6c-1.8,2.4-3.3,5-4.5,7.6c-1.2,2.6-1.8,5-1.8,7.1
		C392.5,64.6,394,66.4,397,66.4z M418.4,72.4c-1,0-1.6-0.4-1.6-1.3c0-0.3,0.1-0.7,0.4-1.2c0.3-0.5,0.5-0.9,0.7-1.3l8.8-17.7
		c3.8-7.7,5.7-12,5.7-12.8c0-0.9,0.5-1.4,1.4-1.4c1.2,0,1.9,0.7,1.9,2c0,0.5-0.3,1.4-0.9,2.9c-0.6,1.5-1.3,3.2-2.3,5.1
		c-1.6,3.4-2.9,6-3.9,7.8c2-2.3,4-4.4,6-6.5c2-2,4.1-4,6.2-5.8c6.2-5.4,11-8.1,14.3-8.1c2.3,0,3.4,1.1,3.4,3.2c0,2-1.7,6.4-5,13.2
		c-3.3,6.9-5,11.3-5,13.1c0,0.8,0.3,1.3,0.9,1.3c0.2,0,0.5-0.1,0.9-0.2c0.5-0.2,0.9-0.3,1.4-0.3c1.1,0,1.7,0.5,1.7,1.6
		c0,1.3-1.4,2-4.2,2c-1.3,0-2.3-0.3-2.8-0.9c-0.6-0.7-0.9-1.5-0.9-2.5c0-3.1,1.6-7.9,4.8-14.3c3.2-6.3,4.8-10.2,4.8-11.5
		c0-0.8-0.3-1.2-0.9-1.2c-1.4,0-3.8,1.2-7,3.6c-3.5,2.6-6.9,5.6-10.4,9c-3.5,3.4-6.8,7.3-9.9,11.7l-6.9,9.5
		C419.6,72.2,419.1,72.4,418.4,72.4z"/>
</g>
</svg>
