<?xml version="1.0" encoding="utf-8"?>
<!-- Generator: Adobe Illustrator 23.0.3, SVG Export Plug-In . SVG Version: 6.00 Build 0)  -->
<svg version="1.1" id="Layer_1" xmlns="http://www.w3.org/2000/svg" xmlns:xlink="http://www.w3.org/1999/xlink" x="0px" y="0px"
	 viewBox="0 0 202 90" style="enable-background:new 0 0 202 90;" xml:space="preserve">
<style type="text/css">
	.st0{fill:url(#SVGID_1_);}
</style>
<g>
	
		<linearGradient id="SVGID_1_" gradientUnits="userSpaceOnUse" x1="101.6124" y1="70.3014" x2="101.6124" y2="-3.505" gradientTransform="matrix(1 0 0 -1 0 92)">
		<stop  offset="0" style="stop-color:#FF68D5"/>
		<stop  offset="0.5099" style="stop-color:#F3A7FF"/>
		<stop  offset="1" style="stop-color:#FF33AD"/>
	</linearGradient>
	<path class="st0" d="M13.8,80.4c-1.1,0-1.7-0.7-1.7-2c0-2.1,1.1-5.7,3.4-11c2.3-5.3,5.7-12.1,10.3-20.4l18.6-33.5h-1.9
		c-15.2,0-25.2,1.9-29.8,5.6c-1.9,1.5-3.2,3.7-3.9,6.5c-0.1,1-0.5,1.5-1.3,1.5c-1.3,0-2-0.6-2-1.8c0-3.3,1.8-6.2,5.4-8.8
		c5.4-4.1,15.6-6.1,30.5-6.1c4.3,0,8.7,0.1,13,0.3l10.2,0.7c2.1,0.1,4,0.3,5.7,0.4c1.7,0.1,3.2,0.1,4.5,0.1c1,0,1.6,0.5,1.6,1.6
		c0,1-0.5,1.6-1.6,1.6c-2.3,0-5.7-0.2-10.2-0.6c-3.3-0.3-5.8-0.5-7.6-0.6c-1.8-0.1-3.5-0.1-5-0.1c-1.4,0-2.4,0-3,0
		c-0.7-0.1-1.1-0.1-1.4-0.1c-0.8,2-2.8,5.9-6,11.7l-9.9,17.6c-5.6,9.9-9.7,17.8-12.4,23.7c-2.7,5.9-4,9.7-4,11.4v0.5
		C15.3,79.8,14.8,80.4,13.8,80.4z M50,76.3c-2.7,0-4.9-0.9-6.5-2.8s-2.4-4.2-2.4-7c0-4.7,1.6-9.5,4.7-14.5c0.9-1.4,1.8-2.7,2.9-4
		c1.1-1.4,2.3-2.7,3.6-3.9c2-1.9,4-3.5,6.2-4.7c2.2-1.2,4.2-1.9,6.3-1.9c3.3,0,5,1.6,5,4.7c0,3.9-2.3,7.5-6.9,10.7
		c-4.2,2.9-8.4,4.3-12.5,4.3c-0.7,0-1.4,0-2-0.1c-0.5-0.1-1-0.3-1.5-0.4c-0.7,1.2-1.2,2.8-1.8,4.8c-0.5,2-0.8,3.7-0.8,5.1
		c0,4.3,1.9,6.5,5.7,6.5c3.1,0,6-0.5,8.7-1.6c2.7-1.1,6-3.2,9.8-6.2c2.4-1.8,4.1-3.3,5.3-4.4c1.2-1.1,2.4-2.3,3.8-3.5
		c0.4-0.3,0.8-0.4,1.1-0.4c0.3,0,0.7,0.1,1,0.3c0.3,0.2,0.5,0.5,0.5,0.9c0,0.7-0.7,1.7-2,3c-1.1,1-2.3,2.2-3.5,3.3
		c-1.2,1.1-3.2,2.7-5.9,4.7c-2.9,2.2-6,4-9.4,5.2C56.2,75.6,53,76.3,50,76.3z M49.9,54c2.1,0,4.1-0.3,6-1c1.9-0.7,3.7-1.6,5.4-2.8
		c3.8-2.8,5.7-5.5,5.7-7.9c0-1.1-0.7-1.7-2.1-1.7c-2.6,0-5.7,1.6-9.1,4.8c-1.7,1.6-3.1,3-4.2,4.3c-1,1.2-2,2.6-2.9,4.1
		C49,54,49.4,54,49.9,54z M78.8,75.5c-3.8,0-5.7-1.8-5.7-5.4c0-2.4,0.6-4.9,1.7-7.5c1.2-2.7,2.7-5.4,4.7-7.9c2-2.6,4.1-5,6.6-7.1
		c2.4-2.2,4.9-3.9,7.4-5.1c2.5-1.3,5-2,7.3-2c4.2,0,6.3,2.1,6.3,6.2c0,2.7-0.7,4-2,4c-1.2,0-1.8-0.6-1.8-1.7c0-0.5,0.1-0.9,0.3-1.4
		c0.3-0.5,0.4-1.1,0.4-1.7c0-1.8-1.2-2.7-3.7-2.7c-4,0-9,3-15,9.1c-1.4,1.5-2.8,3.3-4.2,5.3c-1.4,2-2.5,4.1-3.4,6.2
		c-0.9,2-1.3,4-1.3,5.8c0,1.8,1,2.6,2.9,2.6c1.7,0,3.5-0.5,5.4-1.6c2-1,3.7-2.1,5.1-3.2c2.9-2.2,5.8-5.1,8.8-8.8
		c0.5-0.5,1-1.2,1.8-2.1c0.7-0.8,1.5-1.8,2.4-2.8c0.3-0.3,0.7-0.5,1.2-0.5c1,0,1.6,0.5,1.6,1.6l-3.7,5.6c-2.5,3.7-3.7,6.7-3.7,9
		c0,1.7,0.8,2.5,2.4,2.5c1.4,0,2.9-0.4,4.5-1.1c1.6-0.7,3-1.4,4-2.2c2.1-1.4,4.3-3.1,6.6-5.1c2.3-2.1,4.5-4.2,6.6-6.3
		c0.3-0.3,0.7-0.4,1.2-0.4c1,0,1.5,0.4,1.5,1.2c0,0.7-0.5,1.5-1.4,2.4c-2.6,2.6-5,4.9-7.1,6.8c-2.1,1.8-4.1,3.3-6,4.5
		c-1.2,0.7-2.8,1.5-4.6,2.3c-1.8,0.8-3.9,1.2-6.3,1.2c-3.2,0-4.8-1.7-4.8-5.1c0-1.3,0.2-2.4,0.5-3.2C89.4,72.6,83.9,75.5,78.8,75.5z
		 M115.8,77.8c-1.1,0-1.7-0.5-1.7-1.6c0-0.1,0.4-0.9,1.2-2.4s1.9-3.9,3.3-7l5-10.5c2-4.2,3.5-7.6,4.3-10.1c0.9-2.5,1.4-4.1,1.4-4.8
		c0-1,0.5-1.6,1.6-1.6c1,0,1.6,0.5,1.6,1.6c0,0.8-0.3,2.2-0.9,4c-0.5,1.8-1.4,4.1-2.6,6.9l-5,11.4c13.7-17.2,23.9-25.9,30.9-25.9
		c1.3,0,2.3,0.6,3,1.7c0.7,1,1.1,2.2,1.1,3.5c0,3.1-2.3,8.6-6.8,16.4c3.5-3.5,7-7.1,10.5-10.6c3.6-3.6,7.2-7.1,10.8-10.6
		c0.9-0.8,1.7-1.3,2.3-1.3c0.8,0,1.4,0.4,2,1.2c0.5,0.7,0.8,1.5,0.8,2.4c0,0.7-0.3,1.5-0.9,2.4c-0.8,1.4-1.6,3.2-2.4,5.2
		c-0.7,2-1.5,4.2-2.4,6.7c-1,2.8-1.8,5.3-2.3,7.3c-0.5,2.1-0.7,3.8-0.7,5.1c0,1.6,0.4,2.8,1.2,3.6c0.8,0.7,1.6,1.1,2.4,1.1
		c1.4,0,2.9-0.4,4.5-1.1c1.6-0.7,3-1.4,4-2.2c2.1-1.4,4.3-3.1,6.6-5.1c2.3-2.1,4.5-4.2,6.6-6.3c0.3-0.3,0.7-0.4,1.2-0.4
		c1,0,1.5,0.4,1.5,1.2c0,0.7-0.5,1.5-1.4,2.4c-2.6,2.6-5,4.9-7.1,6.8c-2.1,1.8-4.1,3.3-6,4.5c-1.2,0.7-2.7,1.5-4.5,2.3
		c-1.8,0.8-3.7,1.2-5.7,1.2c-1.9,0-3.5-0.6-4.8-1.8c-1.2-1.2-1.9-3.7-1.9-7.5c0-1.5,0.3-3.3,0.8-5.3c0.5-2.1,1.3-4.4,2.4-7l5.2-12.3
		l-14,14.1c-1.6,1.6-3,3-4,4.1c-1,1.1-1.9,2-2.5,2.7c-1.2,1.3-2.4,2.6-3.3,3.8c-0.9,1.2-1.7,2.3-2.4,3.2c-0.5,0.7-1,1.1-1.6,1.1
		c-1.1,0-1.7-0.5-1.7-1.4c0-2,1.8-6.7,5.5-14c3.7-7.3,5.5-11.7,5.5-13.1c0-0.7-0.7-1-2.2-1c-5.8,0-16.2,9.5-31.1,28.5
		c-1.2,1.8-3.3,4.4-6.2,7.9C116.6,77.7,116.2,77.8,115.8,77.8z"/>
</g>
</svg>
