<?xml version="1.0" encoding="utf-8"?>
<!-- Generator: Adobe Illustrator 23.0.3, SVG Export Plug-In . SVG Version: 6.00 Build 0)  -->
<svg version="1.1" id="Layer_1" xmlns="http://www.w3.org/2000/svg" xmlns:xlink="http://www.w3.org/1999/xlink" x="0px" y="0px"
	 viewBox="0 0 765.4 149.2" style="enable-background:new 0 0 765.4 149.2;" xml:space="preserve">
<style type="text/css">
	.st0{fill:url(#SVGID_1_);}
	.st1{fill:url(#SVGID_2_);}
	.st2{fill:url(#SVGID_3_);}
</style>
<g>
	
		<linearGradient id="SVGID_1_" gradientUnits="userSpaceOnUse" x1="382.5343" y1="106.407" x2="382.5343" y2="-14.093" gradientTransform="matrix(1 0 0 -1 0 147.814)">
		<stop  offset="0" style="stop-color:#FF68D5"/>
		<stop  offset="0.5099" style="stop-color:#F3A7FF"/>
		<stop  offset="1" style="stop-color:#FF33AD"/>
	</linearGradient>
	<path class="st0" d="M754.2,2.6c-3.6,0-10,6.5-19.2,19.5c-5.8,8.1-11.1,16.4-15.9,24.8c-4.8,8.3-9.3,16.8-13.4,25.4
		c-5.3,11.4-9.1,21.4-11.3,30.1c-1.3,5.1-1.9,9.5-1.9,13.1c0,5,1.3,9.1,3.8,12.2c2.7,3,6.5,4.5,11.4,4.5c4.2,0,8.1-1.1,11.7-3.2
		c1.2-0.8,1.8-2.1,1.8-3.7c0-1.8-0.6-2.7-1.9-2.7c-0.2,0-1.5,0.6-4,1.9c-2.5,1.4-4.8,2.1-7.2,2.1c-6.6,0-9.9-4-9.9-12.2
		c0-3.1,0.5-6.4,1.4-9.9c3.4-12.3,8.1-24.5,14.2-36.8c6.2-12.3,14.1-24.3,23.9-36l11.2-13.6c6-7.2,9-11.8,9-13.6
		C757.7,3.3,756.6,2.6,754.2,2.6z M692.9,69.5c-5.4,0-13.2,4.4-23.4,13.3c-3.4,3-6.8,6.1-10.1,9.4s-6.6,6.8-9.8,10.6
		c1.7-3,3.8-7.2,6.4-12.8c1.5-3.1,2.7-5.8,3.7-8.2c1-2.3,1.4-4,1.4-5.1c0-2-1-3-3-3c-1.5,0-2.2,0.8-2.2,2.2c0,1.4-3.1,8.4-9.3,21
		l-1.5,3.1l-6.1,12.3l-7,14.1c-0.2,0.4-0.5,1-1,1.6c-0.3,0.6-0.5,1.3-0.5,1.9c0,1.4,0.9,2.1,2.6,2.1c0.8,0,1.3-0.2,1.6-0.6
		c0.4-0.3,0.8-0.8,1.3-1.3l8-11.2c6.5-9.1,12.6-16.5,18.4-22.4c5.9-5.9,11.7-10.9,17.4-15.2c5.2-4,8.7-5.9,10.6-5.9
		c1.2,0,1.9,0.6,2.2,1.9c0.5,1.8,1.3,2.7,2.4,2.7c2.2,0,3.4-1.7,3.4-5.1C698.5,71.3,696.6,69.5,692.9,69.5z M645.5,99.9
		c-0.1,0-0.2,0-0.4,0c-0.7,0-1.2,0.2-1.6,0.6c-2.1,2-4.8,4.4-7.8,7.2c-3,2.8-6.2,5.5-9.6,8.2c-3.4,2.6-6.8,4.7-10.1,6.4
		c-3.3,1.7-6.3,2.6-9,2.6c-1.4,0-2.3-0.2-2.7-0.6c-0.3-0.4-0.5-1.1-0.5-1.9c0-1.9,0.6-4.7,1.9-8.3c1.2-3.6,2.3-6.2,3.4-7.8
		c0.4-0.6,1.3-1.8,2.7-3.5c1.4-1.8,2.8-3.7,4.3-5.8c1.5-2,2.7-3.6,3.5-4.8c2.1-3.2,4.1-6.3,5.9-9.3c1.8-3,2.7-5,2.7-6.1
		c0-1.7-1-2.6-2.9-2.6c-1.4,0-3.3,1.3-5.6,4c-2.2,2.6-4.6,5.9-7,9.9c-2.5,4.1-4.8,8.3-7,12.8c-2.1,4.5-3.9,8.7-5.3,12.6
		c-1.4,3.8-2.1,6.9-2.1,9.1c0,2.4,0.6,4.1,1.9,5.3c1.4,1.2,3.6,1.8,6.6,1.8c3.7,0,7.7-1.1,12-3.2c4.3-2.1,8.2-4.5,11.7-7
		c2.2-1.7,4.6-3.7,7-5.9c0.5-0.4,0.9-0.8,1.4-1.3c2.1-1.9,4.3-4,6.6-6.4c1.5-1.5,2.2-2.8,2.2-4C647.9,100.5,647.1,99.9,645.5,99.9z
		 M644.4,47.1c-0.9,0-1.8,0.3-2.9,0.8c-1,0.5-2.4,1.8-4.2,3.8c-0.5,0.5-1.3,1.5-2.2,3s-1.8,3-2.6,4.5c-0.8,1.4-1.1,2.4-1.1,2.9
		c0,1.8,0.9,2.7,2.7,2.7c0.7,0,1.3-0.2,1.6-0.5c0.4-0.4,0.7-0.8,0.8-1.3l3.5-5c0.4-0.6,1.5-1.5,3.2-2.6c1.2-0.8,2.2-1.8,3-2.7
		c1-1.1,1.4-2,1.4-2.7C647.8,48.1,646.6,47.1,644.4,47.1z M599.7,77.3c-3.4-0.6-6.5-1-9.1-1.1c-0.4-1.7-1.5-2.6-3-2.6
		c-1.1,0-1.8,0.5-2.2,1.6l-0.5,1c-3.9-0.1-8,0-12.1,0.3c-4.2,0.3-8.4,0.9-12.6,1.8c-4.7,0.8-9,1.9-12.8,3.2c-3.9,1.2-7,2.5-9.4,3.8
		c-1.1,0.5-1.8,1-2.1,1.4c-0.3,0.3-0.5,0.8-0.5,1.3c0,1.9,0.9,2.9,2.7,2.9c0.9,0,2.9-0.5,6.1-1.6c3.3-1.2,6.6-2.2,9.9-3
		c5.4-1.5,10.7-2.7,15.7-3.7c5-1,9.2-1.4,12.5-1.4c-2.4,4.3-4.4,8-6.2,11.2c-1.8,3.2-3.4,5.9-4.6,8l-4.8,8.2
		c-0.5,0.5-1.4,1.3-2.7,2.2c-1.2,1-2.7,2.1-4.6,3.4c-4.5,2.9-9.5,5.5-15.2,8c-5.5,2.4-11.3,4.2-17.1,5.6c-5.8,1.4-11.2,2.1-16.3,2.1
		c-4.4,0-9-0.6-13.8-1.9c-4.8-1.4-9.2-3.5-13.3-6.4c-3.9-2.9-7.2-6.6-9.8-11.2c-2.4-4.6-3.7-10.3-3.7-17.1c0-8.2,1.5-15.6,4.5-22.2
		c3.1-6.7,7.5-12.9,13.1-18.6c8.5-8.5,18.3-15.2,29.4-20.2c11.2-5,22.7-7.5,34.4-7.5c5.2,0,10.2,0.8,14.9,2.2
		c4.7,1.4,8.5,3.5,11.5,6.4c3.1,2.9,4.6,6.5,4.6,10.9c0,3.6-1.4,6.9-4.3,9.8c-1.5,1.4-2.6,2.5-3.4,3.2c-0.7,0.6-1.1,1.2-1.1,1.8
		c0,0.8,0.4,1.5,1.3,2.2c0.8,0.6,1.7,1,2.6,1c1.1,0,2.3-0.6,3.7-1.9c1.5-1.4,2.6-2.5,3.2-3.4c2.7-3.1,4-6.8,4-11.2
		c0-5.3-1.7-9.9-5-13.6c-3.3-3.8-7.6-6.7-12.8-8.6c-5.1-2-10.5-3-16.2-3c-26.8,0-49.9,8.8-69.3,26.4c-6.8,6.2-12,13-15.7,20.5
		c-3.6,7.5-5.4,15.7-5.4,24.8c0,8.5,1.9,16.1,5.8,22.6c3.8,6.4,9.1,11.4,15.8,14.9c6.7,3.5,14.5,5.3,23.2,5.3
		c5.4,0,11.3-0.8,17.6-2.2c6.3-1.5,12.5-3.5,18.6-5.9c6.2-2.6,11.7-5.4,16.5-8.5c-1.5,4-2.2,6.6-2.2,7.8c0,1.9,1.1,2.9,3.2,2.9
		c1,0,1.6-0.6,1.9-1.8c1-3.5,2.4-7.2,4.3-10.9c0.5-1.2,1.3-2.6,2.2-4.3c1-1.7,2.1-3.7,3.5-6.1c6.9-11.7,11.6-19.9,13.9-24.5
		c2.6,0,4.9,0.2,7,0.6c2.2,0.4,3.7,0.6,4.5,0.6c1.6,0,2.4-0.8,2.4-2.4C602.3,78.6,601.4,77.7,599.7,77.3z M434.3,59.9
		c-4.4-0.5-8.2-0.9-11.4-1.1c-3.2-0.3-5.6-0.5-7.2-0.5c0.4-0.8,3.6-5.4,9.4-14.1c4.7-6.9,7-11.2,7-12.8c0-0.5-0.2-1-0.6-1.4
		c-0.4-0.5-1.1-0.8-1.9-0.8c-1.4,0-2.6,0.8-3.7,2.2c-1.1,1.7-2,3.3-2.9,4.8c-0.9,1.4-1.7,2.7-2.4,3.8l-11,18.2
		c-7.9,0-14,0.9-18.4,2.7c-4.4,1.8-6.6,4.1-6.6,6.9c0,1.7,0.9,2.6,2.6,2.6c0.8,0,1.3-0.2,1.6-0.5c0.4-0.4,0.7-0.9,0.8-1.3
		c0.2-1.5,2.1-2.7,5.6-3.7c3.6-1.1,7.5-1.6,11.5-1.6c-10.5,19-18.3,34.3-23.7,46.1c-5.2,11.7-7.8,20-7.8,24.6c0,3.2,1,4.8,3,4.8
		c1.8,0,2.7-0.8,2.7-2.6v-0.3l-0.2-1.3c-0.1-9.3,10.7-33,32.3-71l2.4-0.2c1.8-0.1,4,0,6.6,0.2c2.6,0.2,5,0.5,7.2,0.8
		c2.2,0.2,3.7,0.3,4.5,0.3c1.9,0,2.9-0.9,2.9-2.6C436.7,60.8,435.9,60,434.3,59.9z M369.3,74.1c-2.6-1.7-5.5-2.6-9-2.6
		c-3.4,0-6.9,0.8-10.6,2.2c-3.6,1.5-6.7,3.5-9.1,6.1c-2.3,2.6-3.5,5.4-3.5,8.6c0,1.7,0.6,3.2,1.8,4.6c1.2,1.4,3.1,2.5,5.8,3.4
		l10.6,3.2c2.2,0.6,3.8,1.6,4.8,2.9c1.1,1.3,1.6,2.7,1.6,4.3c0,2.4-1,4.8-2.9,7.4s-4.4,5-7.4,7.2c-2.9,2.2-6,4.1-9.3,5.4
		c-3.2,1.4-6.2,2.1-9,2.1c-3.3,0-5-1-5-2.9c0-2,1.3-4.6,4-7.8c2.8-3.3,6.6-6.1,11.5-8.5c1.2-0.6,1.8-1.2,1.8-1.8c0-0.6-0.4-1-1.3-1
		c-0.7,0-1.7,0.2-2.9,0.5c-1.1,0.3-1.9,0.6-2.6,1c-2.1,1.1-4.4,2.6-6.9,4.6c-2.5,2-4.6,4.3-6.4,6.7c-1.7,2.5-2.6,4.9-2.6,7.4
		c0,4,3,5.9,9,5.9c8.9,0,18-4.2,27.5-12.6c5.9-5.1,8.8-10.1,8.8-14.9c0-2-0.6-3.8-1.8-5.4c-1.2-1.7-3.3-3-6.4-4L349.8,93
		c-4.3-1.3-6.4-3-6.4-5.1s0.9-4.1,2.6-5.9c1.7-1.8,3.8-3.2,6.4-4.3c2.7-1.2,5.3-1.8,8-1.8c4.9,0,7.4,1.6,7.4,4.8
		c0,0.8-0.3,1.5-1,2.4c-0.5,0.8-0.8,1.4-0.8,1.9c0,1.5,0.9,2.2,2.7,2.2c1.2,0,2.2-0.7,3-2.1c1-1.4,1.4-2.9,1.4-4.5
		C373.1,77.9,371.9,75.7,369.3,74.1z M337.2,99.7c-0.5-0.3-1.1-0.5-1.6-0.5c-0.5,0-1.1,0.2-1.8,0.6c-2.2,2-4.3,4-6.2,5.8
		c-1.9,1.8-4.8,4.2-8.6,7.2c-6.2,4.9-11.5,8.3-16,10.1c-4.5,1.7-9.2,2.6-14.2,2.6c-6.2,0-9.3-3.5-9.3-10.6c0-2.3,0.4-5.1,1.3-8.3
		c0.9-3.2,1.8-5.8,2.9-7.8c0.8,0.2,1.5,0.4,2.4,0.6c1,0.1,2,0.2,3.2,0.2c6.7,0,13.5-2.3,20.5-7c7.5-5.2,11.2-11,11.2-17.4
		c0-5.1-2.7-7.7-8.2-7.7c-3.3,0-6.7,1-10.2,3c-3.5,2-6.9,4.6-10.1,7.7c-2.1,2-4.1,4.2-5.9,6.4c-1.8,2.1-3.4,4.3-4.8,6.6
		c-5.1,8.1-7.7,16-7.7,23.7c0,4.5,1.3,8.3,3.8,11.4c2.6,3.1,6.1,4.6,10.6,4.6c4.9,0,10.1-1,15.7-3c5.5-2,10.7-4.9,15.4-8.5
		c4.4-3.3,7.6-5.9,9.6-7.7c2-1.9,4-3.7,5.8-5.4c2.1-2.1,3.2-3.8,3.2-5C338,100.5,337.7,100.1,337.2,99.7z M291,87.4
		c1.8-2.1,4.1-4.5,6.9-7c5.7-5.2,10.6-7.8,14.9-7.8c2.2,0,3.4,0.9,3.4,2.7c0,4-3.1,8.4-9.3,13c-2.8,2-5.7,3.6-8.8,4.6
		c-3.1,1.1-6.3,1.6-9.8,1.6c-0.7,0-1.4-0.1-2.1-0.3C287.7,91.7,289.3,89.5,291,87.4z M253.7,64.8c0.5,0,0.9,0.1,1.2,0.1
		c1.1,0,1.9-0.3,2.4-0.9C256.1,64.2,254.9,64.5,253.7,64.8z M191.3,74.9c-1.8-3-4.7-4.5-8.6-4.5c-4.5,0-8.9,1.3-13.3,4
		c-4.3,2.7-8.2,6.1-11.7,10.4c-3.5,4.2-6.3,8.7-8.5,13.6c-2.1,4.9-3.2,9.6-3.2,14.1c0,9.7,4.3,14.6,13,14.6c4.6,0,9-1.3,13.1-3.8
		c4.2-2.6,7.9-5.9,11.2-10.1c3.3-4.2,5.9-8.7,7.8-13.6c1.9-5,2.9-9.9,2.9-14.7C194,81.2,193.1,77.9,191.3,74.9z M186.6,96.2
		c-1.4,4.3-3.4,8.3-6.1,12c-2.6,3.6-5.6,6.7-9.1,9.1c-3.5,2.5-7.4,4-11.5,4.5c-0.1,0.1-0.5,0.2-1.1,0.2c-4.9,0-7.4-2.9-7.4-8.6
		c0-3.4,1-7.2,2.9-11.5c1.9-4.4,4.4-8.5,7.4-12.5c3.1-4,6.3-7.2,9.8-9.8c3.5-2.6,6.8-3.8,9.9-3.8c2.1,0,3.9,0.7,5.3,2.1
		c1.4,1.4,2.1,3.3,2.1,5.8C188.7,87.7,188,92,186.6,96.2z M156.4,17.3c-0.9,0-2,0.5-3.4,1.6c-1.4,1.1-3.5,3.5-6.4,7.2
		c-2.9,3.6-6.2,8.7-10.1,15.2c-2.7,4.4-5.2,8.8-7.7,13.3c-2.3,4.4-4.6,8.9-6.7,13.4c-25.1-1.6-42.3-2.4-51.7-2.4
		c-4.7,0-9.3,0.1-13.8,0.3c-4.5,0.2-8.8,0.5-12.8,1l12.6-20.3c5.3-8.6,9.2-15,11.7-19.2c2.6-4.3,3.8-6.8,3.8-7.5c0-2.1-1-3.2-3-3.2
		c-1,0-1.7,0.5-2.1,1.6c-1.3,2.9-2.9,6.1-5,9.6c-2,3.4-4.5,7.4-7.4,12c-4,6.2-7.4,11.6-10.2,16.2c-2.8,4.6-5.1,8.4-6.9,11.5
		c-13.2,2-19.8,4.4-19.8,7.2c0,1.8,1,2.7,2.9,2.7c0.7,0,2.3-0.5,4.6-1.6c2.5-1.2,5.5-2,9.1-2.4c-2.2,3.7-3.9,6.6-5,8.5
		c-14.7,26.7-22.1,46.3-22.1,58.9c0,1.8,1,2.7,3,2.7c1.5,0,2.3-0.7,2.4-2.1c0.2-1.9,0.5-4,0.8-6.2s1-5.4,2.1-9.6
		c1.1-3.6,3.1-9.1,6.1-16.3c3-7.4,7.1-15.7,12.3-25l6.9-12c8.6-1,18.2-1.4,28.6-1.4c3.7,0,9.8,0.2,18.1,0.5
		c8.4,0.3,19.1,0.8,32.2,1.6c-10.5,23.7-15.7,40.2-15.7,49.6c0,3.7,0.8,5.6,2.6,5.6c1.8,0,2.7-0.6,2.7-1.9v-3.5
		c0-8.8,5.4-25.3,16.2-49.3l4.8,0.3c1.1,0.1,1.9-0.1,2.4-0.6c0.5-0.5,0.8-1.2,0.8-1.9c0-1.8-1.9-2.7-5.6-2.7c3.6-7.8,8-16,13.1-24.6
		c3.4-5.9,6.5-10.6,9.3-14.2c2.8-3.6,5.1-6.1,7-7.5c1-0.6,1.4-1.4,1.4-2.2C158.8,18.2,158,17.3,156.4,17.3z"/>
	<linearGradient id="SVGID_2_" gradientUnits="userSpaceOnUse" x1="263.6893" y1="29.187" x2="263.6893" y2="138.947">
		<stop  offset="0" style="stop-color:#FF68D5"/>
		<stop  offset="0.5099" style="stop-color:#F3A7FF"/>
		<stop  offset="1" style="stop-color:#FF33AD"/>
	</linearGradient>
	<path class="st1" d="M294.4,62.3c0,1.7-1,2.6-2.9,2.6c-0.8,0-2.2-0.1-4.5-0.3c-2.2-0.3-4.6-0.6-7.2-0.8c-2.6-0.2-4.8-0.3-6.6-0.2
		l-2.4,0.2c-21.7,38.1-32.4,61.8-32.3,71l0.2,1.3v0.3c0,1.7-0.9,2.6-2.7,2.6c-2,0-3-1.6-3-4.8c0-4.7,2.6-12.9,7.8-24.6
		c5.3-11.7,13.2-27.1,23.7-46.1c-2.5,0-4.8,0.2-7.2,0.6c-1.2,0.2-2.4,0.5-3.6,0.8c-0.3,0.1-0.5,0.1-0.8,0.2c-3.5,1-5.4,2.2-5.6,3.7
		c-0.1,0.4-0.4,0.9-0.8,1.3c-0.3,0.3-0.9,0.5-1.6,0.5c-1.7,0-2.6-0.8-2.6-2.6c0-1.5,0.6-2.8,1.9-4.1c1.1-1,2.6-2,4.6-2.8
		c1.3-0.5,2.8-1,4.4-1.4c3.8-0.9,8.5-1.3,14-1.3l11-18.2c0.8-1.2,1.6-2.4,2.4-3.8c0.8-1.5,1.8-3.1,2.9-4.8c1.1-1.5,2.3-2.2,3.7-2.2
		c0.8,0,1.5,0.3,1.9,0.8c0.4,0.4,0.6,0.9,0.6,1.4c0,1.6-2.3,5.9-7,12.8c-5.9,8.6-9,13.3-9.4,14.1c1.6,0,4,0.2,7.2,0.5
		c3.2,0.2,7,0.6,11.4,1.1C293.6,60,294.4,60.8,294.4,62.3z"/>
	<linearGradient id="SVGID_3_" gradientUnits="userSpaceOnUse" x1="224.8893" y1="29.187" x2="224.8893" y2="138.947">
		<stop  offset="0" style="stop-color:#FF68D5"/>
		<stop  offset="0.5099" style="stop-color:#F3A7FF"/>
		<stop  offset="1" style="stop-color:#FF33AD"/>
	</linearGradient>
	<path class="st2" d="M244.1,58.8c2.7,0.2,5.8,0.5,9.2,0.9c-1.6,0.4-3.1,0.8-4.4,1.4c-2,0.8-3.6,1.8-4.6,2.8c-0.3,0-0.7-0.1-1-0.1
		c-2.6-0.2-4.8-0.3-6.6-0.2l-2.4,0.2c-21.7,38.1-32.4,61.8-32.3,71l0.2,1.3v0.3c0,1.7-0.9,2.6-2.7,2.6c-2,0-3-1.6-3-4.8
		c0-4.7,2.6-12.9,7.8-24.6c5.3-11.7,13.2-27.1,23.7-46.1c-4.1,0-7.9,0.5-11.5,1.6c-3.5,1-5.4,2.2-5.6,3.7c-0.1,0.4-0.4,0.9-0.8,1.3
		c-0.3,0.3-0.9,0.5-1.6,0.5c-1.7,0-2.6-0.8-2.6-2.6c0-2.8,2.2-5.1,6.6-6.9c4.4-1.8,10.5-2.7,18.4-2.7l11-18.2
		c0.7-1.2,1.5-2.4,2.4-3.8c0.8-1.5,1.8-3.1,2.9-4.8c1.1-1.5,2.3-2.2,3.7-2.2c0.8,0,1.5,0.3,1.9,0.8c0.4,0.4,0.6,0.9,0.6,1.4
		c0,1.6-2.3,5.9-7,12.8c-5.9,8.6-9,13.3-9.4,14.1C238.5,58.3,240.9,58.5,244.1,58.8z"/>
</g>
</svg>
